<svg version="1.1" id="Layer_1" xmlns="http://www.w3.org/2000/svg" xmlns:xlink="http://www.w3.org/1999/xlink" x="0px" y="0px"
	 width="100%" viewBox="0 0 500 500" enable-background="new 0 0 500 500" xml:space="preserve">
<path fill="#FFFFFF" opacity="1.000000" stroke="none" 
	d="
M278.000000,501.000000 
	C185.333359,501.000000 93.166710,501.000000 1.000049,501.000000 
	C1.000033,334.333405 1.000033,167.666794 1.000016,1.000139 
	C167.666565,1.000093 334.333130,1.000093 500.999756,1.000046 
	C500.999847,167.666519 500.999847,334.333038 500.999939,500.999786 
	C426.833344,501.000000 352.666656,501.000000 278.000000,501.000000 
M304.029968,230.045593 
	C304.029968,230.045593 304.067841,230.066574 303.257446,229.991943 
	C301.039337,229.343216 298.821198,228.694473 296.179626,227.921890 
	C292.604095,230.936523 273.098358,230.982056 270.085358,227.513580 
	C266.974854,230.556076 262.573914,230.118912 259.940552,226.699799 
	C258.645233,228.061462 257.329895,229.444229 255.352402,230.941238 
	C254.907776,230.902557 254.463135,230.863861 253.996872,230.030228 
	C252.959320,229.054169 251.921768,228.078094 250.884232,227.102020 
	C250.394974,228.341919 249.905716,229.581833 248.783585,230.924393 
	C248.570068,230.915039 248.356567,230.905670 247.846008,230.086853 
	C245.448196,230.123169 243.050400,230.159485 239.782364,230.196106 
	C234.095230,229.399063 228.837128,230.193054 224.456009,234.294296 
	C217.805511,240.519989 216.519165,251.977249 221.642349,259.435516 
	C227.274857,267.635254 235.699478,269.163391 246.280899,263.904694 
	C248.404388,265.866730 290.105621,267.335297 293.533112,265.592743 
	C293.896240,264.264038 294.249573,262.971222 294.724609,261.232971 
	C296.473907,262.699402 297.733826,263.755554 299.254364,265.362183 
	C299.785706,265.629181 300.317047,265.896179 301.038757,266.749268 
	C302.526672,273.953247 308.052948,270.194733 311.960876,271.010986 
	C311.608673,269.556824 311.308716,268.318329 311.622772,266.854889 
	C312.052948,266.786011 312.483124,266.717102 313.348846,267.320801 
	C316.087646,267.506195 320.436829,266.701019 321.271332,268.057678 
	C324.074188,272.614655 329.193207,269.570160 332.265686,272.363068 
	C332.694244,272.752594 334.671906,272.297150 335.124420,271.659485 
	C337.742615,267.969696 340.865936,267.503754 345.103760,268.706665 
	C348.911316,269.787445 350.746002,267.000977 350.162628,262.753235 
	C349.511566,258.012878 349.402802,253.200027 348.984192,248.425186 
	C348.635376,244.445999 349.191315,241.859146 354.349945,241.773529 
	C359.512817,241.687851 357.707733,237.087555 357.966736,234.065674 
	C358.196411,231.385742 357.921692,228.821106 354.254669,229.029831 
	C350.474731,229.244965 349.886139,227.075684 349.951782,223.974426 
	C350.018250,220.834457 351.100372,219.939209 354.291901,220.678024 
	C355.379852,220.929901 357.643097,219.484238 358.126709,218.304733 
	C359.356384,215.305695 361.011688,211.773392 360.389191,208.913208 
	C359.707520,205.780975 361.053711,199.908035 354.096710,200.568848 
	C353.380676,204.085052 351.183899,205.473572 347.207825,205.156891 
	C344.877014,204.971268 341.983887,205.801178 340.099640,207.195663 
	C334.611328,211.257446 333.311371,217.478012 333.051483,223.868912 
	C332.821442,229.526535 327.722900,232.944351 323.465607,229.302231 
	C318.882874,225.381683 316.195129,227.599274 312.274414,230.218262 
	C311.852875,230.110855 311.431335,230.003464 310.864410,229.205261 
	C308.474243,228.580612 305.642151,224.498642 304.029968,230.045593 
M187.995544,209.140167 
	C182.250763,208.047012 179.350906,210.122574 178.328354,216.200943 
	C177.150894,223.200089 174.930923,230.031693 173.011627,236.893524 
	C172.423935,238.994614 171.335373,240.955627 169.966019,244.183212 
	C168.889832,241.884552 168.274612,240.976028 168.026154,239.976334 
	C165.826691,231.127258 163.776840,222.239792 161.458801,213.422546 
	C161.053223,211.879776 159.732880,209.548279 158.608841,209.409241 
	C154.629211,208.916916 150.551498,209.217377 145.686905,209.217377 
	C151.078598,228.371078 156.021103,246.074860 161.141251,263.727142 
	C161.424759,264.704559 163.129990,265.793396 164.261688,265.900787 
	C167.398010,266.198486 170.609055,266.246918 173.731796,265.885834 
	C174.985764,265.740814 176.795837,264.487640 177.140930,263.365967 
	C179.284225,256.399750 181.062256,249.321732 183.018097,242.296555 
	C183.325943,241.190796 183.921722,240.165192 184.384384,239.102524 
	C184.907959,239.096283 185.431534,239.090042 185.955109,239.083801 
	C187.797684,245.016159 189.660583,250.942322 191.478134,256.882324 
	C194.295319,266.089142 194.284912,265.934601 203.994110,266.099884 
	C207.389008,266.157623 209.010498,265.202545 209.952820,261.836243 
	C214.112259,246.977524 218.565613,232.201309 222.810104,217.365921 
	C223.509171,214.922577 223.697006,212.332977 224.231049,209.157211 
	C219.627991,209.157211 215.819855,208.961044 212.056549,209.285217 
	C211.022675,209.374268 209.528564,210.872101 209.255325,211.973907 
	C207.025406,220.965195 205.097382,230.031143 202.897720,239.030426 
	C202.601669,240.241669 201.304291,241.208176 199.630768,243.375763 
	C196.498291,232.165955 193.828003,222.445206 191.021133,212.764038 
	C190.649750,211.483124 189.582458,210.403992 187.995544,209.140167 
z"/>
<path fill="#E6CFAB" opacity="1.000000" stroke="none" 
	d="
M188.416504,209.185791 
	C189.582458,210.403992 190.649750,211.483124 191.021133,212.764038 
	C193.828003,222.445206 196.498291,232.165955 199.630768,243.375763 
	C201.304291,241.208176 202.601669,240.241669 202.897720,239.030426 
	C205.097382,230.031143 207.025406,220.965195 209.255325,211.973907 
	C209.528564,210.872101 211.022675,209.374268 212.056549,209.285217 
	C215.819855,208.961044 219.627991,209.157211 224.231049,209.157211 
	C223.697006,212.332977 223.509171,214.922577 222.810104,217.365921 
	C218.565613,232.201309 214.112259,246.977524 209.952820,261.836243 
	C209.010498,265.202545 207.389008,266.157623 203.994110,266.099884 
	C194.284912,265.934601 194.295319,266.089142 191.478134,256.882324 
	C189.660583,250.942322 187.797684,245.016159 185.955109,239.083801 
	C185.431534,239.090042 184.907959,239.096283 184.384384,239.102524 
	C183.921722,240.165192 183.325943,241.190796 183.018097,242.296555 
	C181.062256,249.321732 179.284225,256.399750 177.140930,263.365967 
	C176.795837,264.487640 174.985764,265.740814 173.731796,265.885834 
	C170.609055,266.246918 167.398010,266.198486 164.261688,265.900787 
	C163.129990,265.793396 161.424759,264.704559 161.141251,263.727142 
	C156.021103,246.074860 151.078598,228.371078 145.686905,209.217377 
	C150.551498,209.217377 154.629211,208.916916 158.608841,209.409241 
	C159.732880,209.548279 161.053223,211.879776 161.458801,213.422546 
	C163.776840,222.239792 165.826691,231.127258 168.026154,239.976334 
	C168.274612,240.976028 168.889832,241.884552 169.966019,244.183212 
	C171.335373,240.955627 172.423935,238.994614 173.011627,236.893524 
	C174.930923,230.031693 177.150894,223.200089 178.328354,216.200943 
	C179.350906,210.122574 182.250763,208.047012 188.416504,209.185791 
z"/>
<path fill="#216FAC" opacity="1.000000" stroke="none" 
	d="
M248.143051,230.896317 
	C248.356567,230.905670 248.570068,230.915039 249.412094,230.949463 
	C251.366577,230.924744 252.692535,230.874954 254.018509,230.825165 
	C254.463135,230.863861 254.907776,230.902557 256.044464,230.962402 
	C257.472992,231.032532 258.209442,231.081467 258.973511,231.563614 
	C259.176117,235.029938 259.351135,238.063065 259.567139,241.526657 
	C259.585693,244.264038 259.563263,246.570938 259.374084,249.119507 
	C259.335510,250.284851 259.463715,251.208511 259.624451,252.552063 
	C259.620361,254.934601 259.583771,256.897278 259.368286,259.082947 
	C259.087952,259.868530 258.986511,260.431122 258.623749,260.699493 
	C258.051697,252.550476 258.007568,244.668915 257.224915,236.861389 
	C257.050018,235.116684 254.521332,232.721741 252.655945,232.234009 
	C249.625671,231.441711 248.470383,233.894791 248.391846,236.804199 
	C248.196579,244.037689 247.744949,251.269379 247.778564,258.500000 
	C247.786316,260.167511 249.099548,263.046265 250.207718,263.253662 
	C253.060852,263.787781 256.135681,263.137573 259.381653,262.846985 
	C260.085114,262.150208 260.528809,261.567047 261.145996,260.693604 
	C264.711853,255.502289 268.104218,250.601212 271.632111,246.084808 
	C269.610687,252.161514 269.891205,257.847748 271.931274,264.001770 
	C277.247833,264.001770 282.701752,264.153900 288.132111,263.864319 
	C289.133575,263.810944 290.791840,261.959473 290.777679,260.957336 
	C290.763550,259.962433 289.124512,258.311523 288.017914,258.144897 
	C285.257263,257.729248 282.347443,258.286835 279.594269,257.847351 
	C278.405457,257.657562 277.455658,255.970581 276.397278,254.963730 
	C279.009338,253.065781 278.290558,247.782257 283.151764,248.580963 
	C281.520721,251.352539 279.963715,253.788864 278.181519,256.577576 
	C283.164734,256.577576 287.470856,256.577576 292.021820,256.577576 
	C290.683929,250.199524 289.861298,244.192993 293.706329,239.023254 
	C293.679413,241.327133 293.416351,243.251389 293.356567,245.181931 
	C293.277466,247.737701 292.570526,250.654755 293.533966,252.782242 
	C295.494812,257.112000 298.393982,261.016785 300.583710,265.075867 
	C299.838531,264.973938 299.416107,264.892822 298.993713,264.811707 
	C297.733826,263.755554 296.473907,262.699402 294.724609,261.232971 
	C294.249573,262.971222 293.896240,264.264038 293.533112,265.592743 
	C290.105621,267.335297 248.404388,265.866730 246.280899,263.904694 
	C235.699478,269.163391 227.274857,267.635254 221.642349,259.435516 
	C216.519165,251.977249 217.805511,240.519989 224.456009,234.294296 
	C228.837128,230.193054 234.095230,229.399063 240.459442,230.453430 
	C243.482910,230.361908 245.687988,235.348999 248.143051,230.896317 
M237.232254,240.781219 
	C235.759369,242.333023 234.338242,243.938263 232.802795,245.425476 
	C229.609436,248.518585 231.664124,251.110687 233.702850,253.461502 
	C236.032944,256.148254 238.820206,258.430634 242.551575,255.827560 
	C245.449661,253.805771 248.116760,251.099945 246.801422,247.311996 
	C245.979630,244.945267 243.655350,243.100250 242.370178,240.470917 
	C243.505646,239.674667 244.641113,238.878403 245.776581,238.082138 
	C245.693680,237.705139 245.610779,237.328140 245.527878,236.951141 
	C242.837509,236.824585 240.147125,236.698029 237.175003,236.558228 
	C237.808029,234.939117 238.256836,233.791168 239.208694,231.356583 
	C234.864380,232.399368 231.547180,233.195618 227.532700,234.159225 
	C228.998245,236.161423 229.778000,237.226730 230.806732,238.632156 
	C228.309860,238.925079 226.394608,239.149765 224.307739,239.394577 
	C223.947388,242.901047 223.733078,246.167725 223.255798,249.395493 
	C222.114105,257.116730 223.597061,260.472504 231.326050,264.150299 
	C237.741776,267.203217 244.009201,264.539337 244.496857,257.989532 
	C242.669907,257.989532 240.844696,257.755371 239.102463,258.036194 
	C234.924942,258.709534 231.895370,256.762329 230.992126,253.160965 
	C230.164307,249.860413 230.266388,245.965424 231.275528,242.744949 
	C231.673584,241.474625 235.636475,241.321350 237.232254,240.781219 
z"/>
<path fill="#E3F7FD" opacity="1.000000" stroke="none" 
	d="
M312.924225,230.296768 
	C316.195129,227.599274 318.882874,225.381683 323.465607,229.302231 
	C327.722900,232.944351 332.821442,229.526535 333.051483,223.868912 
	C333.311371,217.478012 334.611328,211.257446 340.099640,207.195663 
	C341.983887,205.801178 344.877014,204.971268 347.207825,205.156891 
	C351.183899,205.473572 353.380676,204.085052 354.096710,200.568848 
	C361.053711,199.908035 359.707520,205.780975 360.389191,208.913208 
	C361.011688,211.773392 359.356384,215.305695 358.126709,218.304733 
	C357.643097,219.484238 355.379852,220.929901 354.291901,220.678024 
	C351.100372,219.939209 350.018250,220.834457 349.951782,223.974426 
	C349.886139,227.075684 350.474731,229.244965 354.254669,229.029831 
	C357.921692,228.821106 358.196411,231.385742 357.966736,234.065674 
	C357.707733,237.087555 359.512817,241.687851 354.349945,241.773529 
	C349.191315,241.859146 348.635376,244.445999 348.984192,248.425186 
	C349.402802,253.200027 349.511566,258.012878 350.162628,262.753235 
	C350.746002,267.000977 348.911316,269.787445 345.103760,268.706665 
	C340.865936,267.503754 337.742615,267.969696 335.124420,271.659485 
	C334.671906,272.297150 332.694244,272.752594 332.265686,272.363068 
	C329.193207,269.570160 324.074188,272.614655 321.271332,268.057678 
	C320.436829,266.701019 316.087646,267.506195 313.356445,266.754333 
	C315.329346,264.888947 317.294647,263.590027 319.400391,262.397705 
	C319.665375,262.707703 319.823944,262.879608 319.978027,263.454529 
	C320.432159,264.577515 320.894684,265.834442 321.422394,265.862396 
	C324.823273,266.042908 328.238373,265.954742 331.855194,265.954742 
	C331.855194,258.238434 331.743164,251.257538 331.950653,244.286148 
	C331.991638,242.908524 333.261749,241.567505 333.965027,240.209595 
	C334.567871,241.523529 335.659607,242.825577 335.691925,244.153412 
	C335.864929,251.256714 335.773560,258.366455 335.773560,265.662476 
	C339.961517,265.662476 343.669098,265.662476 347.898407,265.662476 
	C347.898407,257.102905 347.898407,248.869751 347.898407,240.431168 
	C350.783783,240.182632 353.170441,239.977051 355.462097,239.779663 
	C355.462097,236.629639 355.462097,233.928131 355.462097,231.206284 
	C352.776031,231.026932 350.505920,230.875351 347.959229,230.705292 
	C347.959229,227.269577 347.653137,224.100266 348.094238,221.038620 
	C348.300629,219.605957 350.139343,217.139481 350.915833,217.257782 
	C357.380035,218.242691 357.065582,212.886597 359.182251,209.277054 
	C353.715302,206.362839 348.560883,204.730545 342.766693,208.158447 
	C342.221466,208.321838 342.023010,208.552216 341.640686,208.954391 
	C340.848022,209.650040 340.353210,210.272034 339.912109,210.938904 
	C339.965851,210.983780 339.891998,210.864838 339.609619,211.016678 
	C338.863556,212.106400 338.399902,213.044281 337.664429,214.260727 
	C336.617249,219.878250 335.841827,225.217209 334.997284,231.032227 
	C331.219696,231.032227 327.249512,230.780167 323.340546,231.159332 
	C321.829407,231.305923 320.457031,232.883545 318.872009,233.576431 
	C318.211700,233.149063 317.700867,232.954437 317.105225,232.784607 
	C317.020416,232.809418 317.197021,232.804062 317.035034,232.539642 
	C316.291748,232.087601 315.710510,231.899979 315.151001,231.725525 
	C315.172791,231.738708 315.188171,231.687698 315.018005,231.467026 
	C314.206635,230.929825 313.565430,230.613297 312.924225,230.296768 
z"/>
<path fill="#E3F7FD" opacity="1.000000" stroke="none" 
	d="
M293.560669,238.646439 
	C289.861298,244.192993 290.683929,250.199524 292.021820,256.577576 
	C287.470856,256.577576 283.164734,256.577576 278.181519,256.577576 
	C279.963715,253.788864 281.520721,251.352539 283.135864,248.575211 
	C283.194000,248.234192 283.196869,248.205215 283.484070,248.027863 
	C287.415100,242.443146 291.058899,237.035812 294.932068,231.288101 
	C282.769470,231.288101 271.502197,231.288101 259.918762,231.198486 
	C259.383759,231.116074 259.164825,231.123245 258.945923,231.130417 
	C258.209442,231.081467 257.472992,231.032532 256.375519,230.905273 
	C257.329895,229.444229 258.645233,228.061462 259.940552,226.699799 
	C262.573914,230.118912 266.974854,230.556076 270.085358,227.513580 
	C273.098358,230.982056 292.604095,230.936523 296.179626,227.921890 
	C298.821198,228.694473 301.039337,229.343216 303.447327,230.264252 
	C302.303497,231.186798 300.969788,231.837036 299.651917,232.499420 
	C299.667694,232.511566 299.654236,232.544495 299.363403,232.606857 
	C298.670258,233.074753 298.267883,233.480286 297.900024,233.923126 
	C297.934540,233.960449 297.931580,233.858841 297.652466,233.934601 
	C297.147095,234.314743 296.920837,234.619125 296.503296,234.970993 
	C296.066376,235.162048 295.925964,235.375031 295.596527,235.801544 
	C294.744598,236.848724 294.187012,237.751755 293.611786,238.661819 
	C293.594177,238.668839 293.560669,238.646439 293.560669,238.646439 
z"/>
<path fill="#E3F7FD" opacity="1.000000" stroke="none" 
	d="
M311.008728,267.079834 
	C311.308716,268.318329 311.608673,269.556824 311.960876,271.010986 
	C308.052948,270.194733 302.526672,273.953247 301.015472,266.378479 
	C300.992188,266.007690 301.135223,265.855560 301.496338,265.893616 
	C302.573883,266.015106 303.290344,266.098572 304.105408,266.284485 
	C304.204010,266.386963 304.479767,266.317474 304.830566,266.541504 
	C307.123810,266.870331 309.066284,266.975098 311.008728,267.079834 
z"/>
<path fill="#216FAC" opacity="1.000000" stroke="none" 
	d="
M311.315735,266.967377 
	C309.066284,266.975098 307.123810,266.870331 305.273193,266.444336 
	C307.718994,265.600922 310.098328,265.170685 312.419861,264.530701 
	C314.730103,263.893799 316.982300,263.046234 319.259949,262.291077 
	C317.294647,263.590027 315.329346,264.888947 313.138672,266.418030 
	C312.483124,266.717102 312.052948,266.786011 311.315735,266.967377 
z"/>
<path fill="#216FAC" opacity="1.000000" stroke="none" 
	d="
M299.636108,232.487289 
	C300.969788,231.837036 302.303497,231.186798 303.852509,230.301575 
	C304.067841,230.066574 304.029968,230.045593 304.471893,230.093719 
	C306.945801,230.059906 308.977814,229.977966 311.009796,229.896042 
	C311.431335,230.003464 311.852875,230.110855 312.599304,230.257507 
	C313.565430,230.613297 314.206635,230.929825 314.548645,231.568817 
	C309.378326,232.089951 304.507233,232.288620 299.636108,232.487289 
z"/>
<path fill="#E3F7FD" opacity="1.000000" stroke="none" 
	d="
M247.994537,230.491577 
	C245.687988,235.348999 243.482910,230.361908 240.894562,230.453278 
	C243.050400,230.159485 245.448196,230.123169 247.994537,230.491577 
z"/>
<path fill="#E3F7FD" opacity="1.000000" stroke="none" 
	d="
M254.007690,230.427704 
	C252.692535,230.874954 251.366577,230.924744 249.728531,230.898132 
	C249.905716,229.581833 250.394974,228.341919 250.884232,227.102020 
	C251.921768,228.078094 252.959320,229.054169 254.007690,230.427704 
z"/>
<path fill="#E3F7FD" opacity="1.000000" stroke="none" 
	d="
M310.937103,229.550644 
	C308.977814,229.977966 306.945801,230.059906 304.479370,230.109436 
	C305.642151,224.498642 308.474243,228.580612 310.937103,229.550644 
z"/>
<path fill="#E3F7FD" opacity="1.000000" stroke="none" 
	d="
M299.124023,265.086945 
	C299.416107,264.892822 299.838531,264.973938 300.596222,265.059509 
	C300.931519,265.063934 300.901550,265.072449 300.954834,265.269775 
	C301.008087,265.467072 301.135223,265.855560 301.135223,265.855560 
	C301.135223,265.855560 300.992188,266.007690 300.920288,266.085449 
	C300.317047,265.896179 299.785706,265.629181 299.124023,265.086945 
z"/>
<path fill="#0E6EBB" opacity="1.000000" stroke="none" 
	d="
M299.651917,232.499420 
	C304.507233,232.288620 309.378326,232.089951 314.718811,231.789490 
	C315.188171,231.687698 315.172791,231.738708 315.262573,232.043030 
	C315.967224,232.499588 316.582123,232.651825 317.197021,232.804062 
	C317.197021,232.804062 317.020416,232.809418 317.072144,233.103394 
	C317.756378,233.534637 318.388885,233.671906 319.021423,233.809174 
	C320.457031,232.883545 321.829407,231.305923 323.340546,231.159332 
	C327.249512,230.780167 331.219696,231.032227 334.997284,231.032227 
	C335.841827,225.217209 336.617249,219.878250 338.023254,214.213257 
	C339.066589,212.879776 339.479279,211.872299 339.891998,210.864838 
	C339.891998,210.864838 339.965851,210.983780 340.229218,210.972610 
	C340.974579,210.267868 341.456543,209.574310 341.938538,208.880737 
	C342.023010,208.552216 342.221466,208.321838 343.022522,208.406601 
	C347.539124,208.828400 351.567078,209.033203 355.870758,209.252014 
	C355.145142,215.510834 350.392273,214.794769 347.017395,215.280151 
	C346.611572,219.033920 346.783447,222.592834 345.756226,225.763245 
	C344.130890,230.779770 346.149414,232.440125 350.675262,233.106491 
	C351.829010,233.276367 352.805237,234.651703 353.863037,235.473190 
	C352.823334,236.311859 351.826721,237.800629 350.736206,237.872879 
	C346.736450,238.137924 345.803070,240.241226 345.952362,243.837326 
	C346.166168,248.987015 346.045685,254.153336 345.973175,259.311249 
	C345.916107,263.371429 343.256744,264.426514 339.870758,263.915161 
	C336.293152,263.374817 336.603760,261.313232 338.361389,258.929382 
	C338.617371,258.582214 338.653564,257.977570 338.601379,257.513458 
	C338.092560,252.989059 337.456573,248.477188 337.040314,243.944870 
	C336.816986,241.513733 337.605957,238.911819 333.514618,238.920105 
	C329.460052,238.928314 330.007416,241.461792 330.008362,243.940048 
	C330.010803,250.467850 330.009186,256.995667 330.009186,264.337494 
	C326.117340,263.824402 323.066956,263.422241 320.016602,263.020111 
	C319.823944,262.879608 319.665375,262.707703 319.400391,262.397705 
	C316.982300,263.046234 314.730103,263.893799 312.419861,264.530701 
	C310.098328,265.170685 307.718994,265.600922 304.922363,266.220276 
	C304.479767,266.317474 304.204010,266.386963 303.919189,265.980469 
	C302.723450,265.406769 301.812500,265.239624 300.901550,265.072449 
	C300.901550,265.072449 300.931519,265.063934 300.919006,265.080322 
	C298.393982,261.016785 295.494812,257.112000 293.533966,252.782242 
	C292.570526,250.654755 293.277466,247.737701 293.356567,245.181931 
	C293.416351,243.251389 293.679413,241.327133 293.706329,239.023254 
	C293.560669,238.646439 293.594177,238.668839 294.008362,238.727509 
	C294.911987,237.743256 295.401428,236.700333 295.890869,235.657410 
	C295.925964,235.375031 296.066376,235.162048 296.790375,234.902863 
	C297.489655,234.477783 297.710632,234.168304 297.931580,233.858841 
	C297.931580,233.858841 297.934540,233.960449 298.236542,233.934601 
	C298.910461,233.453995 299.282349,232.999252 299.654236,232.544495 
	C299.654236,232.544495 299.667694,232.511566 299.651917,232.499420 
M305.968353,254.412979 
	C309.280151,257.254028 313.239380,258.022430 316.358734,255.088409 
	C318.330780,253.233521 319.590546,249.730743 319.637421,246.941345 
	C319.698273,243.317413 316.763824,240.553802 313.161865,240.585907 
	C310.513184,240.609543 307.176361,241.830673 305.405304,243.706757 
	C302.686310,246.586990 303.194611,250.457962 305.968353,254.412979 
z"/>
<path fill="#0A6EBC" opacity="1.000000" stroke="none" 
	d="
M237.976105,240.659439 
	C235.636475,241.321350 231.673584,241.474625 231.275528,242.744949 
	C230.266388,245.965424 230.164307,249.860413 230.992126,253.160965 
	C231.895370,256.762329 234.924942,258.709534 239.102463,258.036194 
	C240.844696,257.755371 242.669907,257.989532 244.496857,257.989532 
	C244.009201,264.539337 237.741776,267.203217 231.326050,264.150299 
	C223.597061,260.472504 222.114105,257.116730 223.255798,249.395493 
	C223.733078,246.167725 223.947388,242.901047 224.307739,239.394577 
	C226.394608,239.149765 228.309860,238.925079 230.806732,238.632156 
	C229.778000,237.226730 228.998245,236.161423 227.532700,234.159225 
	C231.547180,233.195618 234.864380,232.399368 239.208694,231.356583 
	C238.256836,233.791168 237.808029,234.939117 237.175003,236.558228 
	C240.147125,236.698029 242.837509,236.824585 245.527878,236.951141 
	C245.610779,237.328140 245.693680,237.705139 245.776581,238.082138 
	C244.641113,238.878403 243.505646,239.674667 241.779510,240.737915 
	C240.117920,240.889771 239.047012,240.774612 237.976105,240.659439 
z"/>
<path fill="#0A6EBC" opacity="1.000000" stroke="none" 
	d="
M259.121918,262.960571 
	C256.135681,263.137573 253.060852,263.787781 250.207718,263.253662 
	C249.099548,263.046265 247.786316,260.167511 247.778564,258.500000 
	C247.744949,251.269379 248.196579,244.037689 248.391846,236.804199 
	C248.470383,233.894791 249.625671,231.441711 252.655945,232.234009 
	C254.521332,232.721741 257.050018,235.116684 257.224915,236.861389 
	C258.007568,244.668915 258.051697,252.550476 258.673645,261.026398 
	C259.030548,262.085205 259.076233,262.522888 259.121918,262.960571 
z"/>
<path fill="#0A6EBC" opacity="1.000000" stroke="none" 
	d="
M283.209900,248.239929 
	C278.290558,247.782257 279.009338,253.065781 276.397278,254.963730 
	C277.455658,255.970581 278.405457,257.657562 279.594269,257.847351 
	C282.347443,258.286835 285.257263,257.729248 288.017914,258.144897 
	C289.124512,258.311523 290.763550,259.962433 290.777679,260.957336 
	C290.791840,261.959473 289.133575,263.810944 288.132111,263.864319 
	C282.701752,264.153900 277.247833,264.001770 271.931274,264.001770 
	C269.891205,257.847748 269.610687,252.161514 271.663879,246.088837 
	C271.560120,245.708191 271.618439,245.732544 272.014771,245.705124 
	C273.576141,244.933594 275.425323,244.429947 275.786224,243.403168 
	C277.244995,239.253036 280.220367,240.690109 281.878021,242.203369 
	C283.113983,243.331680 282.813232,246.143265 283.196838,248.205215 
	C283.196869,248.205215 283.194000,248.234192 283.209900,248.239929 
z"/>
<path fill="#FFFFFF" opacity="1.000000" stroke="none" 
	d="
M237.604187,240.720337 
	C239.047012,240.774612 240.117920,240.889771 241.597046,241.013031 
	C243.655350,243.100250 245.979630,244.945267 246.801422,247.311996 
	C248.116760,251.099945 245.449661,253.805771 242.551575,255.827560 
	C238.820206,258.430634 236.032944,256.148254 233.702850,253.461502 
	C231.664124,251.110687 229.609436,248.518585 232.802795,245.425476 
	C234.338242,243.938263 235.759369,242.333023 237.604187,240.720337 
z"/>
<path fill="#EDF8FB" opacity="1.000000" stroke="none" 
	d="
M259.540833,248.877853 
	C259.563263,246.570938 259.585693,244.264038 259.809082,241.312164 
	C260.363312,240.429504 260.716583,240.191788 261.503967,240.025055 
	C264.291229,240.039536 266.644348,239.983032 269.328247,240.001083 
	C270.105347,240.024902 270.551636,239.974152 271.360352,240.009094 
	C272.277496,240.876297 273.360016,241.727554 273.268066,242.423630 
	C273.115417,243.579071 272.207947,244.634811 271.618439,245.732544 
	C271.618439,245.732544 271.560120,245.708191 271.528351,245.704163 
	C268.104218,250.601212 264.711853,255.502289 260.856079,260.532715 
	C260.110840,260.061401 259.829010,259.460663 259.547180,258.859955 
	C259.583771,256.897278 259.620361,254.934601 259.761353,252.154037 
	C259.757416,250.516724 259.649109,249.697281 259.540833,248.877853 
z"/>
<path fill="#72B0E3" opacity="1.000000" stroke="none" 
	d="
M261.069885,239.954071 
	C260.716583,240.191788 260.363312,240.429504 259.768097,240.881714 
	C259.351135,238.063065 259.176117,235.029938 258.973511,231.563614 
	C259.164825,231.123245 259.383759,231.116074 260.100861,231.530914 
	C260.755981,234.619995 260.912933,237.287033 261.069885,239.954071 
z"/>
<path fill="#72B0E3" opacity="1.000000" stroke="none" 
	d="
M259.368286,259.082947 
	C259.829010,259.460663 260.110840,260.061401 260.682587,260.822998 
	C260.528809,261.567047 260.085114,262.150208 259.381653,262.846985 
	C259.076233,262.522888 259.030548,262.085205 258.934937,261.320587 
	C258.986511,260.431122 259.087952,259.868530 259.368286,259.082947 
z"/>
<path fill="#72B0E3" opacity="1.000000" stroke="none" 
	d="
M259.374084,249.119507 
	C259.649109,249.697281 259.757416,250.516724 259.728821,251.734161 
	C259.463715,251.208511 259.335510,250.284851 259.374084,249.119507 
z"/>
<path fill="#216FAC" opacity="1.000000" stroke="none" 
	d="
M319.978027,263.454529 
	C323.066956,263.422241 326.117340,263.824402 330.009186,264.337494 
	C330.009186,256.995667 330.010803,250.467850 330.008362,243.940048 
	C330.007416,241.461792 329.460052,238.928314 333.514618,238.920105 
	C337.605957,238.911819 336.816986,241.513733 337.040314,243.944870 
	C337.456573,248.477188 338.092560,252.989059 338.601379,257.513458 
	C338.653564,257.977570 338.617371,258.582214 338.361389,258.929382 
	C336.603760,261.313232 336.293152,263.374817 339.870758,263.915161 
	C343.256744,264.426514 345.916107,263.371429 345.973175,259.311249 
	C346.045685,254.153336 346.166168,248.987015 345.952362,243.837326 
	C345.803070,240.241226 346.736450,238.137924 350.736206,237.872879 
	C351.826721,237.800629 352.823334,236.311859 353.863037,235.473190 
	C352.805237,234.651703 351.829010,233.276367 350.675262,233.106491 
	C346.149414,232.440125 344.130890,230.779770 345.756226,225.763245 
	C346.783447,222.592834 346.611572,219.033920 347.017395,215.280151 
	C350.392273,214.794769 355.145142,215.510834 355.870758,209.252014 
	C351.567078,209.033203 347.539124,208.828400 343.255371,208.375458 
	C348.560883,204.730545 353.715302,206.362839 359.182251,209.277054 
	C357.065582,212.886597 357.380035,218.242691 350.915833,217.257782 
	C350.139343,217.139481 348.300629,219.605957 348.094238,221.038620 
	C347.653137,224.100266 347.959229,227.269577 347.959229,230.705292 
	C350.505920,230.875351 352.776031,231.026932 355.462097,231.206284 
	C355.462097,233.928131 355.462097,236.629639 355.462097,239.779663 
	C353.170441,239.977051 350.783783,240.182632 347.898407,240.431168 
	C347.898407,248.869751 347.898407,257.102905 347.898407,265.662476 
	C343.669098,265.662476 339.961517,265.662476 335.773560,265.662476 
	C335.773560,258.366455 335.864929,251.256714 335.691925,244.153412 
	C335.659607,242.825577 334.567871,241.523529 333.965027,240.209595 
	C333.261749,241.567505 331.991638,242.908524 331.950653,244.286148 
	C331.743164,251.257538 331.855194,258.238434 331.855194,265.954742 
	C328.238373,265.954742 324.823273,266.042908 321.422394,265.862396 
	C320.894684,265.834442 320.432159,264.577515 319.978027,263.454529 
z"/>
<path fill="#216FAC" opacity="1.000000" stroke="none" 
	d="
M339.609619,211.016678 
	C339.479279,211.872299 339.066589,212.879776 338.295044,213.934692 
	C338.399902,213.044281 338.863556,212.106400 339.609619,211.016678 
z"/>
<path fill="#216FAC" opacity="1.000000" stroke="none" 
	d="
M341.640686,208.954391 
	C341.456543,209.574310 340.974579,210.267868 340.175476,210.927734 
	C340.353210,210.272034 340.848022,209.650040 341.640686,208.954391 
z"/>
<path fill="#216FAC" opacity="1.000000" stroke="none" 
	d="
M318.872009,233.576416 
	C318.388885,233.671906 317.756378,233.534637 317.156921,233.078598 
	C317.700867,232.954437 318.211700,233.149063 318.872009,233.576416 
z"/>
<path fill="#216FAC" opacity="1.000000" stroke="none" 
	d="
M317.035034,232.539642 
	C316.582123,232.651825 315.967224,232.499588 315.240784,232.029846 
	C315.710510,231.899979 316.291748,232.087601 317.035034,232.539642 
z"/>
<path fill="#216FAC" opacity="1.000000" stroke="none" 
	d="
M261.503967,240.025055 
	C260.912933,237.287033 260.755981,234.619995 260.416992,231.620514 
	C271.502197,231.288101 282.769470,231.288101 294.932068,231.288101 
	C291.058899,237.035812 287.415100,242.443146 283.484070,248.027863 
	C282.813232,246.143265 283.113983,243.331680 281.878021,242.203369 
	C280.220367,240.690109 277.244995,239.253036 275.786224,243.403168 
	C275.425323,244.429947 273.576141,244.933594 272.014771,245.705124 
	C272.207947,244.634811 273.115417,243.579071 273.268066,242.423630 
	C273.360016,241.727554 272.277496,240.876297 271.359650,239.610168 
	C271.109406,237.599060 271.222260,236.072556 271.335114,234.546066 
	C274.562439,240.998947 280.272644,239.017166 284.842041,238.768845 
	C287.088470,238.646759 289.194885,235.948563 291.364655,234.416168 
	C291.118408,233.846252 290.872131,233.276321 290.625854,232.706406 
	C283.244873,232.706406 275.863861,232.706406 267.817810,232.706406 
	C268.223633,235.190125 268.610565,237.558319 268.997498,239.926514 
	C266.644348,239.983032 264.291229,240.039536 261.503967,240.025055 
z"/>
<path fill="#216FAC" opacity="1.000000" stroke="none" 
	d="
M295.596527,235.801544 
	C295.401428,236.700333 294.911987,237.743256 294.025970,238.720490 
	C294.187012,237.751755 294.744598,236.848724 295.596527,235.801544 
z"/>
<path fill="#216FAC" opacity="1.000000" stroke="none" 
	d="
M299.363403,232.606873 
	C299.282349,232.999252 298.910461,233.453995 298.202026,233.897278 
	C298.267883,233.480286 298.670258,233.074753 299.363403,232.606873 
z"/>
<path fill="#216FAC" opacity="1.000000" stroke="none" 
	d="
M297.652466,233.934601 
	C297.710632,234.168304 297.489655,234.477783 296.981628,234.855377 
	C296.920837,234.619125 297.147095,234.314743 297.652466,233.934601 
z"/>
<path fill="#216FAC" opacity="1.000000" stroke="none" 
	d="
M300.954834,265.269775 
	C301.812500,265.239624 302.723450,265.406769 303.820587,265.877991 
	C303.290344,266.098572 302.573883,266.015106 301.496338,265.893616 
	C301.135223,265.855560 301.008087,265.467072 300.954834,265.269775 
z"/>
<path fill="#EDF8FB" opacity="1.000000" stroke="none" 
	d="
M305.678192,254.139069 
	C303.194611,250.457962 302.686310,246.586990 305.405304,243.706757 
	C307.176361,241.830673 310.513184,240.609543 313.161865,240.585907 
	C316.763824,240.553802 319.698273,243.317413 319.637421,246.941345 
	C319.590546,249.730743 318.330780,253.233521 316.358734,255.088409 
	C313.239380,258.022430 309.280151,257.254028 305.678192,254.139069 
z"/>
<path fill="#0A6EBC" opacity="1.000000" stroke="none" 
	d="
M269.328247,240.001083 
	C268.610565,237.558319 268.223633,235.190125 267.817810,232.706406 
	C275.863861,232.706406 283.244873,232.706406 290.625854,232.706406 
	C290.872131,233.276321 291.118408,233.846252 291.364655,234.416168 
	C289.194885,235.948563 287.088470,238.646759 284.842041,238.768845 
	C280.272644,239.017166 274.562439,240.998947 271.335114,234.546066 
	C271.222260,236.072556 271.109406,237.599060 270.997253,239.524475 
	C270.551636,239.974152 270.105347,240.024902 269.328247,240.001083 
z"/>
</svg>