<svg xmlns="http://www.w3.org/2000/svg" width="59.422" height="70.741" viewBox="0 0 59.422 70.741">
  <g id="service-icon3" transform="translate(-305 -1141)">
    <g id="Group_4412" data-name="Group 4412" transform="translate(305 1141)">
      <circle id="Ellipse_153" data-name="Ellipse 153" cx="2.122" cy="2.122" r="2.122" transform="translate(27.589 4.952)" fill="#505050"/>
      <path id="Path_8580" data-name="Path 8580" d="M56.178,7.659H41.718l-.61-2.445A4.244,4.244,0,0,0,36.99,2H24.432a4.245,4.245,0,0,0-4.119,3.215L19.7,7.659H5.244A4.244,4.244,0,0,0,1,11.9V68.5a4.244,4.244,0,0,0,4.244,4.244H56.178A4.244,4.244,0,0,0,60.422,68.5V11.9A4.244,4.244,0,0,0,56.178,7.659ZM24.432,4.83H36.99A1.415,1.415,0,0,1,38.364,5.9l1.855,7.416H21.2L23.058,5.9A1.415,1.415,0,0,1,24.432,4.83ZM57.593,68.5a1.415,1.415,0,0,1-1.415,1.415H5.244A1.415,1.415,0,0,1,3.83,68.5V11.9a1.415,1.415,0,0,1,1.415-1.415H19l-.976,3.9a1.415,1.415,0,0,0,1.372,1.759H42.03A1.415,1.415,0,0,0,43.4,14.39l-.976-3.9H56.178A1.415,1.415,0,0,1,57.593,11.9Z" transform="translate(-1 -2)" fill="#505050"/>
      <path id="Path_8581" data-name="Path 8581" d="M20.42,17.178a1.415,1.415,0,0,0-1.923.549L12.482,28.555,9.547,24.64a1.415,1.415,0,0,0-2.264,1.7L11.527,32a1.415,1.415,0,0,0,2.368-.161L20.97,19.1A1.415,1.415,0,0,0,20.42,17.178Z" transform="translate(1.489 4.222)" fill="#505050"/>
      <path id="Path_8582" data-name="Path 8582" d="M20.42,33.178a1.415,1.415,0,0,0-1.923.549L12.482,44.555,9.547,40.64a1.415,1.415,0,0,0-2.264,1.7L11.527,48a1.415,1.415,0,0,0,2.368-.161L20.97,35.1a1.415,1.415,0,0,0-.55-1.924Z" transform="translate(1.489 10.859)" fill="#505050"/>
      <path id="Path_8583" data-name="Path 8583" d="M40.222,20H23.244a4.244,4.244,0,1,0,0,8.489H40.222a4.244,4.244,0,1,0,0-8.489Zm0,5.659H23.244a1.415,1.415,0,1,1,0-2.83H40.222a1.415,1.415,0,1,1,0,2.83Z" transform="translate(6.467 5.467)" fill="#505050"/>
      <path id="Path_8584" data-name="Path 8584" d="M40.222,36H23.244a4.244,4.244,0,1,0,0,8.489H40.222a4.244,4.244,0,0,0,0-8.489Zm0,5.659H23.244a1.415,1.415,0,1,1,0-2.83H40.222a1.415,1.415,0,0,1,0,2.83Z" transform="translate(6.467 12.104)" fill="#505050"/>
    </g>
  </g>
</svg>
