<svg xmlns="http://www.w3.org/2000/svg" width="162.702" height="159.837" viewBox="0 0 162.702 159.837">
  <g id="dots-bg" opacity="0.91">
    <path id="Path_19741" data-name="Path 19741" d="M446.84,93.607a3.917,3.917,0,1,0,3.917-3.917,3.917,3.917,0,0,0-3.917,3.917Z" transform="translate(-291.972 -89.689)" fill="#d5d5d5"/>
    <path id="Path_19742" data-name="Path 19742" d="M453.93,93.608a3.881,3.881,0,1,0,1.149-2.794,3.917,3.917,0,0,0-1.149,2.794Z" transform="translate(-324.777 -89.69)" fill="#d5d5d5"/>
    <path id="Path_19743" data-name="Path 19743" d="M461.05,93.607a3.881,3.881,0,1,0,1.136-2.781,3.917,3.917,0,0,0-1.136,2.781Z" transform="translate(-357.72 -89.689)" fill="#d5d5d5"/>
    <path id="Path_19744" data-name="Path 19744" d="M468.17,93.607a3.881,3.881,0,1,0,1.137-2.781,3.917,3.917,0,0,0-1.137,2.781Z" transform="translate(-390.663 -89.689)" fill="#d5d5d5"/>
    <path id="Path_19745" data-name="Path 19745" d="M475.29,93.607a3.881,3.881,0,1,0,1.124-2.768A3.917,3.917,0,0,0,475.29,93.607Z" transform="translate(-423.607 -89.689)" fill="#d5d5d5"/>
    <path id="Path_19746" data-name="Path 19746" d="M482.41,93.607a3.881,3.881,0,1,0,1.124-2.768,3.917,3.917,0,0,0-1.124,2.768Z" transform="translate(-456.55 -89.689)" fill="#d5d5d5"/>
    <path id="Path_19747" data-name="Path 19747" d="M489.54,93.607a3.917,3.917,0,1,0,3.917-3.917,3.917,3.917,0,0,0-3.917,3.917Z" transform="translate(-489.54 -89.689)" fill="#d5d5d5"/>
    <path id="Path_19748" data-name="Path 19748" d="M446.84,98.837a3.917,3.917,0,1,0,3.917-3.917,3.917,3.917,0,0,0-3.917,3.917Z" transform="translate(-291.972 -75.951)" fill="#d5d5d5"/>
    <path id="Path_19749" data-name="Path 19749" d="M453.93,98.811a3.881,3.881,0,1,0,1.162-2.77A3.917,3.917,0,0,0,453.93,98.811Z" transform="translate(-324.777 -75.925)" fill="#d5d5d5"/>
    <path id="Path_19750" data-name="Path 19750" d="M461.05,98.837a3.881,3.881,0,1,0,1.136-2.78,3.917,3.917,0,0,0-1.136,2.78Z" transform="translate(-357.72 -75.951)" fill="#d5d5d5"/>
    <path id="Path_19751" data-name="Path 19751" d="M468.17,98.837a3.881,3.881,0,1,0,1.137-2.78,3.917,3.917,0,0,0-1.137,2.78Z" transform="translate(-390.663 -75.951)" fill="#d5d5d5"/>
    <path id="Path_19752" data-name="Path 19752" d="M475.29,98.837a3.881,3.881,0,1,0,1.124-2.767A3.917,3.917,0,0,0,475.29,98.837Z" transform="translate(-423.607 -75.951)" fill="#d5d5d5"/>
    <path id="Path_19753" data-name="Path 19753" d="M482.41,98.837a3.881,3.881,0,1,0,1.124-2.767,3.917,3.917,0,0,0-1.124,2.767Z" transform="translate(-456.55 -75.951)" fill="#d5d5d5"/>
    <path id="Path_19754" data-name="Path 19754" d="M489.54,98.837a3.917,3.917,0,1,0,3.917-3.917,3.917,3.917,0,0,0-3.917,3.917Z" transform="translate(-489.54 -75.951)" fill="#d5d5d5"/>
    <path id="Path_19755" data-name="Path 19755" d="M446.84,104.087a3.917,3.917,0,1,0,3.917-3.917,3.917,3.917,0,0,0-3.917,3.917Z" transform="translate(-291.972 -62.16)" fill="#d5d5d5"/>
    <path id="Path_19756" data-name="Path 19756" d="M453.93,104.087a3.881,3.881,0,1,0,1.137-2.78,3.917,3.917,0,0,0-1.137,2.78Z" transform="translate(-324.777 -62.16)" fill="#d5d5d5"/>
    <path id="Path_19757" data-name="Path 19757" d="M461.05,104.087a3.881,3.881,0,1,0,1.136-2.781,3.917,3.917,0,0,0-1.136,2.781Z" transform="translate(-357.72 -62.16)" fill="#d5d5d5"/>
    <path id="Path_19758" data-name="Path 19758" d="M468.17,104.087a3.881,3.881,0,1,0,1.137-2.781,3.917,3.917,0,0,0-1.137,2.781Z" transform="translate(-390.663 -62.16)" fill="#d5d5d5"/>
    <path id="Path_19759" data-name="Path 19759" d="M475.29,104.087a3.881,3.881,0,1,0,1.124-2.767A3.917,3.917,0,0,0,475.29,104.087Z" transform="translate(-423.607 -62.16)" fill="#d5d5d5"/>
    <path id="Path_19760" data-name="Path 19760" d="M482.41,104.087a3.881,3.881,0,1,0,1.124-2.767,3.917,3.917,0,0,0-1.124,2.767Z" transform="translate(-456.55 -62.16)" fill="#d5d5d5"/>
    <path id="Path_19761" data-name="Path 19761" d="M489.54,104.087a3.917,3.917,0,1,0,3.917-3.917,3.917,3.917,0,0,0-3.917,3.917Z" transform="translate(-489.54 -62.16)" fill="#d5d5d5"/>
    <path id="Path_19762" data-name="Path 19762" d="M446.84,109.327a3.917,3.917,0,1,0,3.917-3.917,3.917,3.917,0,0,0-3.917,3.917Z" transform="translate(-291.972 -48.395)" fill="#d5d5d5"/>
    <path id="Path_19763" data-name="Path 19763" d="M453.93,109.327a3.881,3.881,0,1,0,1.137-2.78,3.917,3.917,0,0,0-1.137,2.78Z" transform="translate(-324.777 -48.395)" fill="#d5d5d5"/>
    <path id="Path_19764" data-name="Path 19764" d="M461.05,109.327a3.881,3.881,0,1,0,1.136-2.781,3.917,3.917,0,0,0-1.136,2.781Z" transform="translate(-357.72 -48.395)" fill="#d5d5d5"/>
    <path id="Path_19765" data-name="Path 19765" d="M468.17,109.327a3.881,3.881,0,1,0,1.137-2.781,3.917,3.917,0,0,0-1.137,2.781Z" transform="translate(-390.663 -48.395)" fill="#d5d5d5"/>
    <path id="Path_19766" data-name="Path 19766" d="M475.29,109.327a3.881,3.881,0,1,0,1.124-2.767A3.917,3.917,0,0,0,475.29,109.327Z" transform="translate(-423.607 -48.395)" fill="#d5d5d5"/>
    <path id="Path_19767" data-name="Path 19767" d="M482.41,109.327a3.881,3.881,0,1,0,1.124-2.767,3.917,3.917,0,0,0-1.124,2.767Z" transform="translate(-456.55 -48.395)" fill="#d5d5d5"/>
    <path id="Path_19768" data-name="Path 19768" d="M489.54,109.327a3.917,3.917,0,1,0,3.917-3.917,3.917,3.917,0,0,0-3.917,3.917Z" transform="translate(-489.54 -48.395)" fill="#d5d5d5"/>
    <path id="Path_19769" data-name="Path 19769" d="M446.84,114.531a3.917,3.917,0,1,0,3.917-3.881,3.917,3.917,0,0,0-3.917,3.881Z" transform="translate(-291.972 -34.63)" fill="#d5d5d5"/>
    <path id="Path_19770" data-name="Path 19770" d="M453.93,114.531a3.917,3.917,0,1,0,3.917-3.881A3.917,3.917,0,0,0,453.93,114.531Z" transform="translate(-324.777 -34.63)" fill="#d5d5d5"/>
    <path id="Path_19771" data-name="Path 19771" d="M461.05,114.531a3.917,3.917,0,1,0,3.917-3.881,3.917,3.917,0,0,0-3.917,3.881Z" transform="translate(-357.72 -34.63)" fill="#d5d5d5"/>
    <path id="Path_19772" data-name="Path 19772" d="M468.17,114.531a3.917,3.917,0,1,0,3.917-3.881,3.917,3.917,0,0,0-3.917,3.881Z" transform="translate(-390.663 -34.63)" fill="#d5d5d5"/>
    <path id="Path_19773" data-name="Path 19773" d="M475.29,114.531a3.917,3.917,0,1,0,3.881-3.881A3.917,3.917,0,0,0,475.29,114.531Z" transform="translate(-423.607 -34.63)" fill="#d5d5d5"/>
    <path id="Path_19774" data-name="Path 19774" d="M482.41,114.531a3.917,3.917,0,1,0,3.881-3.881A3.917,3.917,0,0,0,482.41,114.531Z" transform="translate(-456.55 -34.63)" fill="#d5d5d5"/>
    <path id="Path_19775" data-name="Path 19775" d="M489.54,114.531a3.917,3.917,0,1,0,3.917-3.881,3.917,3.917,0,0,0-3.917,3.881Z" transform="translate(-489.54 -34.63)" fill="#d5d5d5"/>
    <path id="Path_19776" data-name="Path 19776" d="M446.84,119.811a3.917,3.917,0,1,0,3.917-3.881,3.917,3.917,0,0,0-3.917,3.881Z" transform="translate(-291.972 -20.76)" fill="#d5d5d5"/>
    <path id="Path_19777" data-name="Path 19777" d="M453.93,119.811a3.917,3.917,0,1,0,3.917-3.881A3.917,3.917,0,0,0,453.93,119.811Z" transform="translate(-324.777 -20.76)" fill="#d5d5d5"/>
    <path id="Path_19778" data-name="Path 19778" d="M461.05,119.811a3.917,3.917,0,1,0,3.917-3.881,3.917,3.917,0,0,0-3.917,3.881Z" transform="translate(-357.72 -20.76)" fill="#d5d5d5"/>
    <path id="Path_19779" data-name="Path 19779" d="M468.17,119.811a3.917,3.917,0,1,0,3.917-3.881,3.917,3.917,0,0,0-3.917,3.881Z" transform="translate(-390.663 -20.76)" fill="#d5d5d5"/>
    <path id="Path_19780" data-name="Path 19780" d="M475.29,119.811a3.917,3.917,0,1,0,3.881-3.881A3.917,3.917,0,0,0,475.29,119.811Z" transform="translate(-423.607 -20.76)" fill="#d5d5d5"/>
    <path id="Path_19781" data-name="Path 19781" d="M482.41,119.811a3.917,3.917,0,1,0,3.881-3.881A3.917,3.917,0,0,0,482.41,119.811Z" transform="translate(-456.55 -20.76)" fill="#d5d5d5"/>
    <path id="Path_19782" data-name="Path 19782" d="M489.54,119.811a3.917,3.917,0,1,0,3.917-3.881,3.917,3.917,0,0,0-3.917,3.881Z" transform="translate(-489.54 -20.76)" fill="#d5d5d5"/>
    <path id="Path_19783" data-name="Path 19783" d="M446.84,125.011a3.917,3.917,0,1,0,3.917-3.881,3.917,3.917,0,0,0-3.917,3.881Z" transform="translate(-291.972 -7.1)" fill="#d5d5d5"/>
    <path id="Path_19784" data-name="Path 19784" d="M453.93,125.011a3.917,3.917,0,1,0,3.917-3.881A3.917,3.917,0,0,0,453.93,125.011Z" transform="translate(-324.777 -7.1)" fill="#d5d5d5"/>
    <path id="Path_19785" data-name="Path 19785" d="M461.05,125.011a3.917,3.917,0,1,0,3.917-3.881,3.917,3.917,0,0,0-3.917,3.881Z" transform="translate(-357.72 -7.1)" fill="#d5d5d5"/>
    <path id="Path_19786" data-name="Path 19786" d="M468.17,125.011a3.917,3.917,0,1,0,3.917-3.881,3.917,3.917,0,0,0-3.917,3.881Z" transform="translate(-390.663 -7.1)" fill="#d5d5d5"/>
    <path id="Path_19787" data-name="Path 19787" d="M475.29,125.011a3.917,3.917,0,1,0,3.881-3.881A3.917,3.917,0,0,0,475.29,125.011Z" transform="translate(-423.607 -7.1)" fill="#d5d5d5"/>
    <path id="Path_19788" data-name="Path 19788" d="M482.41,125.011a3.917,3.917,0,1,0,3.881-3.881A3.917,3.917,0,0,0,482.41,125.011Z" transform="translate(-456.55 -7.1)" fill="#d5d5d5"/>
    <path id="Path_19789" data-name="Path 19789" d="M489.54,125.011a3.917,3.917,0,1,0,3.917-3.881,3.917,3.917,0,0,0-3.917,3.881Z" transform="translate(-489.54 -7.1)" fill="#d5d5d5"/>
    <path id="Path_19790" data-name="Path 19790" d="M446.84,130.251a3.917,3.917,0,1,0,3.917-3.881,3.917,3.917,0,0,0-3.917,3.881Z" transform="translate(-291.972 6.665)" fill="#d5d5d5"/>
    <path id="Path_19791" data-name="Path 19791" d="M453.93,130.251a3.917,3.917,0,1,0,3.917-3.881A3.917,3.917,0,0,0,453.93,130.251Z" transform="translate(-324.777 6.665)" fill="#d5d5d5"/>
    <path id="Path_19792" data-name="Path 19792" d="M461.05,130.251a3.917,3.917,0,1,0,3.917-3.881,3.917,3.917,0,0,0-3.917,3.881Z" transform="translate(-357.72 6.665)" fill="#d5d5d5"/>
    <path id="Path_19793" data-name="Path 19793" d="M468.17,130.251a3.917,3.917,0,1,0,3.917-3.881,3.917,3.917,0,0,0-3.917,3.881Z" transform="translate(-390.663 6.665)" fill="#d5d5d5"/>
    <path id="Path_19794" data-name="Path 19794" d="M475.29,130.251a3.917,3.917,0,1,0,3.881-3.881A3.917,3.917,0,0,0,475.29,130.251Z" transform="translate(-423.607 6.664)" fill="#d5d5d5"/>
    <path id="Path_19795" data-name="Path 19795" d="M482.41,130.251a3.917,3.917,0,1,0,3.881-3.881A3.917,3.917,0,0,0,482.41,130.251Z" transform="translate(-456.55 6.664)" fill="#d5d5d5"/>
    <path id="Path_19796" data-name="Path 19796" d="M489.54,130.251a3.917,3.917,0,1,0,3.917-3.881,3.917,3.917,0,0,0-3.917,3.881Z" transform="translate(-489.54 6.665)" fill="#d5d5d5"/>
    <path id="Path_19797" data-name="Path 19797" d="M446.84,135.517a3.917,3.917,0,1,0,3.917-3.917,3.917,3.917,0,0,0-3.917,3.917Z" transform="translate(-291.972 20.403)" fill="#d5d5d5"/>
    <path id="Path_19798" data-name="Path 19798" d="M453.93,135.517a3.917,3.917,0,1,0,1.16-2.783A3.917,3.917,0,0,0,453.93,135.517Z" transform="translate(-324.777 20.403)" fill="#d5d5d5"/>
    <path id="Path_19799" data-name="Path 19799" d="M461.05,135.517a3.917,3.917,0,1,0,3.917-3.917A3.917,3.917,0,0,0,461.05,135.517Z" transform="translate(-357.72 20.403)" fill="#d5d5d5"/>
    <path id="Path_19800" data-name="Path 19800" d="M468.17,135.517a3.917,3.917,0,1,0,3.917-3.917A3.917,3.917,0,0,0,468.17,135.517Z" transform="translate(-390.663 20.403)" fill="#d5d5d5"/>
    <path id="Path_19801" data-name="Path 19801" d="M475.29,135.517a3.881,3.881,0,1,0,1.124-2.767A3.917,3.917,0,0,0,475.29,135.517Z" transform="translate(-423.607 20.403)" fill="#d5d5d5"/>
    <path id="Path_19802" data-name="Path 19802" d="M482.41,135.517a3.881,3.881,0,1,0,1.124-2.767,3.917,3.917,0,0,0-1.124,2.767Z" transform="translate(-456.55 20.403)" fill="#d5d5d5"/>
    <path id="Path_19803" data-name="Path 19803" d="M489.54,135.517a3.917,3.917,0,1,0,3.917-3.917,3.917,3.917,0,0,0-3.917,3.917Z" transform="translate(-489.54 20.403)" fill="#d5d5d5"/>
  </g>
</svg>
