<svg xmlns="http://www.w3.org/2000/svg" xmlns:xlink="http://www.w3.org/1999/xlink" width="670" height="438" viewBox="0 0 670 438">
  <defs>
    <clipPath id="clip-path">
      <rect id="Rectangle_10889" data-name="Rectangle 10889" width="670" height="438" transform="translate(215 122)" fill="#fff" stroke="#707070" stroke-width="1"/>
    </clipPath>
    <clipPath id="clip-path-2">
      <rect id="Rectangle_10625" data-name="Rectangle 10625" width="1167" height="613" transform="translate(0 -0.01)" fill="none"/>
    </clipPath>
    <linearGradient id="linear-gradient" y1="0.5" x2="1" y2="0.5" gradientUnits="objectBoundingBox">
      <stop offset="0" stop-color="#ceefe5"/>
      <stop offset="1" stop-color="#27c888"/>
    </linearGradient>
    <linearGradient id="linear-gradient-2" y1="0.5" x2="1" y2="0.5" gradientUnits="objectBoundingBox">
      <stop offset="0" stop-color="#cbce55"/>
      <stop offset="1" stop-color="#217b4f"/>
    </linearGradient>
    <linearGradient id="linear-gradient-3" x1="0" y1="0.5" x2="1" y2="0.5" xlink:href="#linear-gradient-2"/>
    <linearGradient id="linear-gradient-4" x1="0" y1="0.5" x2="1" y2="0.5" xlink:href="#linear-gradient-2"/>
    <linearGradient id="linear-gradient-5" y1="0.5" x2="1" y2="0.5" gradientUnits="objectBoundingBox">
      <stop offset="0" stop-color="#c8a34e"/>
      <stop offset="1" stop-color="#5b9a3e"/>
    </linearGradient>
  </defs>
  <g id="home-slider1" transform="translate(-215 -122)" clip-path="url(#clip-path)">
    <g id="homepage-slider1" transform="translate(-218 0.01)" clip-path="url(#clip-path-2)">
      <rect id="Rectangle_10614" data-name="Rectangle 10614" width="70.387" height="64.821" rx="16.49" transform="translate(864.879 152.654)" fill="#002822"/>
      <rect id="Rectangle_10615" data-name="Rectangle 10615" width="64.289" height="59.208" rx="15.06" transform="translate(867.926 155.461)" fill="url(#linear-gradient)"/>
      <path id="Path_19895" data-name="Path 19895" d="M1529.35,31.98a1.459,1.459,0,1,1,1.458,1.387,1.5,1.5,0,0,1-1.032-.406A1.35,1.35,0,0,1,1529.35,31.98Z" transform="translate(-630.733 129.396)" fill="#002822"/>
      <path id="Path_19896" data-name="Path 19896" d="M1565.285,39.856a1.5,1.5,0,0,1,1.982-.538,1.347,1.347,0,0,1,.567,1.881,1.5,1.5,0,0,1-1.982.538,1.4,1.4,0,0,1-.7-.829A1.32,1.32,0,0,1,1565.285,39.856Z" transform="translate(-654.905 123.478)" fill="#002822"/>
      <path id="Path_19897" data-name="Path 19897" d="M1595.4,65.683a1.505,1.505,0,0,1,2.014.413,1.342,1.342,0,0,1-.433,1.912,1.5,1.5,0,0,1-2.014-.41A1.345,1.345,0,0,1,1595.4,65.683Z" transform="translate(-674.939 105.251)" fill="#002822"/>
      <path id="Path_19898" data-name="Path 19898" d="M1609.167,104.45a1.385,1.385,0,1,1-1.458,1.383A1.422,1.422,0,0,1,1609.167,104.45Z" transform="translate(-683.715 78.25)" fill="#002822"/>
      <path id="Path_19899" data-name="Path 19899" d="M1599.144,147.945a1.334,1.334,0,0,1,0,1.956,1.513,1.513,0,0,1-2.061,0,1.334,1.334,0,0,1,0-1.956,1.513,1.513,0,0,1,2.063,0Z" transform="translate(-676.24 48.409)" fill="#002822"/>
      <path id="Path_19900" data-name="Path 19900" d="M1570.874,176.292a1.335,1.335,0,0,1,0,1.956,1.513,1.513,0,0,1-2.06,0,1.335,1.335,0,0,1,0-1.956,1.51,1.51,0,0,1,2.063,0Z" transform="translate(-657.126 28.778)" fill="#002822"/>
      <path id="Path_19901" data-name="Path 19901" d="M1529.35,188.7a1.459,1.459,0,1,1,1.458,1.384A1.422,1.422,0,0,1,1529.35,188.7Z" transform="translate(-630.733 20.858)" fill="#002822"/>
      <path id="Path_19902" data-name="Path 19902" d="M1496.177,39.856a1.5,1.5,0,0,0-1.981-.538,1.348,1.348,0,0,0-.567,1.881,1.5,1.5,0,0,0,1.981.538,1.4,1.4,0,0,0,.7-.829A1.317,1.317,0,0,0,1496.177,39.856Z" transform="translate(-606.458 123.478)" fill="#002822"/>
      <path id="Path_19903" data-name="Path 19903" d="M1466.07,65.683a1.505,1.505,0,0,0-2.014.413,1.342,1.342,0,0,0,.433,1.912,1.505,1.505,0,0,0,2.015-.41,1.345,1.345,0,0,0-.434-1.915Z" transform="translate(-586.428 105.251)" fill="#002822"/>
      <path id="Path_19904" data-name="Path 19904" d="M1452.3,104.45a1.385,1.385,0,1,0,1.458,1.383A1.422,1.422,0,0,0,1452.3,104.45Z" transform="translate(-577.651 78.25)" fill="#002822"/>
      <path id="Path_19905" data-name="Path 19905" d="M1462.321,147.945a1.335,1.335,0,0,0,0,1.956,1.513,1.513,0,0,0,2.061,0,1.334,1.334,0,0,0,0-1.956,1.513,1.513,0,0,0-2.063,0Z" transform="translate(-585.125 48.409)" fill="#002822"/>
      <path id="Path_19906" data-name="Path 19906" d="M1490.591,176.292a1.335,1.335,0,0,0,0,1.956,1.513,1.513,0,0,0,2.061,0,1.334,1.334,0,0,0,0-1.956,1.509,1.509,0,0,0-2.063,0Z" transform="translate(-604.24 28.778)" fill="#002822"/>
      <path id="Path_19907" data-name="Path 19907" d="M1532.63,105.87a1.388,1.388,0,0,1,.9-1.284,1.518,1.518,0,0,1,1.593.3,1.335,1.335,0,0,1,.316,1.512,1.464,1.464,0,0,1-1.352.855,1.425,1.425,0,0,1-1.457-1.383Z" transform="translate(-632.951 78.23)" fill="#002822"/>
      <rect id="Rectangle_10616" data-name="Rectangle 10616" width="0.398" height="17.291" transform="translate(900.939 166.796)" fill="#002822"/>
      <path id="Path_20136" data-name="Path 20136" d="M0,0,12.041.3,12.07,1.46.029,1.158Z" transform="matrix(0.787, -0.617, 0.617, 0.787, 900.562, 183.587)" fill="#002822"/>
      <path id="Path_19908" data-name="Path 19908" d="M1763.537,701.6s-11.083-28.946,12.974-36.22c0,0,16.631-2.945,27.426,1.636,0,0-25.531,19.317-21.45,23.6s26.811-23.47,26.811-23.47,31.947,8.178,40.069,16.248c0,0-34.466,11.05-29.4,14.253s41.494-6.717,41.494-6.717,26.849,14.886,18.729,30.95-20.038,17.663-24.206,15.68-25.93-20.291-27.824-17.1,9.023,19.676,19.533,24.036c0,0-28.624,13.946-39.642,3.031s-8.324-21.011-15.261-27.639-14.095-9.174-12.1-4.234,15.724,13.964,17.324,23.722,3.75,16.719-9.369,9.764-31.892-24.7-28.5-36.112Z" transform="translate(-786.505 -309.58)" fill="url(#linear-gradient-2)"/>
      <path id="Path_19909" data-name="Path 19909" d="M1816.622,791.692s-76.784-30.7-102.379-15.68c0,0-8.1,9.46-23.714,15.126l-3.7,4.067s18.863-8.688,24.019-7.778C1710.852,787.415,1713.686,758.51,1816.622,791.692Z" transform="translate(-737.21 -383.98)" fill="#067254"/>
      <path id="Path_19910" data-name="Path 19910" d="M1633.822,833.432s-21.375,5.761-30.862,26.326l2.934,1.344s13.926-19.784,26.962-24.817S1633.822,833.432,1633.822,833.432Z" transform="translate(-680.503 -426.285)" fill="#c8dbf4"/>
      <path id="Path_19911" data-name="Path 19911" d="M1379.465,581.941s28.018-14.892,14.944-35.1c0,0-10.461-12.412-21.667-15.6,0,0,5.975,30.129,0,30.849s-4.11-34.04-4.11-34.04-29.511-13.475-41.089-12.411c0,0,18.305,29.432,12.326,28.721s-26.522-30.5-26.522-30.5-30.259-5.319-35.114,11.7,2.989,25.518,7.472,26.6,33.245.707,32.5,4.255-20.171,9.223-31,6.029c0,0,11.954,28.011,27.642,26.594s20.547-10.638,30.259-11.348,16.809,1.774,11.954,4.255-21.294.815-29.149,7.145-14.186,10.232.389,13.069,40.717,1.064,45.944-9.574Z" transform="translate(-459.911 -204.742)" fill="url(#linear-gradient-3)"/>
      <path id="Path_19912" data-name="Path 19912" d="M1324.13,571s78.448,24.113,87.413,51.063c0,0-.373,12.058,7.472,25.887v5.319s-8.22-18.084-12.7-20.565C1406.313,632.7,1423.87,609.3,1324.13,571Z" transform="translate(-491.978 -244.862)" fill="#067254"/>
      <path id="Path_19913" data-name="Path 19913" d="M1609.271,813.824s12.1,17.441,5.2,38.667l-3.112-.793s3.022-23.381-3.31-35.141S1609.271,813.824,1609.271,813.824Z" transform="translate(-682.235 -410.739)" fill="#c8dbf4"/>
      <path id="Path_19914" data-name="Path 19914" d="M1638.1,387.137s-40.844-21.712-21.784-51.18c0,0,15.248-18.093,31.587-22.751,0,0-8.712,43.94,0,44.976s5.992-49.631,5.992-49.631,43.023-19.646,59.916-18.093c0,0-26.684,42.907-17.972,41.874s38.667-44.459,38.667-44.459,44.1-7.748,51.182,17.079-4.359,37.2-10.895,38.762-48.467,1.033-47.379,6.2,29.408,13.441,45.2,8.79c0,0-17.428,40.841-40.3,38.772s-29.955-15.507-44.115-16.544-24.507,2.586-17.424,6.2,31.04,1.187,42.476,10.416,20.7,14.917-.544,19.062-59.359,1.537-66.987-13.958Z" transform="translate(-686.11 -47.988)" fill="url(#linear-gradient-4)"/>
      <path id="Path_19915" data-name="Path 19915" d="M1798.859,371.18s-114.366,35.156-127.437,74.444c0,0,.544,17.577-10.892,37.739v7.757s11.983-26.366,18.516-29.985C1679.046,461.135,1653.45,427.015,1798.859,371.18Z" transform="translate(-719.428 -106.475)" fill="#067254"/>
      <path id="Path_19916" data-name="Path 19916" d="M1638.235,725.178s-17.635,25.426-7.582,56.373l4.534-1.156s-4.4-34.089,4.819-51.242S1638.235,725.178,1638.235,725.178Z" transform="translate(-697.133 -348.29)" fill="#067254"/>
      <path id="Path_19917" data-name="Path 19917" d="M795.943,559.926c-1.516,3.41-16.048,6.573-37.618,9.371q-5.7.742-12.026,1.448c-73.412,8.209-274.482,12.79-286.876,10.37C442.3,577.77,408.22,414.3,408.22,414.3s100.342-1.651,180.027-2.46c27.26-.274,122.1-.956,139.67-.959C755.152,410.874,798.385,554.4,795.943,559.926Z" transform="translate(127.294 -133.969)" fill="#067254"/>
      <path id="Path_19918" data-name="Path 19918" d="M1435.77,538.915s-30.8-112.017-33.035-121.44c-.988-4.2-4.042-5.712-7.125-6.1,5.415-.5,9.354-.532,9.354-.532a24.873,24.873,0,0,1,23.552,16.928c7.449,22.074,22.286,64.48,36.2,105.939C1464.025,533.7,1435.77,538.915,1435.77,538.915Z" transform="translate(-540.308 -133.942)" fill="#4ac195"/>
      <path id="Path_19919" data-name="Path 19919" d="M1813.766,869c-4.913,28.1-37.038,45.994-69.989,45.994H1678.51l5.059-162.33s62.316-19.277,77.956-2.306c13.7,14.865,50.848,73.716,52.814,108.549A44.026,44.026,0,0,1,1813.766,869Z" transform="translate(-731.585 -364.238)" fill="#4ac195"/>
      <path id="Path_19920" data-name="Path 19920" d="M1883.183,1150.284c-4.913,28.1-37.038,45.994-69.989,45.994H1781.18C1802.526,1183.353,1821.829,1143.548,1883.183,1150.284Z" transform="translate(-801.003 -645.521)" fill="#067254"/>
      <path id="Path_19921" data-name="Path 19921" d="M1561.19,773.915s88.032-40.109,104.718-13.915c8.855,13.912,33.223,69.415,35.02,104.248,1.749,33.843-31.092,56.1-64.894,56.1h-60.007Z" transform="translate(-652.261 -369.606)" fill="#002822"/>
      <path id="Path_19922" data-name="Path 19922" d="M1152.107,935.58q-1.461,1.11-3,2.186c-12.715,8.9-29.3,15.987-48.276,20.365a199.783,199.783,0,0,1-46.453,4.959H1025.45l-135.09.034-77.435.022h-1.143v-.031L809.1,949.772,784.58,815.225s339.324-7.253,366.915,7.686c12.812,6.942,20.08,35.7,24.112,67.383C1177.745,907.188,1168.651,923.024,1152.107,935.58Z" transform="translate(-127.174 -412.782)" fill="#01644c"/>
      <path id="Path_19923" data-name="Path 19923" d="M1203.27,1204.557q-1.461,1.11-3,2.186c-12.715,8.9-29.3,15.987-48.276,20.365a199.8,199.8,0,0,1-46.453,4.959h-28.928l-135.09.034-77.435.021-1.153-.031-2.685-13.343c47.463-8.7,113.138-17.549,181.647-16.863C1107.329,1202.55,1162.112,1202.467,1203.27,1204.557Z" transform="translate(-178.336 -681.76)" fill="#01483f"/>
      <path id="Path_19924" data-name="Path 19924" d="M934.074,337.728a12.972,12.972,0,0,1-2.439-1.2h17.871s-6.859-3.689-11.316-5.562-15.374,0-15.374,0-40.432-5.712-63.1-5.174c-6.079.144-49.323-6.549-61.782-4.178-6.568,1.248-12.517,2.238-16.346,2.832a4.241,4.241,0,0,1-3.153-.765,3.823,3.823,0,0,1-1.559-2.712v-.04a98.043,98.043,0,0,0-1.726-12.1l-15.222-6.988-7.637,3.855c.074.8.126,1.586.152,2.358a39.643,39.643,0,0,1-1.04,10.613,16.2,16.2,0,0,1-12.019,11.7l-.074.018c11.41,9.322,69.422,25.558,70.406,20.8,1.325-6.407,113.1-14.665,113.1-14.665h0s3.116,1.119,3.886,2.177,7.012.895,8.178,1.058S935.447,338.137,934.074,337.728Z" transform="translate(-96.565 -58.453)" fill="#f5c99d"/>
      <path id="Path_19925" data-name="Path 19925" d="M1421.71,1184.65s11.789,20.184,17.01,22.462c4.148,1.808,15.371,3.6,21.625,8.166,7.255,5.3-5.3,5.02-8.068,5.02,0,0-14.053-1.589-20.728-1.454-3.835.077-15.267,1.454-15.267,1.454-9,0-15.87-7.76-14.179-16.159l.049-.234c1.619-7.8,2.915-17.862,2.915-17.862Z" transform="translate(-544.524 -669.849)" fill="#202020"/>
      <path id="Path_19926" data-name="Path 19926" d="M914.05,376.58c-.246,5.248-1.788,11-6.711,14.035-7.773,4.787-5.807,17.288-5.758,22.194L868.29,367.557a171.589,171.589,0,0,1,20.271-3.382c6.72-.7,24.4,1.23,24.4,1.23A42.175,42.175,0,0,1,914.05,376.58Z" transform="translate(-183.772 -101.517)" fill="#1dbf73"/>
      <path id="Path_19927" data-name="Path 19927" d="M1261.755,1201.991s11.747,12.3,16.971,14.56c3.728,1.623,13.775,2.573,19.756,6.693,6.315,4.354,1.477,6.493-2.193,6.493,0,0-16.786,1.27-27.481-1.592-2.915-.778-10.895.772-13.739,1.371a59.2,59.2,0,0,1-7.219.5c-6.52-.79-6.821-6.724-6.206-13.11a32.889,32.889,0,0,1,.534-3.563c1.62-7.8,2.611-15.065,2.611-15.065Z" transform="translate(-436.062 -679.288)" fill="#202020"/>
      <path id="Path_19928" data-name="Path 19928" d="M1133.395,842.473a38.586,38.586,0,0,1-7.977,4c-5.872,1.845-16.841,1-16.841,1s-27.973-51.494-33.864-64.52c-5.593-12.347-10.277-39.42-10.277-39.42-4.269-.218-36.212,4.077-64.279,1.2-14.93-1.537-27.555-5.03-31.837-12.19-12.33-20.617,27.059-43.611,27.059-43.611s77.02,13.18,93.942,24.848C1105.367,724.829,1133.395,842.473,1133.395,842.473Z" transform="translate(-249.79 -326.528)" fill="#505050"/>
      <path id="Path_19929" data-name="Path 19929" d="M979.092,870.146s-5.985,2.979-9.865,3.6c-7.044,1.132-14.633-1.107-14.633-1.107s-4.3-24.666-21.933-64.136c-4.427-9.9-3.744-30.206-4.337-30.458,0,0-96.345.781-107.526-19.759-1.814-3.33-3.838-12.725-3.614-15.778,1.159-16.242,23.38-22.511,23.38-22.511s100.43,16.86,117.669,28.1S979.092,870.146,979.092,870.146Z" transform="translate(-149.207 -348.052)" fill="#777"/>
      <path id="Path_19930" data-name="Path 19930" d="M806.362,472.549c-5.852,9.918-11.944,17.761-34.353,21.444-28.229,4.652-43.7,10.312-51.525,12.553-5.979,1.715-23.173-19.083-31.364-37.64-7.932-17.97-14.684-45.972-14.73-48.133-.709-33.361,26.01-41.373,26.02-41.459,0,0,19.841,12.808,30.645,8.359,10.642-4.387,6.264-11.935,6.124-12.153l28.634,26.686s6.452,23.424,14.221,40.426C791.821,468.4,807.972,469.822,806.362,472.549Z" transform="translate(-52.663 -109.481)" fill="#1dbf73"/>
      <path id="Path_19931" data-name="Path 19931" d="M805.159,308.828a98.069,98.069,0,0,1,1.726,12.1c-12.909-.4-23.131-13.106-23.206-13.909,1.558-.787,3.125-3.594,6.267-5.18Z" transform="translate(-126.565 -58.453)" fill="#d8a982"/>
      <path id="Path_19932" data-name="Path 19932" d="M804.067,250.988s-27.163-.735-26.418-16.786-2.267-26.954,15.109-27.163,20.459,6.041,21.593,11.455S811.153,250.751,804.067,250.988Z" transform="translate(-122.477 7.206)" fill="#f5c99d"/>
      <path id="Path_19933" data-name="Path 19933" d="M762.409,215.847s-1.082-5.331,1.963-8.867c0,0-2-5.227.117-6.407s3.239,3.287,4.168,2.441,5.017-4.818,6.26-10.044,20.08-1.559,22.315-.938a2.857,2.857,0,0,0,1.406-.058,5.752,5.752,0,0,0,2.471-10.029c-.22-.184-.427-.372-.619-.55-1.992-1.912-15.87-14.757-31.739-8.516s-17.019,13.986-15.151,20.254S755.359,214.583,762.409,215.847Z" transform="translate(-105.774 32.035)" fill="#070707"/>
      <path id="Path_19934" data-name="Path 19934" d="M841.62,317.8a9,9,0,0,0,5.438,2.939c3.673.615,4.479-2.106,4.479-2.106S848.166,317.575,841.62,317.8Z" transform="translate(-165.74 -69.484)" fill="#fff"/>
      <path id="Path_19935" data-name="Path 19935" d="M690.659,438.852s-4.67,8.805-.324,24.9c8.631,31.787,43.195,57.584,48.192,55.2s18.092-2.029,11.012-16.479-35.775-67.711-35.775-67.711Z" transform="translate(-62.201 -150.508)" fill="#f5c99d"/>
      <path id="Path_19936" data-name="Path 19936" d="M717.483,437.38c-9.052,4.8-15.7,8.624-29.557,8.608a97.687,97.687,0,0,1-19.027-1.955s-10.717-41.373,9.3-49.886c6.9-2.933,16.566-6.287,16.566-6.287S733.693,428.793,717.483,437.38Z" transform="translate(-47.022 -118.027)" fill="#1dbf73"/>
      <path id="Path_19937" data-name="Path 19937" d="M904.515,656.057s-48.305-4.891-54.789-4.664-13.071,16.765-12.155,17.635,20.352,1.762,32.387.968c13.191-.867,30-4.919,30-4.919Z" transform="translate(-162.944 -300.533)" fill="#f5c99d"/>
      <path id="Path_19938" data-name="Path 19938" d="M816.244,867.717c-5.292,27.252-34.33,44.524-64.1,44.524H692.12l4.7-163.778s57.264-17.832,71.647-.87c12.6,14.865,46.774,73.719,48.581,108.549a47.493,47.493,0,0,1-.8,11.575Z" transform="translate(-64.659 -362.093)" fill="#4ac195"/>
      <path id="Path_19939" data-name="Path 19939" d="M841.274,1153.036c-5.292,27.252-34.33,44.524-64.1,44.524H729.14C751.623,1183.959,781.886,1146.38,841.274,1153.036Z" transform="translate(-89.689 -647.412)" fill="#067254"/>
      <path id="Path_19940" data-name="Path 19940" d="M304.4,685.905c-15.057-.086-31.234-3.157-43.47-11.889-11.9-8.485-18.959-21.4-23.251-34.655-9.172-28.34-8.9-59.41-7.909-88.765,1.062-31.771,4.087-63.552,7.958-95.12,1.3-10.435,1.619-23.919,7.319-33.29,4.45-7.339,21.133-9.774,29.171-9.58,6.694.166,13.156,5.645,18.807,8.793l11.371,6.333c3.686,2.051,3.822,5.654,5.111,9.482,10.817,32.112,21.434,64.29,32.361,96.371a327.734,327.734,0,0,1,39.38-13.22c12.654-3.28,27.115-6.478,40.231-3.892,13.648,2.693,17.813,15.179,22.788,26.084a374.043,374.043,0,0,1,17.013,44.336c4.573,14.674,9.169,30.572,8.79,46.015-.343,13.918-7.06,26.8-17.933,36.035-13.868,11.787-32.089,16.977-50.356,16.977Z" transform="translate(248.269 -135.158)" fill="#002822"/>
      <path id="Path_19941" data-name="Path 19941" d="M406.97,538.915s-30.8-112.017-33.035-121.44c-.988-4.2-4.042-5.712-7.125-6.1,5.415-.5,9.353-.532,9.353-.532a24.873,24.873,0,0,1,23.552,16.928c7.449,22.074,21.2,62.78,35.114,104.239C434.14,532,406.97,538.915,406.97,538.915Z" transform="translate(155.292 -133.942)" fill="#4ac195"/>
      <path id="Path_19942" data-name="Path 19942" d="M925.643,727.091H863a4.872,4.872,0,0,1,4.991-4.741H925.64Z" transform="translate(-180.196 -349.68)" fill="#777"/>
      <path id="Path_19943" data-name="Path 19943" d="M1404.257,520.43h96.838l-23.228,64.754H1380.4Z" transform="translate(-658.99 -207.773)" fill="#777"/>
      <path id="Path_19944" data-name="Path 19944" d="M1505.5,520.43l-23.225,64.754H1384.81l23.853-64.754Z" transform="translate(-661.972 -207.773)" fill="#505050"/>
      <path id="Path_19945" data-name="Path 19945" d="M1178.1,620.419a6.244,6.244,0,0,1-5.807,4.48,3.5,3.5,0,0,1-3.631-4.48,6.232,6.232,0,0,1,5.81-4.479A3.493,3.493,0,0,1,1178.1,620.419Z" transform="translate(-386.775 -275.985)" fill="#fff"/>
      <path id="Path_19946" data-name="Path 19946" d="M254.505,802.46v3.852c0,1.347-.46,2.459-1.02,2.459H105.43c-.56,0-1.02-1.1-1.02-2.459V802.46c0-1.346.46-2.46,1.02-2.46H253.485C254.045,800.021,254.505,801.125,254.505,802.46Z" transform="translate(332.708 -403.457)" fill="#45391d"/>
      <path id="Path_19947" data-name="Path 19947" d="M318.535,802.46v3.852c0,1.347-.421,2.459-.936,2.459H200.046c-.515,0-.936-1.1-.936-2.459V802.46c0-1.346.421-2.46.936-2.46H317.612C318.114,800.021,318.535,801.125,318.535,802.46Z" transform="translate(268.679 -403.457)" fill="#847d3d"/>
      <rect id="Rectangle_10618" data-name="Rectangle 10618" width="105.109" height="145.43" transform="translate(444.632 405.318)" fill="#847d3d"/>
      <rect id="Rectangle_10619" data-name="Rectangle 10619" width="105.109" height="145.43" transform="translate(474.088 405.318)" fill="url(#linear-gradient-5)"/>
      <path id="Path_19948" data-name="Path 19948" d="M329.813,975.192H236V841.9h93.813Zm-92.8-.963H328.8V842.853H237.014Z" transform="translate(243.736 -432.475)" fill="#45391d"/>
      <rect id="Rectangle_10620" data-name="Rectangle 10620" width="92.799" height="0.962" transform="translate(480.245 453.522)" fill="#45391d"/>
      <rect id="Rectangle_10621" data-name="Rectangle 10621" width="92.799" height="0.962" transform="translate(480.245 498.473)" fill="#45391d"/>
      <path id="Path_19949" data-name="Path 19949" d="M371.049,863.364H353.822a1.489,1.489,0,0,1-1.522-1.442h0a1.488,1.488,0,0,1,1.522-1.442h17.217a1.488,1.488,0,0,1,1.522,1.442h0A1.488,1.488,0,0,1,371.049,863.364Z" transform="translate(165.103 -445.343)" fill="#45391d"/>
      <path id="Path_19950" data-name="Path 19950" d="M371.049,1006.347H353.822a1.489,1.489,0,0,1-1.522-1.442h0a1.488,1.488,0,0,1,1.522-1.445h17.217a1.488,1.488,0,0,1,1.522,1.445h0A1.488,1.488,0,0,1,371.049,1006.347Z" transform="translate(165.103 -544.364)" fill="#45391d"/>
      <path id="Path_19951" data-name="Path 19951" d="M371.049,1155.4H353.822a1.488,1.488,0,0,1-1.522-1.445h0a1.488,1.488,0,0,1,1.522-1.442h17.217a1.488,1.488,0,0,1,1.522,1.442h0A1.488,1.488,0,0,1,371.049,1155.4Z" transform="translate(165.103 -647.59)" fill="#45391d"/>
      <path id="Path_19952" data-name="Path 19952" d="M1213.222,154.739l6.869,22.766a2.826,2.826,0,0,1,.114,1.005,2.969,2.969,0,0,1-2.231,2.616l-41.65,11.314a3.179,3.179,0,0,1-3.362-1.116,2.91,2.91,0,0,1-.453-.895l-6.86-22.751a2.909,2.909,0,0,1,2.115-3.622l41.64-11.317A3.114,3.114,0,0,1,1213.222,154.739Z" transform="translate(-384.743 44.887)" fill="#949494"/>
      <path id="Path_19953" data-name="Path 19953" d="M1235.7,224.354a2.969,2.969,0,0,1-2.232,2.616l-41.65,11.314a3.179,3.179,0,0,1-3.362-1.116l21.214-18.348Z" transform="translate(-400.248 -0.957)" fill="#777"/>
      <path id="Path_19954" data-name="Path 19954" d="M1213.229,154.739l-18.646,21.982-28.572-7.883-.353-1.165a2.909,2.909,0,0,1,2.115-3.622l41.637-11.311A3.114,3.114,0,0,1,1213.229,154.739Z" transform="translate(-384.75 44.887)" fill="#d5d5d5"/>
      <path id="Path_19955" data-name="Path 19955" d="M549,759.91h30.509a4.484,4.484,0,0,1,4.6,4.363v1.46a4.585,4.585,0,0,1-4.7,4.461H549Z" transform="translate(-96.858 -373.626)" fill="#eaf7f9"/>
      <path id="Path_19956" data-name="Path 19956" d="M208.682,770.84v1.537a4.629,4.629,0,0,1-4.748,4.5H146.47a.706.706,0,0,1-.488-.19.635.635,0,0,1-.2-.462V776a.673.673,0,0,1,.69-.655H181.5a4.068,4.068,0,0,0,1.007-2.666V770.72a3.966,3.966,0,0,0-.143-1.045,4.031,4.031,0,0,0-.813-1.537H146.47a.673.673,0,0,1-.69-.655v-.231a.636.636,0,0,1,.2-.462.707.707,0,0,1,.488-.19h57.759a4.577,4.577,0,0,1,3.154,1.243A4.121,4.121,0,0,1,208.682,770.84Z" transform="translate(304.737 -380.326)" fill="#067254"/>
      <path id="Path_19957" data-name="Path 19957" d="M208.517,769.674H182.368a4.031,4.031,0,0,0-.813-1.537H146.47a.673.673,0,0,1-.69-.655v-.231a.636.636,0,0,1,.2-.462.707.707,0,0,1,.488-.19h57.759A4.433,4.433,0,0,1,208.517,769.674Z" transform="translate(304.737 -380.326)" fill="#01644c"/>
      <path id="Path_19958" data-name="Path 19958" d="M549.01,776.63l4.256.175-4.256.1Z" transform="translate(-96.864 -385.206)" fill="#c9fce9"/>
      <path id="Path_19959" data-name="Path 19959" d="M549.01,781.88l10.124.172-10.124.1Z" transform="translate(-96.864 -388.842)" fill="#c9fce9"/>
      <path id="Path_19960" data-name="Path 19960" d="M0,0H33.058A5.119,5.119,0,0,1,38.3,4.981v1.9a5.005,5.005,0,0,1-5.13,4.87H0Z" transform="translate(519.793 386.308) rotate(180)" fill="#eaf7f9"/>
      <path id="Path_19961" data-name="Path 19961" d="M184.229,733.05v2.53a3.03,3.03,0,0,0,3.106,2.905h36.228a.749.749,0,0,1,.768.729v.307a.752.752,0,0,1-.768.732H160.982a5.173,5.173,0,0,1-5.3-5.033v-2a4.86,4.86,0,0,1,4.978-4.725h62.906a.752.752,0,0,1,.768.732v.307a.749.749,0,0,1-.768.729H187.225a3.067,3.067,0,0,0-2.2.922,2.73,2.73,0,0,0-.794,1.86Z" transform="translate(298.043 -353.939)" fill="#505050"/>
      <path id="Path_19962" data-name="Path 19962" d="M748.184,740.87l-4.644.2,4.644.12Z" transform="translate(-228.391 -360.44)" fill="#c9fce9"/>
      <path id="Path_19963" data-name="Path 19963" d="M734.817,732.07l-11.047.2,11.047.117Z" transform="translate(-215.024 -354.346)" fill="#c9fce9"/>
      <path id="Path_19964" data-name="Path 19964" d="M325.92,739.3a2.274,2.274,0,0,1,.972.987,1.091,1.091,0,0,1,.074.341c.042.815,0,2.656,0,2.656l2.154-.922,2.147.922v-2.5a1.639,1.639,0,0,0-.528-1.23.913.913,0,0,0-.593-.255Z" transform="translate(182.939 -361.419)" fill="#bda24d"/>
      <path id="Path_19965" data-name="Path 19965" d="M325.92,739.3a2.274,2.274,0,0,1,.972.987l4.314.037a1.344,1.344,0,0,0-1.049-1.024Z" transform="translate(182.939 -361.419)" fill="#679b40"/>
      <path id="Path_19966" data-name="Path 19966" d="M448.882,718.05H414.875a15.615,15.615,0,0,0-.143,2.032V723.2c-2.267-.452-5.4-.815-7.005.123-2.695,1.586-1.872,6.216.667,9.079s10.633,4.759,10.633,4.759a17.426,17.426,0,0,0,10.1,5.319,17.645,17.645,0,0,0,2.753.215c9.458-.023,17.119-7.295,17.146-16.273v-6.34A16.2,16.2,0,0,0,448.882,718.05Zm-39.363,11.133c-1.085-2.669-.353-3.653.862-3.861a5.114,5.114,0,0,1,4.388,2.186,15.477,15.477,0,0,0,1.373,5.353C414.234,732.423,410.38,731.288,409.518,729.182Z" transform="translate(128.755 -346.702)" fill="#fd9c28"/>
      <path id="Path_19967" data-name="Path 19967" d="M858.53,787.757h15.575l-.9-1.989-13.991-.5Z" transform="translate(-306.139 -391.19)" fill="#fd9c28"/>
      <path id="Path_19968" data-name="Path 19968" d="M429.319,740.961c-10.286-11.3-8.071-16.777-6.222-22.911h-8.243a15.6,15.6,0,0,0-.142,2.032V723.2c-2.267-.452-5.4-.815-7.005.123-2.695,1.586-1.872,6.217.667,9.079s10.633,4.759,10.633,4.759a17.258,17.258,0,0,0,5.243,3.815l-.625,2.291H428.9l.146-.8h.061ZM409.5,729.182c-1.085-2.669-.353-3.652.861-3.861a5.113,5.113,0,0,1,4.388,2.186,15.481,15.481,0,0,0,1.373,5.353C414.22,732.423,410.366,731.289,409.5,729.182Z" transform="translate(128.768 -346.702)" fill="#e65924"/>
      <path id="Path_19969" data-name="Path 19969" d="M262.605,44.34h76.223a10.806,10.806,0,0,1,11.044,10.487V86.564a9.928,9.928,0,0,1-10.144,9.629h-1.943l3.673,14.723L318.389,96.193H261.958A10.8,10.8,0,0,1,250.92,85.716V55.442C250.94,49.322,256.158,44.364,262.605,44.34Z" transform="translate(233.649 119.88)" fill="#bebebe"/>
      <path id="Path_19970" data-name="Path 19970" d="M286.295,128.07H355.7a1.735,1.735,0,0,0,1.775-1.685h0A1.738,1.738,0,0,0,355.7,124.7H286.295a1.738,1.738,0,0,0-1.775,1.685h0A1.738,1.738,0,0,0,286.295,128.07Z" transform="translate(210.931 64.226)" fill="#fff"/>
      <rect id="Rectangle_10622" data-name="Rectangle 10622" width="33.417" height="3.37" rx="1.685" transform="translate(528.874 199.837) rotate(180)" fill="#fff"/>
      <rect id="Rectangle_10623" data-name="Rectangle 10623" width="29.272" height="3.37" rx="1.685" transform="translate(561.459 199.837) rotate(180)" fill="#fff"/>
      <path id="Path_19971" data-name="Path 19971" d="M351.293,84.057h24.938a1.7,1.7,0,0,0,1.733-1.645h0a1.694,1.694,0,0,0-1.733-1.642H351.293a1.694,1.694,0,0,0-1.733,1.642h0A1.7,1.7,0,0,0,351.293,84.057Z" transform="translate(166.955 94.65)" fill="#fff"/>
      <rect id="Rectangle_10624" data-name="Rectangle 10624" width="17.735" height="3.287" rx="1.643" transform="translate(513.192 178.707) rotate(180)" fill="#fff"/>
    </g>
  </g>
</svg>
