<svg xmlns="http://www.w3.org/2000/svg" width="55.297" height="67.742" viewBox="0 0 55.297 67.742">
  <g id="service-icon2" transform="translate(-664 -1299.487)">
    <g id="Group_4417" data-name="Group 4417" transform="translate(1 -46)">
      <g id="Group_4416" data-name="Group 4416" transform="translate(12)">
        <g id="Group_4413" data-name="Group 4413" transform="translate(8)">
          <g id="choices" transform="translate(595.969 1345.487)">
            <g id="Group_4881" data-name="Group 4881" transform="translate(53.819 10.183)">
              <g id="Group_4880" data-name="Group 4880">
                <path id="Path_9552" data-name="Path 9552" d="M106.187,80.354a1.061,1.061,0,0,0-1.061,1.061,2.334,2.334,0,1,1-2.334-2.334,1.061,1.061,0,1,0,0-2.121,4.455,4.455,0,1,0,4.455,4.455A1.061,1.061,0,0,0,106.187,80.354Z" transform="translate(-98.338 -76.96)" fill="#505050"/>
              </g>
            </g>
            <g id="Group_4883" data-name="Group 4883" transform="translate(53.819 22.628)">
              <g id="Group_4882" data-name="Group 4882">
                <path id="Path_9553" data-name="Path 9553" d="M106.187,174.416a1.061,1.061,0,0,0-1.061,1.061,2.334,2.334,0,1,1-2.334-2.334,1.061,1.061,0,1,0,0-2.121,4.455,4.455,0,1,0,4.455,4.455A1.061,1.061,0,0,0,106.187,174.416Z" transform="translate(-98.338 -171.022)" fill="#505050"/>
              </g>
            </g>
            <g id="Group_4885" data-name="Group 4885" transform="translate(65.133 28.285)">
              <g id="Group_4884" data-name="Group 4884">
                <path id="Path_9554" data-name="Path 9554" d="M192.829,213.779h-7.92a1.061,1.061,0,0,0,0,2.121h7.92a1.061,1.061,0,1,0,0-2.121Z" transform="translate(-183.849 -213.779)" fill="#505050"/>
              </g>
            </g>
            <g id="Group_4887" data-name="Group 4887" transform="translate(65.133 23.759)">
              <g id="Group_4886" data-name="Group 4886">
                <path id="Path_9555" data-name="Path 9555" d="M192.829,179.574h-7.92a1.061,1.061,0,0,0,0,2.121h7.92a1.061,1.061,0,1,0,0-2.121Z" transform="translate(-183.849 -179.574)" fill="#505050"/>
              </g>
            </g>
            <g id="Group_4889" data-name="Group 4889" transform="translate(65.133 40.73)">
              <g id="Group_4888" data-name="Group 4888">
                <path id="Path_9556" data-name="Path 9556" d="M190.567,307.841H184.91a1.061,1.061,0,0,0,0,2.121h5.657a1.061,1.061,0,1,0,0-2.121Z" transform="translate(-183.849 -307.841)" fill="#505050"/>
              </g>
            </g>
            <g id="Group_4891" data-name="Group 4891" transform="translate(65.133 36.205)">
              <g id="Group_4890" data-name="Group 4890">
                <path id="Path_9557" data-name="Path 9557" d="M192.829,273.637h-7.92a1.061,1.061,0,0,0,0,2.121h7.92a1.061,1.061,0,0,0,0-2.121Z" transform="translate(-183.849 -273.637)" fill="#505050"/>
              </g>
            </g>
            <g id="Group_4893" data-name="Group 4893" transform="translate(65.133 15.84)">
              <g id="Group_4892" data-name="Group 4892">
                <path id="Path_9558" data-name="Path 9558" d="M203.012,119.716h-18.1a1.061,1.061,0,0,0,0,2.121h18.1a1.061,1.061,0,0,0,0-2.121Z" transform="translate(-183.849 -119.716)" fill="#505050"/>
              </g>
            </g>
            <g id="Group_4895" data-name="Group 4895" transform="translate(65.133 11.314)">
              <g id="Group_4894" data-name="Group 4894">
                <path id="Path_9559" data-name="Path 9559" d="M198.486,85.511H184.91a1.061,1.061,0,0,0,0,2.121h13.577a1.061,1.061,0,1,0,0-2.121Z" transform="translate(-183.849 -85.511)" fill="#505050"/>
              </g>
            </g>
            <g id="Group_4897" data-name="Group 4897" transform="translate(53.819 35.073)">
              <g id="Group_4896" data-name="Group 4896">
                <path id="Path_9560" data-name="Path 9560" d="M106.187,268.479a1.061,1.061,0,0,0-1.061,1.061,2.334,2.334,0,1,1-2.334-2.333,1.061,1.061,0,0,0,0-2.121,4.455,4.455,0,1,0,4.455,4.455A1.061,1.061,0,0,0,106.187,268.479Z" transform="translate(-98.338 -265.085)" fill="#505050"/>
              </g>
            </g>
            <g id="Group_4899" data-name="Group 4899" transform="translate(47.031)">
              <g id="Group_4898" data-name="Group 4898" transform="translate(0)">
                <path id="Path_9561" data-name="Path 9561" d="M88.822,0H50.354a3.327,3.327,0,0,0-3.323,3.323V50.842a3.327,3.327,0,0,0,3.323,3.323H69.588a1.061,1.061,0,0,0,0-2.121H50.354a1.2,1.2,0,0,1-1.2-1.2V3.323a1.2,1.2,0,0,1,1.2-1.2H88.822a1.2,1.2,0,0,1,1.2,1.2V38.4a1.061,1.061,0,1,0,2.121,0V3.323A3.327,3.327,0,0,0,88.822,0Z" transform="translate(-47.031)" fill="#505050"/>
              </g>
            </g>
            <g id="Group_4901" data-name="Group 4901" transform="translate(72.49 23.76)">
              <g id="Group_4900" data-name="Group 4900" transform="translate(0)">
                <path id="Path_9562" data-name="Path 9562" d="M265.8,198.831a3.913,3.913,0,0,0-2.751.773,3.863,3.863,0,0,0-2.906-1.9,3.914,3.914,0,0,0-2.751.773,3.863,3.863,0,0,0-2.906-1.9,3.919,3.919,0,0,0-2.165.406V183.467a3.89,3.89,0,0,0-4.287-3.869,4.013,4.013,0,0,0-3.492,4.031V197.17l-3.118,3.118a6.675,6.675,0,0,0-1.789,6.289L242,216.637a8.946,8.946,0,0,0,8.742,6.924h9.567a8.991,8.991,0,0,0,8.98-8.98V202.862A4.013,4.013,0,0,0,265.8,198.831Zm1.37,15.749a6.867,6.867,0,0,1-6.859,6.859h-9.567a6.833,6.833,0,0,1-6.677-5.288l-2.367-10.06a4.568,4.568,0,0,1,1.224-4.3l1.618-1.618v3.662a1.061,1.061,0,1,0,2.121,0v-20.2a1.875,1.875,0,0,1,1.582-1.92,1.769,1.769,0,0,1,1.954,1.759v18.668a1.061,1.061,0,0,0,2.121,0v-1.7a1.768,1.768,0,0,1,1.954-1.759,1.876,1.876,0,0,1,1.582,1.92v2.667a1.061,1.061,0,0,0,2.121,0v-1.7a1.768,1.768,0,0,1,1.954-1.759,1.876,1.876,0,0,1,1.582,1.92V204.4a1.061,1.061,0,1,0,2.121,0v-1.7a1.768,1.768,0,0,1,1.954-1.758,1.875,1.875,0,0,1,1.582,1.92V214.58Z" transform="translate(-239.452 -179.578)" fill="#505050"/>
              </g>
            </g>
          </g>
        </g>
      </g>
    </g>
  </g>
</svg>
