<svg xmlns="http://www.w3.org/2000/svg" width="498.04" height="449.024" viewBox="0 0 498.04 449.024">
  <g id="register" transform="translate(-0.038)">
    <path id="Path_21662" data-name="Path 21662" d="M185.269,76.359,181.536,70l-20.4,11.983,3.716,6.358-11.676,20.573-7.363.068.17,23.659,7.363-.051,11.983,20.4L161.7,159.4,182.269,171.1l3.648-6.409,23.658-.17,3.733,6.341,20.4-11.983L230,152.534l11.676-20.59,7.363-.051-.17-23.676-7.363.068-11.983-20.42,3.631-6.392L212.575,69.78l-3.648,6.409Z" transform="translate(104.361 50.646)" fill="#fff" stroke="#949494" stroke-linecap="round" stroke-linejoin="round" stroke-width="0.62"/>
    <path id="Path_21663" data-name="Path 21663" d="M188.57,100.61a18.937,18.937,0,1,1-18.75,19.073,18.937,18.937,0,0,1,18.75-19.073Z" transform="translate(111.373 49.832)" fill="#fff" stroke="#949494" stroke-linecap="round" stroke-linejoin="round" stroke-width="0.62"/>
    <path id="Path_21664" data-name="Path 21664" d="M45.043,42.37S-1.2,82.835,50.054,134.294" transform="translate(9.98 8.802)" fill="none" stroke="#949494" stroke-linecap="round" stroke-linejoin="round" stroke-width="0.62" stroke-dasharray="6.22 3.11"/>
    <path id="Path_21665" data-name="Path 21665" d="M19.231,174.4C12.567,185.713-1.751,196.69,8.476,212.508c7.108,10.909,21.392,14.8,15.835,30.289-2.216,6.136-6.426,10.789-5.114,17.693,1.108,6.017,5.812,10.772,9.971,14.914,3.562,3.562,9.272,6.92,11.932,11.267,4.312,7.125-.1,12.46-2.148,19.534-1.96,6.716-2.267,14.164,1.466,20.454,4.943,8.3,14.591,9.153,20.948,15.238,0,0,29.232,19.09,41.2-16.159,2.829-8.335,7.04-15.971,4.994-25.431-1.534-7.142-6.818-12.392-12.818-15.988-6.324-3.8-13.193-4.7-14.863-12.852-1.006-4.994.886-11.352,1.091-16.38.222-5.863.443-12.545-2.829-17.71-3.784-5.932-10.022-6.477-15.818-9.477-14.608-7.585-6.818-20.13-9-32.965-3.2-18.6-21.17-16.823-33.8-20.625Z" transform="translate(-4.81 101.755)" fill="#f1f1f1" stroke="#d4e6fc" stroke-miterlimit="10" stroke-width="0.16"/>
    <line id="Line_317" data-name="Line 317" x2="55.959" y2="142.65" transform="translate(26.063 305.45)" fill="#d4e6fc" stroke="#949494" stroke-linecap="round" stroke-linejoin="round" stroke-width="0.62"/>
    <line id="Line_318" data-name="Line 318" x2="22.107" y2="13.056" transform="translate(28.432 354.813)" fill="#d4e6fc" stroke="#949494" stroke-linecap="round" stroke-linejoin="round" stroke-width="0.62"/>
    <line id="Line_319" data-name="Line 319" y1="19.738" x2="11.966" transform="translate(71.591 401.789)" fill="#d4e6fc" stroke="#0c5ae5" stroke-linecap="round" stroke-linejoin="round" stroke-width="0.62"/>
    <line id="Line_320" data-name="Line 320" y1="17.931" x2="5.863" transform="translate(43.159 331.103)" fill="#d4e6fc" stroke="#949494" stroke-linecap="round" stroke-linejoin="round" stroke-width="0.62"/>
    <path id="Path_21666" data-name="Path 21666" d="M37.06,188.136H149.847V121.2L37.06,138.058Z" transform="translate(26.042 85.167)" fill="#505050"/>
    <path id="Path_21667" data-name="Path 21667" d="M36.1,270.929,53.708,252.81h14.88v18.119Z" transform="translate(25.366 177.887)" fill="#202020"/>
    <path id="Path_21668" data-name="Path 21668" d="M103.786,270.929l-11.4-18.119H77.52v18.119Z" transform="translate(54.546 177.887)" fill="#202020"/>
    <path id="Path_21669" data-name="Path 21669" d="M141.677,160.27V322.811H96.047V193.15H90.1L81.747,322.811H36.1L44.469,193.15,46.6,160.27Z" transform="translate(25.366 112.692)" fill="#fff" stroke="#505050" stroke-linecap="round" stroke-linejoin="round" stroke-width="0.62"/>
    <path id="Path_21670" data-name="Path 21670" d="M178.8,148.2c0-37.584-28.772-54.34-66.339-55.243h-2.335c-56.521,0-74.35,41.079-77.026,48.169-5.966,15.767-22.738,65.265,31.312,88.157C80.686,236.1,92.294,219.468,100.97,215a205.279,205.279,0,0,1,20.556-9.75Z" transform="translate(9.978 44.443)" fill="#505050"/>
    <path id="Path_21671" data-name="Path 21671" d="M101.428,161.586s6.034,27.494,39.749,21.545,23.863-57.749,23.863-57.749H138.961l-.955,23.863s-13.824-35.795-31.158-48.135C96.28,93.593,101.428,161.586,101.428,161.586Z" transform="translate(62.308 49.776)" fill="#505050"/>
    <line id="Line_321" data-name="Line 321" y2="28.516" transform="translate(175.497 200.589)" fill="none" stroke="#fff" stroke-linecap="round" stroke-linejoin="round" stroke-width="0.62"/>
    <path id="Path_21672" data-name="Path 21672" d="M65.317,157.11l9.477,9.545,7.636,9.034-3.2,3.221,2.829,3.716L66.2,194.933,45.63,170.2Z" transform="translate(32.08 110.466)" fill="#fff" stroke="#505050" stroke-linecap="round" stroke-linejoin="round" stroke-width="0.62"/>
    <line id="Line_322" data-name="Line 322" x1="6.801" y1="7.755" transform="translate(104.027 287.706)" fill="none" stroke="#505050" stroke-linecap="round" stroke-linejoin="round" stroke-width="0.62"/>
    <line id="Line_323" data-name="Line 323" x1="6.818" y1="7.773" transform="translate(99.561 290.757)" fill="none" stroke="#505050" stroke-linecap="round" stroke-linejoin="round" stroke-width="0.62"/>
    <line id="Line_324" data-name="Line 324" x1="6.801" y1="7.773" transform="translate(95.368 294.115)" fill="none" stroke="#505050" stroke-linecap="round" stroke-linejoin="round" stroke-width="0.62"/>
    <line id="Line_325" data-name="Line 325" x1="5.011" y1="5.795" transform="translate(106.379 283.735)" fill="none" stroke="#505050" stroke-linecap="round" stroke-linejoin="round" stroke-width="0.62"/>
    <path id="Path_21673" data-name="Path 21673" d="M61.06,130.87C46.76,161.4,90.6,195.01,90.6,195.01l-26.283,19.6S29.067,184.783,27.26,164.6" transform="translate(10.939 71.151)" fill="#505050"/>
    <path id="Path_21674" data-name="Path 21674" d="M80.772,99.094s-16.687,4.329-17.693-15.988,31.6-27.613,39.2-19.142S80.772,99.094,80.772,99.094Z" transform="translate(36.158 21.571)" fill="#2c3a64"/>
    <path id="Path_21675" data-name="Path 21675" d="M78.625,117.519h0a10.227,10.227,0,0,0,10.227-10.227V73.73H68.33v33.476a10.227,10.227,0,0,0,10.3,10.312Z" transform="translate(39.873 30.896)" fill="#fff" stroke="#505050" stroke-linecap="round" stroke-linejoin="round" stroke-width="0.62"/>
    <path id="Path_21676" data-name="Path 21676" d="M64.088,79.211a5.71,5.71,0,0,0,6.682,6.1,15.017,15.017,0,0,0,1.875,5.846,15.341,15.341,0,1,0,.631-16.022,5.812,5.812,0,0,0-3.017-1.176A5.744,5.744,0,0,0,64.088,79.211Z" transform="translate(36.871 27.085)" fill="#fff" stroke="#505050" stroke-linecap="round" stroke-linejoin="round" stroke-width="0.62"/>
    <path id="Path_21677" data-name="Path 21677" d="M70.222,77.541a2.591,2.591,0,0,0-2.812-2.727" transform="translate(39.225 31.652)" fill="none" stroke="#2c3a64" stroke-linecap="round" stroke-linejoin="round" stroke-width="0.62"/>
    <rect id="Rectangle_10831" data-name="Rectangle 10831" width="286.408" height="274.936" transform="translate(147.884 173.88)" fill="#e7e7e7"/>
    <path id="Path_21678" data-name="Path 21678" d="M120.52,96.29l.17,16.005,20.045-.1.409-15.75Z" transform="translate(84.84 67.618)" fill="#fff" stroke="#505050" stroke-linecap="round" stroke-linejoin="round" stroke-width="0.62"/>
    <line id="Line_326" data-name="Line 326" y1="10.329" x2="0.273" transform="translate(209.57 169.311)" fill="none" stroke="#505050" stroke-linecap="round" stroke-linejoin="round" stroke-width="0.62"/>
    <line id="Line_327" data-name="Line 327" y1="10.312" x2="0.273" transform="translate(214.956 168.817)" fill="none" stroke="#505050" stroke-linecap="round" stroke-linejoin="round" stroke-width="0.62"/>
    <line id="Line_328" data-name="Line 328" y1="10.329" x2="0.273" transform="translate(220.325 168.698)" fill="none" stroke="#505050" stroke-linecap="round" stroke-linejoin="round" stroke-width="0.62"/>
    <path id="Path_21679" data-name="Path 21679" d="M48.275,130.87c-14.3,30.528,29.539,64.14,29.539,64.14" transform="translate(23.724 71.151)" fill="none" stroke="#fff" stroke-linecap="round" stroke-linejoin="round" stroke-width="0.62"/>
    <rect id="Rectangle_10832" data-name="Rectangle 10832" width="209.177" height="32.164" transform="translate(186.747 226.106)" fill="#fff"/>
    <rect id="Rectangle_10833" data-name="Rectangle 10833" width="209.177" height="32.164" transform="translate(186.747 271.769)" fill="#fff"/>
    <rect id="Rectangle_10834" data-name="Rectangle 10834" width="209.177" height="32.164" transform="translate(186.747 318.848)" fill="#fff"/>
    <rect id="Rectangle_10835" data-name="Rectangle 10835" width="125.929" height="32.164" transform="translate(228.371 373.852)" fill="#009f8b"/>
    <circle id="Ellipse_1722" data-name="Ellipse 1722" cx="40.226" cy="40.226" r="40.226" transform="translate(350.703 73.382)" fill="#fff" stroke="#505050" stroke-linecap="round" stroke-linejoin="round" stroke-width="0.62" stroke-dasharray="6.22 3.11"/>
    <line id="Line_329" data-name="Line 329" x2="473.886" transform="translate(23.881 448.714)" fill="#d4e6fc" stroke="#949494" stroke-linecap="round" stroke-linejoin="round" stroke-width="0.62"/>
    <path id="Path_21680" data-name="Path 21680" d="M300.523,295.674H230.365L220.82,217.54h89.231Z" transform="translate(155.502 153.039)" fill="#505050"/>
    <rect id="Rectangle_10836" data-name="Rectangle 10836" width="101.111" height="17.812" transform="translate(370.39 370.579)" fill="#fff" stroke="#505050" stroke-linecap="round" stroke-linejoin="round" stroke-width="0.62"/>
    <line id="Line_330" data-name="Line 330" y1="79.617" transform="translate(420.945 290.962)" fill="#d4e6fc" stroke="#949494" stroke-linecap="round" stroke-linejoin="round" stroke-width="0.62"/>
    <circle id="Ellipse_1723" data-name="Ellipse 1723" cx="44.419" cy="44.419" r="44.419" transform="translate(376.526 239.69)" fill="#fff" stroke="#949494" stroke-linecap="round" stroke-linejoin="round" stroke-width="0.62"/>
    <circle id="Ellipse_1724" data-name="Ellipse 1724" cx="35.692" cy="35.692" r="35.692" transform="translate(370.471 284.104) rotate(-45)" fill="#fff" stroke="#949494" stroke-linecap="round" stroke-linejoin="round" stroke-width="0.62"/>
    <path id="Path_21681" data-name="Path 21681" d="M266.069,245.382s0-33.868-34.346-38.062C228.894,235.564,266.069,245.382,266.069,245.382Z" transform="translate(154.876 125.01)" fill="#009f8b"/>
    <line id="Line_331" data-name="Line 331" x2="18.954" y2="18.494" transform="translate(393.861 341.739)" fill="none" stroke="#fff" stroke-linecap="round" stroke-linejoin="round" stroke-width="0.62"/>
    <path id="Path_21682" data-name="Path 21682" d="M251.91,245.6s0-33.851,34.346-38.062C289.119,235.784,251.91,245.6,251.91,245.6Z" transform="translate(169.206 125.165)" fill="#009f8b"/>
    <line id="Line_332" data-name="Line 332" x1="18.954" y2="18.511" transform="translate(429.229 342.114)" fill="none" stroke="#fff" stroke-linecap="round" stroke-linejoin="round" stroke-width="0.62"/>
    <path id="Path_21683" data-name="Path 21683" d="M243.38,176.06v9.852a14.659,14.659,0,0,0,29.317,0V176.06Zm16.4,15.085h-3.511v-7.483h3.511Z" transform="translate(163.197 102.987)" fill="#777"/>
    <path id="Path_21684" data-name="Path 21684" d="M264.916,178.972v-1.909a9.153,9.153,0,0,0-9.153-9.153h0a9.136,9.136,0,0,0-9.153,9.153v1.909" transform="translate(165.472 97.246)" fill="none" stroke="#777" stroke-miterlimit="10" stroke-width="2"/>
    <path id="Path_21685" data-name="Path 21685" d="M279.328,182.894s29.539-53.249-23.2-82.924" transform="translate(172.179 49.382)" fill="none" stroke="#949494" stroke-linecap="round" stroke-linejoin="round" stroke-width="0.62" stroke-dasharray="6.22 3.11"/>
    <path id="Path_21686" data-name="Path 21686" d="M184.711,97.142l-1.7-12.716-3.954.528-7.807-10.227,1.534-3.682L160.933,66.12,159.416,69.8l-12.716,1.7-2.42-3.17-10.227,7.79,2.437,3.17-4.926,11.932-3.954.511,1.7,12.716,3.954-.511,7.79,10.227-1.534,3.682,11.846,4.926L152.9,119.1l12.716-1.7,2.454,3.068,10.227-7.79-2.42-3.17,4.926-11.846Zm-27.272,7.432a9.121,9.121,0,1,1,.085,0Z" transform="translate(81.636 25.534)" fill="#009f8b"/>
    <rect id="Rectangle_10837" data-name="Rectangle 10837" width="177.899" height="50.862" transform="translate(71.591 0.31)" fill="#fff" stroke="#949494" stroke-linecap="round" stroke-linejoin="round" stroke-width="0.62" stroke-dasharray="6.22 3.11"/>
    <circle id="Ellipse_1725" data-name="Ellipse 1725" cx="7.841" cy="7.841" r="7.841" transform="translate(90.442 17.9)" fill="#e7e7e7"/>
    <circle id="Ellipse_1726" data-name="Ellipse 1726" cx="7.841" cy="7.841" r="7.841" transform="translate(115.226 17.9)" fill="#e7e7e7"/>
    <circle id="Ellipse_1727" data-name="Ellipse 1727" cx="7.841" cy="7.841" r="7.841" transform="translate(140.009 17.9)" fill="#e7e7e7"/>
    <circle id="Ellipse_1728" data-name="Ellipse 1728" cx="7.841" cy="7.841" r="7.841" transform="translate(164.793 17.9)" fill="#e7e7e7"/>
    <circle id="Ellipse_1729" data-name="Ellipse 1729" cx="7.841" cy="7.841" r="7.841" transform="translate(189.593 17.9)" fill="#e7e7e7"/>
    <path id="Path_21687" data-name="Path 21687" d="M146.3,30.684a7.841,7.841,0,1,1-7.841-7.824,7.841,7.841,0,0,1,7.841,7.824Z" transform="translate(83.757 -4.942)" fill="#e7e7e7"/>
    <path id="Path_21688" data-name="Path 21688" d="M248.5,86.4a9.937,9.937,0,1,1,0-14.062A9.937,9.937,0,0,1,248.5,86.4Z" transform="translate(154.855 27.87)" fill="#505050"/>
    <path id="Path_21689" data-name="Path 21689" d="M239.711,63.04l-17.3,17.284,5.42,5.4" transform="translate(156.622 44.193)" fill="none" stroke="#505050" stroke-miterlimit="10" stroke-width="3"/>
    <line id="Line_333" data-name="Line 333" x1="3.971" y1="3.971" transform="translate(383.907 119.659)" fill="none" stroke="#505050" stroke-miterlimit="10" stroke-width="3"/>
    <path id="Path_21690" data-name="Path 21690" d="M243.29,81.177a5.267,5.267,0,1,1,1.551-3.733,5.284,5.284,0,0,1-1.551,3.733Z" transform="translate(156.776 29.79)" fill="#fff"/>
  </g>
</svg>
