<svg xmlns="http://www.w3.org/2000/svg" width="65.032" height="65.032" viewBox="0 0 65.032 65.032">
  <g id="service-icon" transform="translate(-1005 -1151)">
    <g id="Group_4641" data-name="Group 4641" transform="translate(12)">
      <path id="Path_8574" data-name="Path 8574" d="M61.387,1H5.645A4.65,4.65,0,0,0,1,5.645V61.387a4.65,4.65,0,0,0,4.645,4.645H61.387a4.65,4.65,0,0,0,4.645-4.645V5.645A4.65,4.65,0,0,0,61.387,1ZM5.645,4.1H61.387a1.549,1.549,0,0,1,1.548,1.548v7.742H4.1V5.645A1.549,1.549,0,0,1,5.645,4.1ZM61.387,62.936H5.645A1.549,1.549,0,0,1,4.1,61.387v-44.9H62.936v44.9a1.549,1.549,0,0,1-1.548,1.548Z" transform="translate(992 1150)" fill="#505050"/>
      <path id="Path_8575" data-name="Path 8575" d="M30.91,15.843a12.366,12.366,0,0,0-9.773,19.97L12.3,44.654a1.549,1.549,0,1,0,2.19,2.19L23.328,38a12.38,12.38,0,1,0,7.583-22.16Zm0,21.677a9.29,9.29,0,1,1,9.29-9.29A9.29,9.29,0,0,1,30.91,37.52Z" transform="translate(998.157 1157.14)" fill="#505050"/>
    </g>
  </g>
</svg>
