<svg id="register-now" xmlns="http://www.w3.org/2000/svg" width="690.481" height="404.919" viewBox="0 0 690.481 404.919">
  <g id="Group_16700" data-name="Group 16700" transform="translate(0 0)">
    <g id="Group_16699" data-name="Group 16699">
      <path id="Path_16768" data-name="Path 16768" d="M119.267,558.255h81.894c-8.765-8.286-14.354-20.835-14.354-34.881V513.052c0-29.9-21.131-54.14-47.2-54.14h0c-26.72,0-48.381-24.848-48.381-55.5h0c0-30.651,21.661-55.5,48.381-55.5h7.926c26.066,0,47.2-24.239,47.2-54.14h0c0-24.951,17.632-45.178,39.383-45.178H541.846c24.21,0,43.835,22.513,43.835,50.284h0c0,18.985-9.173,35.511-22.711,44.068h54.056c22.544,0,40.819,19.4,40.819,43.335h0c0,28.681,21.9,51.931,48.917,51.931h8.215c27.694,0,50.145,23.834,50.145,53.235h0c0,29.4-22.451,53.235-50.145,53.235h0c-27.016,0-48.917,23.25-48.917,51.931v9.9c0,23.933-18.275,43.335-40.819,43.335H435.3c-1.433.143-2.885.218-4.354.218H119.267c-24.646,0-44.625-20.553-44.625-45.907h0C74.642,578.808,94.621,558.255,119.267,558.255Z" transform="translate(-74.642 -248.596)" fill="#fff" opacity="0.3"/>
      <g id="Group_16683" data-name="Group 16683" transform="translate(493.887 267.801)">
        <path id="Path_16769" data-name="Path 16769" d="M913.111,1309.9c1.163,0,2.109,1.339,2.114,3s-.936,3-2.1,3.006-2.109-1.339-2.114-3S911.947,1309.906,913.111,1309.9Zm0,.848c-.624,0-1.13.314-1.129.7s.508.694,1.132.692,1.129-.314,1.129-.7S913.737,1310.749,913.113,1310.751Zm.01,4.028c.881,0,1.593-.484,1.592-1.076s-.716-1.07-1.6-1.068-1.593.484-1.592,1.076S912.242,1314.781,913.123,1314.779Z" transform="translate(-901.148 -1309.903)" fill="#466eb6"/>
        <path id="Path_16770" data-name="Path 16770" d="M912.183,1340.27a7.278,7.278,0,0,1,.676,3.042l.054,21.974a2.415,2.415,0,0,1-2.421,2.408l-12.565.031a2.415,2.415,0,0,1-2.433-2.4l-.054-21.974a7.277,7.277,0,0,1,.661-3.045Z" transform="translate(-895.439 -1333.643)" fill="#7f1ca0"/>
        <path id="Path_16771" data-name="Path 16771" d="M912.183,1340.27a7.278,7.278,0,0,1,.676,3.042l.054,21.974a2.415,2.415,0,0,1-2.421,2.408l-12.565.031a2.415,2.415,0,0,1-2.433-2.4l-.054-21.974a7.277,7.277,0,0,1,.661-3.045Z" transform="translate(-895.439 -1333.643)" fill="#7f1ca0"/>
        <path id="Path_16772" data-name="Path 16772" d="M895.445,1343.357l.054,21.975a2.417,2.417,0,0,0,2.433,2.4l12.565-.031a2.415,2.415,0,0,0,2.421-2.409l-.054-21.975a7.275,7.275,0,0,0-.676-3.04l-16.08.039A7.28,7.28,0,0,0,895.445,1343.357Z" transform="translate(-895.445 -1333.646)" fill="#f47458"/>
        <path id="Path_16773" data-name="Path 16773" d="M897.861,1365.293l-.054-21.974a7.277,7.277,0,0,0-.677-3.042l3.331-.008a7.277,7.277,0,0,1,.677,3.042l.054,21.974a2.415,2.415,0,0,1-2.421,2.408l-3.332.008A2.415,2.415,0,0,0,897.861,1365.293Z" transform="translate(-883.718 -1333.643)" fill="#f48c7f"/>
        <path id="Path_16774" data-name="Path 16774" d="M940.577,1343.454l.054,21.975a2.417,2.417,0,0,0,2.433,2.4l5.137-.012a2.43,2.43,0,0,1-2.459-2.4l-.054-21.975a7.237,7.237,0,0,1,.669-3.043l-5.117.012A7.282,7.282,0,0,0,940.577,1343.454Z" transform="translate(-940.577 -1333.743)" fill="#b75742"/>
        <path id="Path_16775" data-name="Path 16775" d="M898.78,1335.763l16.083-.04h0a1.279,1.279,0,0,0-1.288-1.269l-13.513.033a1.279,1.279,0,0,0-1.282,1.275Z" transform="translate(-898.117 -1329.097)" fill="#13375b"/>
        <rect id="Rectangle_10111" data-name="Rectangle 10111" width="2.731" height="17.42" transform="translate(0.05 30.077) rotate(-90.141)" fill="#355389"/>
      </g>
      <g id="Group_16684" data-name="Group 16684" transform="translate(523.821 267.01)">
        <path id="Path_16776" data-name="Path 16776" d="M590.33,1306.622h-1.921a2.007,2.007,0,0,1,1.135-.344h48.131a4.324,4.324,0,0,1,4.56,4.042v2.567a4.324,4.324,0,0,1-4.56,4.042l-47.593-.014Z" transform="translate(-587.692 -1306.278)" fill="#86b1f2"/>
        <path id="Path_16777" data-name="Path 16777" d="M711.025,1306.322a4.135,4.135,0,0,1,4.36,3.865v2.9a4.135,4.135,0,0,1-4.36,3.865H681.062v-.649h.124l7.617-.639,1.54-5.354s-2.972-2.958-3.165-3.035-5.991-.307-5.991-.307h-.124v-.645Z" transform="translate(-681.062 -1306.313)" fill="#466eb6"/>
        <path id="Path_16778" data-name="Path 16778" d="M687.327,1313.944a6.184,6.184,0,0,0-1.825-4.648h29.23a3.8,3.8,0,0,1,4.005,3.55v2.233a3.8,3.8,0,0,1-4.005,3.55H685.5S687.327,1317.885,687.327,1313.944Z" transform="translate(-685.384 -1308.637)" fill="#fae0b2"/>
        <path id="Path_16779" data-name="Path 16779" d="M718.738,1312.846v2.233a3.178,3.178,0,0,1-.117.851,8.375,8.375,0,0,0-6.472-4.86c-8.4-1.546-26.646-1.775-26.646-1.775h29.23A3.8,3.8,0,0,1,718.738,1312.846Z" transform="translate(-685.384 -1308.637)" fill="#daeef7" style="mix-blend-mode: multiply;isolation: isolate"/>
        <path id="Path_16780" data-name="Path 16780" d="M555.6,1403.865h-2.174a2.124,2.124,0,0,1,1.285-.43h54.475a5.11,5.11,0,0,1,5.161,5.059v3.213a5.111,5.111,0,0,1-5.161,5.059l-53.866-.018Z" transform="translate(-552.171 -1382.233)" fill="#50bfa5"/>
        <path id="Path_16781" data-name="Path 16781" d="M692.2,1403.489a4.887,4.887,0,0,1,4.935,4.838v3.632a4.887,4.887,0,0,1-4.935,4.838H658.293v-.812h.14l8.621-.8,1.743-6.7s-3.363-3.7-3.583-3.8-6.781-.385-6.781-.385h-.14v-.808Z" transform="translate(-657.848 -1382.275)" fill="#3c8f7c"/>
        <path id="Path_16782" data-name="Path 16782" d="M665.383,1413.03a8.106,8.106,0,0,0-2.065-5.818H696.4a4.489,4.489,0,0,1,4.533,4.444v2.8a4.489,4.489,0,0,1-4.533,4.444H663.318S665.383,1417.963,665.383,1413.03Z" transform="translate(-662.739 -1385.186)" fill="#fae0b2"/>
        <path id="Path_16783" data-name="Path 16783" d="M700.934,1411.656v2.8a4.376,4.376,0,0,1-.132,1.066,9.694,9.694,0,0,0-7.325-6.083c-9.5-1.935-30.159-2.222-30.159-2.222H696.4A4.489,4.489,0,0,1,700.934,1411.656Z" transform="translate(-662.739 -1385.186)" fill="#daeef7" style="mix-blend-mode: multiply;isolation: isolate"/>
        <path id="Path_16784" data-name="Path 16784" d="M594,1355.3h2.175a2.505,2.505,0,0,0-1.285-.341h-54.5c-2.851,0-5.163,1.8-5.163,4.014v2.55c0,2.217,2.311,4.014,5.163,4.014l53.887-.014Z" transform="translate(-530.029 -1344.336)" fill="#f47458"/>
        <path id="Path_16785" data-name="Path 16785" d="M536.451,1355c-2.727,0-4.937,1.719-4.937,3.839v2.882c0,2.12,2.21,3.839,4.937,3.839h33.925v-.644h-.14l-8.625-.635-1.743-5.318s3.365-2.938,3.584-3.014,6.784-.306,6.784-.306h.14V1355Z" transform="translate(-503.418 -1344.371)" fill="#b75742"/>
        <path id="Path_16786" data-name="Path 16786" d="M567.694,1362.573a5.859,5.859,0,0,1,2.066-4.616h-33.1c-2.5,0-4.535,1.579-4.535,3.526v2.219c0,1.947,2.03,3.526,4.535,3.526h33.1S567.694,1366.488,567.694,1362.573Z" transform="translate(-502.936 -1346.679)" fill="#fae0b2"/>
        <path id="Path_16787" data-name="Path 16787" d="M532.129,1361.483v2.219a2.787,2.787,0,0,0,.132.845c1.116-2.124,3.255-4.169,7.328-4.827,9.508-1.535,30.171-1.763,30.171-1.763h-33.1C534.159,1357.957,532.129,1359.536,532.129,1361.483Z" transform="translate(-502.936 -1346.679)" fill="#daeef7" style="mix-blend-mode: multiply;isolation: isolate"/>
      </g>
      <rect id="Rectangle_10112" data-name="Rectangle 10112" width="5.2" height="119.159" transform="matrix(-0.983, 0.186, -0.186, -0.983, 415.061, 399.755)" fill="#184655"/>
      <path id="Path_16788" data-name="Path 16788" d="M2042.841,1496.635H2036.7l22.9-118.6,5.109.969Z" transform="translate(-1802.396 -1095.368)" fill="#184655"/>
      <path id="Path_16789" data-name="Path 16789" d="M1527.27,1496.635h-6.146l22.9-118.6,5.109.969Z" transform="translate(-1174.314 -1095.368)" fill="#184655"/>
      <path id="Path_16790" data-name="Path 16790" d="M1879.52,1498.542l4.99.06-21.957-118.124-5.109.968Z" transform="translate(-1583.081 -1097.275)" fill="#184655"/>
      <path id="Path_16791" data-name="Path 16791" d="M1320.608,644.311c-20.232,2.167-46.414,4.453-72.7,49.057-28.727,48.75-13.6,121.571,9.069,141.806s96.727,45.222,158.978,7.816c0,0,37.588-22.668,18.3-60.29-29.686-57.895-25.491-69.967-38.764-92.656S1363.553,639.712,1320.608,644.311Z" transform="translate(-1001.878 -521.363)" fill="#d5d5d5"/>
      <path id="Path_16792" data-name="Path 16792" d="M1303.875,707.548c17.94-30.444,35.832-41.171,51.817-45.6a133.881,133.881,0,0,0-18.725,25.277c-28.727,48.75-13.605,121.57,9.069,141.806,20.107,17.945,80.621,39.619,137.478,18.209a57.762,57.762,0,0,1-11.591,9.934c-62.251,37.406-136.3,12.42-158.978-7.816S1275.148,756.3,1303.875,707.548Z" transform="translate(-1057.843 -535.543)" fill="#777"/>
      <path id="Path_16793" data-name="Path 16793" d="M509.4,768.359c.574,4.522-4.136,8.111-8.324,7.828a10.307,10.307,0,0,1-9.235-8.66c-.733-4.925,2.226-8.864,6.8-9.225a5.712,5.712,0,0,1,6.02,7.618c-.923,2.87-3.543,3.94-4.862,3.148a1.311,1.311,0,0,1,.279-2.448,1.287,1.287,0,0,1,1.279.551c1.09-.433,2.127-2.417,1.423-4.56-.9-2.737-4.359-2.894-6.509-1.617-2.735,1.625-3.165,5.124-2.162,7.912a8.418,8.418,0,0,0,7.058,5.455,6.559,6.559,0,0,0,6.949-6A.64.64,0,0,1,509.4,768.359Z" transform="translate(90.015 -610.858)" fill="#d5d5d5"/>
      <path id="Path_16800" data-name="Path 16800" d="M1467.332,985.671l5.2,15.6-15.848-6.233Z" transform="translate(-1083.648 -788.626)" fill="#f79c8d"/>
      <path id="Path_16801" data-name="Path 16801" d="M1467,772.937c1.056.044,3.951,1.009,8.185,8.983,5.407,10.183,13.308,40.943,13.308,40.943l-23.586,8.754-3.03-6.421-4.99-49.428S1466.709,772.925,1467,772.937Z" transform="translate(-1099.655 -622.315)" fill="#079552"/>
      <path id="Path_16802" data-name="Path 16802" d="M1590.354,752.619c6.745.009,23.433,1.97,31.178,4.436,0,0,5.69,48.739-5.123,85.775-2.421,8.29,2,34.367,2,34.367l-69.888-.919s8.28-63.041,5.16-73.224-3.193-45.671-3.193-45.671.479-.074,15.7-2.7A158.749,158.749,0,0,1,1590.354,752.619Z" transform="translate(-1254.186 -606.431)" fill="#1dbf73"/>
      <path id="Path_16803" data-name="Path 16803" d="M1729.725,1738.023s1.546,17.785,4.389,22.71-.149,13.3-.3,14.447-5.985,2.791-15.261,1.806-9.127-3.119-8.379-6.567,5.686-7.88,5.985-11.163-2.843-15.1-2.843-15.1Z" transform="translate(-1401.701 -1376.795)" fill="#f7a491"/>
      <path id="Path_16804" data-name="Path 16804" d="M1378.725,1252.312s48.244-2.67,59.017,3.833-1.948,19.855-1.948,19.855-39.276,17.018-105.029,20.8c-15.571.9-16.913-40.462-14-43.884S1378.725,1252.312,1378.725,1252.312Z" transform="translate(-1022.384 -996.226)" fill="#505050"/>
      <path id="Path_16805" data-name="Path 16805" d="M1713.361,1863.553c-9.552-1.014-8.371-5.691-7.6-9.241.482-2.223,3.223-4.843,4.856-7.322.854.678,2.243,1.875,6.391,3.1,4.308,1.268,10.213-1.241,13.975-2.813a45.839,45.839,0,0,1,1.277,12.28C1732.106,1860.735,1722.914,1864.567,1713.361,1863.553Z" transform="translate(-1397.665 -1461.983)" fill="#355389"/>
      <path id="Path_16806" data-name="Path 16806" d="M1751.9,1288.42c1.927,14.536,11.471,86.9,11.471,86.9l-22.144,2.736s-27.231-94.45-25.834-108.9,11.589-15.662,11.589-15.662S1746.794,1249.941,1751.9,1288.42Z" transform="translate(-1430.927 -997.936)" fill="#777"/>
      <path id="Path_16807" data-name="Path 16807" d="M1619.682,460.1s-7.357-7.757-13.275,1.679a5.883,5.883,0,0,0-7.757,2s-8.236-2.479-10.236,9.836c0,0-4.239-.8-4.8,4.239a12.467,12.467,0,0,0,2,8.4s-2.381,1.785-1.3,6.418a5.731,5.731,0,0,0,4.178,4.538s.88,6.638,3.759,8.637,6.8,1.04,6.8,1.04,1.04,3.6,4.4,3.279,7.517-3.518,11.276-2.079,13.515-.08,13.515-.08,10.956-4.878,7.677-16.074c0,0,5.758-5.2.72-11.436,0,0,3.679-9.756-3.6-15.514S1619.682,460.1,1619.682,460.1Z" transform="translate(-1277.501 -375.404)" fill="#07345a"/>
      <path id="Path_16808" data-name="Path 16808" d="M1681.07,656.423l1.332,9.881s2.983,14.235-.855,16.979-16.323-17.385-16.323-17.385l1.319-25.036Z" transform="translate(-1340.132 -519.062)" fill="#f7a491"/>
      <path id="Path_16809" data-name="Path 16809" d="M1671.216,648.974c3.171,8.539,10.722,13.789,16.082,15.825l-1.129-8.377-14.527-15.562Z" transform="translate(-1345.23 -519.061)" fill="#f47458"/>
      <path id="Path_16810" data-name="Path 16810" d="M1631.108,517.772a13.2,13.2,0,0,1,17.281,10.522,99.854,99.854,0,0,1,1.071,12.677c.21,11.54-5.765,22.771-11,22.771s-19.723-7.471-20.247-23.854C1617.885,529.774,1622.934,520.586,1631.108,517.772Z" transform="translate(-1295.827 -422.276)" fill="#f7a491"/>
      <path id="Path_16811" data-name="Path 16811" d="M1751.272,611.1c0,2.546-1.688,4.609-3.769,4.609s-3.769-2.064-3.769-4.609,1.688-4.609,3.769-4.609S1751.272,608.554,1751.272,611.1Z" transform="translate(-1425.029 -492.192)" fill="#f7a491"/>
      <path id="Path_16812" data-name="Path 16812" d="M1588.958,481.388c5.413,4.288,7.31,10.8,4.237,14.553s-9.952,3.312-15.365-.976-7.31-10.8-4.237-14.553S1583.545,477.1,1588.958,481.388Z" transform="translate(-1230.974 -391.634)" fill="#07345a"/>
      <path id="Path_16813" data-name="Path 16813" d="M1523.268,799.01c6.535-2.443,9.731,56.234,10.612,80.386,11.572,1.109,31.741.008,36.763-.368,2.362-.177,7.808-2.164,10.157-2.471a23.6,23.6,0,0,1,5.773-.273c.434.075,12.5,4.991,13.528,6.069,1.28,1.337,4.739,4.709,4.155,6.167s-6.653-4.063-6.653-4.063l-2.966-1.659c3.693,3.6,10.736,8.33,9.721,10.054-.99,1.681-7.343-3.123-11.87-6.4,3.884,3.5,8.708,9.752,7.6,10.728-1,.876-6.487-6.367-12.353-8.452-2.173-.773-4.34,1.368-6.05,1.626-1.257.19-3.2.594-4.43.246l-6.351-1.795c-2.163.2-2.218,1.47-4.4,1.934-2.536.538-6.7,1.1-9.927,1.891-18.6,4.529-24.8,6.632-30.5,6.629C1508.825,899.251,1507.825,804.783,1523.268,799.01Z" transform="translate(-1227.725 -642.641)" fill="#f7a491"/>
      <path id="Path_16814" data-name="Path 16814" d="M1820.249,834.456c-1.224-24.739-1.045-55.231,12.87-60.433,5.49-2.052,15.17,10.29,13.429,60.936C1839.12,835.57,1828.214,836.062,1820.249,834.456Z" transform="translate(-1537.107 -622.999)" fill="#079552"/>
      <path id="Path_16815" data-name="Path 16815" d="M1607.236,1003h-1.418l-21.323,52.224,1.469-.223Z" transform="translate(-1246.243 -802.174)" fill="#f79c8d"/>
      <path id="Path_16816" data-name="Path 16816" d="M1350.817,1807.733s-1.932,6.174,1.528,10.257,17.836,8.088,19.723,10.3a6.186,6.186,0,0,1,1.744,4.095l-40.349-1.107.439-12.144,1.858-8.727Z" transform="translate(-958.039 -1431.293)" fill="#f7a491"/>
      <path id="Path_16817" data-name="Path 16817" d="M1328.581,1860.747s-10.368,4.18-15.376,1.705-4.857-3.16-6.306-2.237-1.968,12.307-1.968,12.307l45.372,1.329c3.158-.073,4.754-2.39,2.188-4.374a37.008,37.008,0,0,0-4.947-2.931C1344,1864.517,1328.581,1860.747,1328.581,1860.747Z" transform="translate(-931.767 -1472.014)" fill="#355389"/>
      <path id="Path_16818" data-name="Path 16818" d="M1298.123,1267.251c3.118-6.54,10.211-15.056,22.691-9.927,11.9,4.892,15.1,16.914,11.342,29.225s-28.479,84.681-29.34,94.631l-19.74.13s3.588-57.3,4.468-71.155C1288.391,1296.828,1292.725,1278.572,1298.123,1267.251Z" transform="translate(-906.875 -999.769)" fill="#777"/>
      <path id="Path_16819" data-name="Path 16819" d="M1407.772,1003h-65.985a4.3,4.3,0,0,0-3.981,2.67l-20.318,49.553h-36.378a1.841,1.841,0,0,0-1.842,1.841h0a1.841,1.841,0,0,0,1.842,1.84h103.535a7.227,7.227,0,0,0,6.593-4.268l20.458-45.572A4.3,4.3,0,0,0,1407.772,1003Z" transform="translate(-984.479 -802.174)" fill="#202020"/>
      <path id="Path_16820" data-name="Path 16820" d="M1468.534,1118.041a3.631,3.631,0,1,1-2.722-4.736A3.882,3.882,0,0,1,1468.534,1118.041Z" transform="translate(-1080.768 -888.358)" fill="#fff"/>
      <ellipse id="Ellipse_1643" data-name="Ellipse 1643" cx="32.581" cy="32.649" rx="32.581" ry="32.649" transform="translate(169.673 65.434)" fill="#9bc1f9" opacity="0.3"/>
      <g id="Group_16696" data-name="Group 16696" transform="translate(167.141 63.217)">
        <g id="Group_16695" data-name="Group 16695" transform="translate(0 0)">
          <g id="Group_16689" data-name="Group 16689" transform="translate(58.143 34.224)">
            <rect id="Rectangle_10113" data-name="Rectangle 10113" width="12.011" height="0.925" transform="translate(0)" fill="#184655"/>
          </g>
          <g id="Group_16690" data-name="Group 16690" transform="translate(0 34.224)">
            <rect id="Rectangle_10114" data-name="Rectangle 10114" width="12.011" height="0.925" fill="#184655"/>
          </g>
          <g id="Group_16691" data-name="Group 16691" transform="translate(34.703)">
            <rect id="Rectangle_10115" data-name="Rectangle 10115" width="0.923" height="12.036" transform="translate(0)" fill="#184655"/>
          </g>
          <g id="Group_16692" data-name="Group 16692" transform="translate(34.703 58.031)">
            <rect id="Rectangle_10116" data-name="Rectangle 10116" width="0.923" height="12.036" transform="translate(0)" fill="#184655"/>
          </g>
          <path id="Path_16821" data-name="Path 16821" d="M2307.343,528.614a.994.994,0,1,0,.994-1A1,1,0,0,0,2307.343,528.614Z" transform="translate(-2273.224 -493.748)" fill="#184655"/>
          <g id="Group_16693" data-name="Group 16693" transform="translate(34.67 16.518)">
            <path id="Path_16822" data-name="Path 16822" d="M2228.44,466.9a.443.443,0,0,0,.314-.13l17.865-17.9a.445.445,0,0,0-.628-.63l-17.865,17.9a.445.445,0,0,0,.314.76Z" transform="translate(-2227.995 -448.105)" fill="#184655"/>
          </g>
          <g id="Group_16694" data-name="Group 16694" transform="translate(28.901 34.866)">
            <path id="Path_16823" data-name="Path 16823" d="M2311.412,550.277a.32.32,0,0,0,.162-.188l5.775-17.479a.323.323,0,1,0-.614-.2l-5.775,17.479a.323.323,0,0,0,.452.391Z" transform="translate(-2310.944 -532.184)" fill="#184655"/>
          </g>
        </g>
      </g>
      <path id="Path_16824" data-name="Path 16824" d="M2568.724,806.219l-2.908-4.724,2.335-.947a1,1,0,0,0,.55-1.3h0a1,1,0,0,0-1.3-.55l-2.693,1.092-2.6-4.242,2.495-1.012a1,1,0,0,0,.55-1.3h0a1,1,0,0,0-1.3-.55L2561,793.842l-3.02-4.857a1,1,0,0,0-1.223-.4l-.435.177a1,1,0,0,0-.476,1.447l2.808,4.584-4.135,1.677-3.019-4.858a1,1,0,0,0-1.223-.4l-.475.193a1,1,0,0,0-.476,1.447l2.808,4.584-2.335.947a1,1,0,0,0-.55,1.3h0a1,1,0,0,0,1.3.55l2.693-1.092,2.56,4.258-2.494,1.012a1,1,0,0,0-.55,1.3h0a1,1,0,0,0,1.3.55l2.852-1.157,3.084,5.009a1,1,0,0,0,1.226.4l.509-.207a1,1,0,0,0,.475-1.449l-2.908-4.723,4.135-1.677,3.084,5.009a1,1,0,0,0,1.226.4l.509-.206A1,1,0,0,0,2568.724,806.219Zm-10.538-3.784-2.6-4.242,4.135-1.677,2.6,4.242Z" transform="translate(-2418.397 -634.493)" fill="#d5d5d5"/>
      <path id="Path_16825" data-name="Path 16825" d="M1398.956,210.36l-2.973-6.711,3.843-6.254a1.009,1.009,0,0,0-.963-1.532l-7.3.754-4.76-5.587a1.009,1.009,0,0,0-1.754.443l-1.539,7.177-6.785,2.8a1.009,1.009,0,0,0-.121,1.8l6.35,3.682.567,7.318a1.009,1.009,0,0,0,1.679.673l5.464-4.9,7.135,1.722A1.009,1.009,0,0,0,1398.956,210.36Z" transform="translate(-993.507 -167.118)" fill="#d5d5d5"/>
      <path id="Path_16826" data-name="Path 16826" d="M2381.434,227.953l-2.23-5.034,2.883-4.691a.757.757,0,0,0-.723-1.149l-5.477.566-3.571-4.191a.756.756,0,0,0-1.315.332l-1.155,5.383-5.09,2.1a.757.757,0,0,0-.091,1.354l4.763,2.761.426,5.489a.757.757,0,0,0,1.26.5l4.1-3.677,5.352,1.292A.757.757,0,0,0,2381.434,227.953Z" transform="translate(-2191.378 -184.717)" fill="#d5d5d5"/>
      <path id="Path_16827" data-name="Path 16827" d="M2256.055,891.725l.354-4.17,3.635-2.073a.575.575,0,0,0-.062-1.029l-3.857-1.625-.848-4.1a.575.575,0,0,0-1-.26l-2.737,3.166-4.159-.46a.575.575,0,0,0-.555.869l2.165,3.581-1.723,3.814a.575.575,0,0,0,.655.8l4.075-.953,3.095,2.817A.575.575,0,0,0,2256.055,891.725Z" transform="translate(-2043.86 -704.663)" fill="#ffc107"/>
      <path id="Path_16828" data-name="Path 16828" d="M747.663,620.2l-1.636-3.691,2.114-3.44a.555.555,0,0,0-.53-.842l-4.016.415-2.619-3.073a.555.555,0,0,0-.965.244l-.847,3.948-3.732,1.54a.555.555,0,0,0-.067.993l3.493,2.025.312,4.026a.555.555,0,0,0,.924.37l3.005-2.7,3.925.947A.555.555,0,0,0,747.663,620.2Z" transform="translate(-266.87 -462.448)" fill="#ffc107"/>
      <path id="Path_16830" data-name="Path 16830" d="M1053.563,334.68l-6.481-.94L1044.417,344l-9.646-.206-3.25,7.353L1027.8,349.5l4.346-9.835,9.141.2,2.772-10.675,9.753,1.415Z" transform="translate(-571.334 -275.405)" fill="#d5d5d5"/>
      <path id="Path_16831" data-name="Path 16831" d="M983.736,1106.888l-4.9-4.34-7.855,7.12-7.954-5.461-6.75,4.368-2.211-3.417,9.027-5.841,7.538,5.176,8.172-7.407,7.38,6.531Z" transform="translate(-487.61 -875.726)" fill="#07345a"/>
      <g id="Group_16698" data-name="Group 16698" transform="translate(474.208 301.52)">
        <rect id="Rectangle_10117" data-name="Rectangle 10117" width="136.577" height="7.054" transform="translate(0)" fill="#184655"/>
        <rect id="Rectangle_10118" data-name="Rectangle 10118" width="89.294" height="6.172" transform="translate(44.814 40.92)" fill="#184655"/>
        <rect id="Rectangle_10119" data-name="Rectangle 10119" width="5.761" height="96.208" transform="translate(13.403 3.527)" fill="#184655"/>
        <rect id="Rectangle_10120" data-name="Rectangle 10120" width="5.761" height="96.208" transform="translate(94.879 3.527)" fill="#184655"/>
        <path id="Path_16840" data-name="Path 16840" d="M795.36,1573.821l-31.034-95.381,5.087-1.655,31.573,97.036Z" transform="translate(-735.219 -1474.086)" fill="#184655"/>
        <path id="Path_16841" data-name="Path 16841" d="M391.163,1573.874l-26.544-95.589,5.155-1.431,26.942,97.021Z" transform="translate(-243.722 -1474.139)" fill="#184655"/>
      </g>
      <path id="Path_16842" data-name="Path 16842" d="M2175.583,357.454a38.131,38.131,0,1,1-38.051,38.131A38.091,38.091,0,0,1,2175.583,357.454Zm-2.041,70.716a32.649,32.649,0,1,0-30.477-34.63A32.606,32.606,0,0,0,2173.542,428.17Z" transform="translate(-1973.329 -297.502)" fill="#184655"/>
      <g id="Group_16774" data-name="Group 16774" transform="translate(67.591 249.134)">
        <g id="Group_16596" data-name="Group 16596" transform="translate(12.619 60.213)" opacity="0.7">
          <path id="Path_19862" data-name="Path 19862" d="M1819.757,1706.229s10.551-12.309.651-20.128c0,0-7.232-4.378-13.128-4.022,0,0,8.355,14.011,5.652,15.4s-8.185-16.284-8.185-16.284-16.457-1.6-21.751.949c0,0,14.068,11.513,11.106,12.2s-18.159-10.615-18.159-10.615-15.317,2.607-14.5,11.95,6.094,12.229,8.414,11.981,15.889-5.428,16.184-3.528-7.872,8.112-13.592,8.4c0,0,10.8,11.909,17.975,8.472s7.79-8.885,12.263-10.928,8.293-2.039,6.446.045-9.943,4.11-12.5,8.635-4.854,7.578,2.571,6.46,19.495-6.55,20.025-12.772Z" transform="translate(-1761.411 -1680.706)" fill="#1dbf73"/>
          <g id="Group_16595" data-name="Group 16595" transform="translate(7.557 15.157)">
            <path id="Path_19863" data-name="Path 19863" d="M1787.729,1733.56s41.6-1.6,50.788,10.295a30.094,30.094,0,0,0,8.284,11.626l.975,2.656s-7.209-7.6-9.789-8.061C1837.987,1750.075,1842.021,1735.336,1787.729,1733.56Z" transform="translate(-1787.729 -1733.487)" fill="#1dbf73"/>
            <path id="Path_19864" data-name="Path 19864" d="M1987.609,1807.475s8.929,6.6,9.55,18.4l-1.62.145s-2.852-12.2-8.007-16.972S1987.609,1807.475,1987.609,1807.475Z" transform="translate(-1928.537 -1785.483)" fill="#1dbf73"/>
          </g>
        </g>
        <g id="Group_16598" data-name="Group 16598" transform="translate(96.821 26.792)" opacity="0.53">
          <path id="Path_19865" data-name="Path 19865" d="M2065.666,1607.787s-16.784-9.4-8.952-22.155c0,0,6.266-7.833,12.979-9.847,0,0-3.581,19.022,0,19.469s2.462-21.484,2.462-21.484,17.679-8.5,24.617-7.833c0,0-10.966,18.574-7.385,18.127s15.889-19.246,15.889-19.246,18.126-3.357,21.036,7.385-1.79,16.113-4.475,16.784-19.917.448-19.469,2.685,12.084,5.818,18.574,3.8c0,0-7.161,17.679-16.56,16.784s-12.308-6.714-18.127-7.161-10.07,1.119-7.161,2.686,12.756.513,17.456,4.509,8.5,6.457-.224,8.247-24.393.671-27.526-6.042Z" transform="translate(-2054.632 -1564.323)" fill="#1dbf73"/>
          <g id="Group_16597" data-name="Group 16597" transform="translate(2.17 11.238)">
            <path id="Path_19866" data-name="Path 19866" d="M2134.313,1603.46s-46.995,15.217-52.366,32.225a35.7,35.7,0,0,1-4.476,16.336v3.357s4.923-11.413,7.609-12.979C2085.08,1642.4,2074.562,1627.629,2134.313,1603.46Z" transform="translate(-2073.082 -1603.46)" fill="#1dbf73"/>
            <path id="Path_19867" data-name="Path 19867" d="M2066.576,1767.383s-7.248,11.006-3.116,24.4l1.865-.5s-1.81-14.756,1.982-22.177S2066.576,1767.383,2066.576,1767.383Z" transform="translate(-2062.187 -1718.821)" fill="#1dbf73"/>
          </g>
        </g>
        <g id="Group_16600" data-name="Group 16600">
          <path id="Path_19868" data-name="Path 19868" d="M1798.62,1528.317s22.124-12.39,11.8-29.2c0,0-8.26-10.325-17.109-12.98,0,0,4.72,25.075,0,25.664s-3.245-28.319-3.245-28.319-23.3-11.209-32.449-10.324c0,0,14.455,24.484,9.735,23.894s-20.944-25.37-20.944-25.37-23.894-4.425-27.729,9.735,2.36,21.24,5.9,22.125,26.254.59,25.664,3.54-15.929,7.67-24.484,5.015c0,0,9.439,23.3,21.829,22.124s16.225-8.85,23.894-9.439,13.275,1.474,9.44,3.54-16.815.677-23.01,5.943-11.21,8.512.3,10.871,32.154.885,36.284-7.965Z" transform="translate(-1717.467 -1471.024)" fill="#1dbf73"/>
          <g id="Group_16599" data-name="Group 16599" transform="translate(12.125 14.814)">
            <path id="Path_19869" data-name="Path 19869" d="M1759.689,1522.613s61.948,20.059,69.028,42.479c0,0-.3,10.029,5.9,21.535v4.425s-6.49-15.044-10.03-17.109C1824.587,1573.942,1838.452,1554.472,1759.689,1522.613Z" transform="translate(-1759.689 -1522.613)" fill="#1dbf73"/>
            <path id="Path_19870" data-name="Path 19870" d="M2013.268,1738.695s9.554,14.507,4.107,32.167l-2.458-.66s2.386-19.451-2.612-29.234S2013.268,1738.695,2013.268,1738.695Z" transform="translate(-1938.34 -1674.681)" fill="#1dbf73"/>
          </g>
        </g>
        <path id="Path_19871" data-name="Path 19871" d="M1895.085,1883.325a43.338,43.338,0,0,1-43.339-43.338h86.677A43.338,43.338,0,0,1,1895.085,1883.325Z" transform="translate(-1813.187 -1734.035)" fill="#505050"/>
        <path id="Path_19872" data-name="Path 19872" d="M1849.663,1985.313h87.873a5.347,5.347,0,0,0-5.346-5.347h-77.18a5.347,5.347,0,0,0-5.347,5.347Z" transform="translate(-1811.701 -1833.817)" fill="#777"/>
        <rect id="Rectangle_10603" data-name="Rectangle 10603" width="89.087" height="1.33" transform="translate(37.574 105.952)" fill="#777"/>
      </g>
    </g>
    <rect id="Rectangle_10121" data-name="Rectangle 10121" width="647.318" height="4.255" transform="translate(16.003 400.665)" fill="#777"/>
  </g>
  <path id="Path_16843" data-name="Path 16843" d="M1657.037,671.692l-10.145-.166s.171,3.857,4.63,4.059C1656.959,675.831,1657.037,671.692,1657.037,671.692Z" transform="translate(-1309.661 -543.035)" fill="#fff"/>
</svg>
