<svg xmlns="http://www.w3.org/2000/svg" xmlns:xlink="http://www.w3.org/1999/xlink" width="670" height="440" viewBox="0 0 670 440">
  <defs>
    <clipPath id="clip-path">
      <rect id="Rectangle_10890" data-name="Rectangle 10890" width="670" height="440" transform="translate(-13681 -19164)" fill="#fff" stroke="#707070" stroke-width="1"/>
    </clipPath>
  </defs>
  <g id="home-slider2" transform="translate(13681 19164)" clip-path="url(#clip-path)">
    <g id="OBJECTS" transform="translate(-13678.273 -19148.414)">
      <path id="Path_20139" data-name="Path 20139" d="M51.506,166.619s-27.366-5.779-27.769-25.443,19.626,2.627,20.32-3.753S16.213,125.716,25.585,111.85c7.045-10.423,9.466,4.269,13.472,1.107s-16.314-31.719-4.691-34.9,17.534,17.4,16.568,24.833,3.293-2.617,8.556-2.589,8.321,10.132,1.651,17.984-2.9,16.455,3.753,10.545,15.01-15.949,16.765-3.452S80.392,161.769,51.506,166.619Z" transform="translate(-23.69 -32.896)" fill="#d5d5d5"/>
      <path id="Path_20140" data-name="Path 20140" d="M36.38,83S47.056,100.2,50.34,128.4s16.389,51.983,19.129,50.9,3.481,1.379-5.863-17.928-10.32-37.751-14.513-52.3S37.712,82.379,36.38,83Z" transform="translate(-24.475 -33.22)" fill="#bebebe"/>
      <path id="Path_20141" data-name="Path 20141" d="M122.582,342.208s17.393,26.024,2.336,42.095-13.659-17.478-19.2-12.9,13.134,31.165-5.216,34.937c-13.791,2.814-4.24-10.826-9.916-11.427s-11.7,38.154-23.51,31.644-.385-27.647,6.182-32.845-4.691-.478-8.875-4.616,1.229-14.626,12.721-15.7S92.29,362.491,82.317,362s-24.476.938-16.127-10.32S95.648,323.5,122.582,342.208Z" transform="translate(-26.056 -48.737)" fill="#d5d5d5"/>
      <path id="Path_20142" data-name="Path 20142" d="M70.177,420.806s4.907-22.131,24.336-47.283,27.525-54.413,24.5-55.717-1.707-3.828-9.381,18.941-21.249,38.314-29.27,53.23S68.6,420.281,70.177,420.806Z" transform="translate(-26.543 -47.696)" fill="#bebebe"/>
      <path id="Path_20143" data-name="Path 20143" d="M554.736,169.016s-23.773-20.358-13.612-39.89,17.825,13.134,21.962,7.233-21.061-26.456-4.4-35.049c12.515-6.445,7,9.278,12.628,8.331s1.013-39.918,14.072-36.822,7.871,26.512,2.936,33.285,4.691-.807,9.794,2.055,2.73,14.419-8.04,18.557-11.68,14.6-1.951,12.374,23.313-7.552,18.322,5.629S585.714,179.767,554.736,169.016Z" transform="translate(-55.538 -32.581)" fill="#d5d5d5"/>
      <path id="Path_20144" data-name="Path 20144" d="M585.769,78.42s1.257,22.637-10.667,52.1-11.811,59.844-8.537,60.267,2.674,3.218,3.865-20.761,10.123-42.629,13.819-59.16S587.429,78.5,585.769,78.42Z" transform="translate(-57.151 -32.939)" fill="#bebebe"/>
      <path id="Path_20145" data-name="Path 20145" d="M676.163,337.7s20.517,23.641,7.59,41.466-15.733-15.6-20.639-10.385,16.887,29.27-.8,35.312c-13.331,4.541-5.563-10.207-11.258-10.094s-6.867,39.327-19.363,34.336-3.884-27.375,2-33.351-4.691.113-9.381-3.471-.582-14.663,10.676-17.168,13.706-12.721,3.753-11.952-24.167,4.034-17.29-8.246S647.1,322.514,676.163,337.7Z" transform="translate(-60.551 -48.631)" fill="#d5d5d5"/>
      <path id="Path_20146" data-name="Path 20146" d="M634.552,422.172s2.092-22.562,18.209-49.956,20.489-57.452,17.318-58.343-2.177-3.584-6.877,19.964-16.286,40.669-22.384,56.476S632.92,421.844,634.552,422.172Z" transform="translate(-61.438 -47.467)" fill="#bebebe"/>
      <path id="Path_20147" data-name="Path 20147" d="M379.406,362s29.955,9.072,28.52,31.043-21.634-4.822-23.022,2.214S414.831,411,403.048,425.569c-8.866,10.939-10.151-5.629-14.917-2.542s15.142,36.944,1.876,39.4-17.881-21.1-16.089-29.289-3.921,2.608-9.794,2.064-8.3-12.093-.1-20.217,4.813-18.069-3.2-12.111-18.294,16.286-19.026,2.233S346.721,364.646,379.406,362Z" transform="translate(-43.362 -50.479)" fill="#d5d5d5"/>
      <path id="Path_20148" data-name="Path 20148" d="M390.237,456.108s-10.254-20.217-11.2-51.973S365.761,344.59,362.6,345.528s-3.753-1.876,4.813,20.564,7.9,43.089,11.164,59.713S388.689,456.671,390.237,456.108Z" transform="translate(-44.52 -49.459)" fill="#bebebe"/>
      <path id="Path_20149" data-name="Path 20149" d="M152.921,64.41a28.857,28.857,0,0,0-12.28,17.543c-2.73,12,2.936,13.753,2.936,13.753s3.321-.225,8.049-8.622S152.921,64.41,152.921,64.41Z" transform="translate(-30.877 -32.072)" fill="#d5d5d5"/>
      <path id="Path_20150" data-name="Path 20150" d="M121.96,80a28.857,28.857,0,0,0,3.753,21.09c6.567,10.4,11.811,7.627,11.811,7.627s2.2-2.514-.422-11.793S121.96,80,121.96,80Z" transform="translate(-29.731 -33.036)" fill="#d5d5d5"/>
      <path id="Path_20151" data-name="Path 20151" d="M108.31,103.3a28.848,28.848,0,0,0,11.342,18.172c9.973,7.2,13.8,2.674,13.8,2.674s1.1-3.152-4.785-10.789S108.31,103.3,108.31,103.3Z" transform="translate(-28.924 -34.478)" fill="#d5d5d5"/>
      <path id="Path_20152" data-name="Path 20152" d="M101.16,126.769a28.876,28.876,0,0,0,14.86,15.4c11.258,4.972,14.072-.263,14.072-.263s.413-3.3-6.933-9.55S101.16,126.769,101.16,126.769Z" transform="translate(-28.481 -35.928)" fill="#d5d5d5"/>
      <path id="Path_20153" data-name="Path 20153" d="M168.269,94.559A28.886,28.886,0,0,1,153.512,110.1c-11.211,5.066-14.072-.141-14.072-.141s-.441-3.312,6.858-9.616S168.269,94.559,168.269,94.559Z" transform="translate(-30.849 -33.936)" fill="#d5d5d5"/>
      <path id="Path_20154" data-name="Path 20154" d="M167.735,120.33a28.857,28.857,0,0,1-19.241,9.381c-12.28.844-13.134-5.028-13.134-5.028s.741-3.255,9.775-6.623S167.735,120.33,167.735,120.33Z" transform="translate(-30.597 -35.324)" fill="#d5d5d5"/>
      <path id="Path_20155" data-name="Path 20155" d="M164.177,142.595a28.876,28.876,0,0,1-20.508,6.192c-12.252-1.154-12.149-7.092-12.149-7.092s1.257-3.087,10.714-4.953S164.177,142.595,164.177,142.595Z" transform="translate(-30.359 -36.528)" fill="#d5d5d5"/>
      <path id="Path_20156" data-name="Path 20156" d="M97.46,144.149a28.876,28.876,0,0,0,14.879,15.4c11.258,4.972,14.072-.263,14.072-.263s.413-3.3-6.933-9.55S97.46,144.149,97.46,144.149Z" transform="translate(-28.253 -37.003)" fill="#acc2e5"/>
      <path id="Path_20157" data-name="Path 20157" d="M90.61,161.869a28.867,28.867,0,0,0,14.888,15.4c11.258,4.972,14.072-.263,14.072-.263s.413-3.3-6.924-9.55S90.61,161.869,90.61,161.869Z" transform="translate(-27.829 -38.099)" fill="#acc2e5"/>
      <path id="Path_20158" data-name="Path 20158" d="M160.738,160.595a28.876,28.876,0,0,1-20.508,6.192c-12.252-1.154-12.14-7.092-12.14-7.092s1.248-3.087,10.7-4.953S160.738,160.595,160.738,160.595Z" transform="translate(-30.147 -37.641)" fill="#d5d5d5"/>
      <path id="Path_20159" data-name="Path 20159" d="M155.534,179.225a28.9,28.9,0,0,1-20.508,6.182c-12.252-1.154-12.2-7.092-12.2-7.092s1.257-3.087,10.714-4.944S155.534,179.225,155.534,179.225Z" transform="translate(-29.822 -38.794)" fill="#acc2e5"/>
      <path id="Path_20160" data-name="Path 20160" d="M148.908,74.58s-4.841,6.3-13.387,37.451-8.443,38.689-13.228,53.831-14.569,14.626-13.537,16.54,4.447,7.505,10.019,1.407,10.958-32.038,14.673-54.2S147.163,78.6,148.908,74.58Z" transform="translate(-28.947 -32.701)" fill="#bebebe"/>
      <path id="Path_20161" data-name="Path 20161" d="M250.733,460.2a33.9,33.9,0,0,0,.075-25.189c-5.432-13.425-12.083-11.314-12.083-11.314s-3.058,2.458-1.97,13.744S250.733,460.2,250.733,460.2Z" transform="translate(-36.854 -54.287)" fill="#d5d5d5"/>
      <path id="Path_20162" data-name="Path 20162" d="M269.6,424.929A33.98,33.98,0,0,0,251.779,407.1c-13.34-5.629-16.54.572-16.54.572s-.422,3.9,8.34,11.108S269.6,424.929,269.6,424.929Z" transform="translate(-36.774 -53.123)" fill="#d5d5d5"/>
      <path id="Path_20163" data-name="Path 20163" d="M266.916,393.855a33.9,33.9,0,0,0-23.153-9.926c-14.476-.263-15.132,6.689-15.132,6.689s1.06,3.753,11.868,7.2S266.916,393.855,266.916,393.855Z" transform="translate(-36.366 -51.835)" fill="#d5d5d5"/>
      <path id="Path_20164" data-name="Path 20164" d="M258.056,366.64a33.942,33.942,0,0,0-24.72-4.878c-14.213,2.814-13.4,9.7-13.4,9.7s1.82,3.471,13.134,4.569S258.056,366.64,258.056,366.64Z" transform="translate(-35.828 -50.428)" fill="#d5d5d5"/>
      <path id="Path_20165" data-name="Path 20165" d="M215.531,442.231a33.97,33.97,0,0,1,3.753-24.908c7.43-12.43,13.678-9.316,13.678-9.316s2.646,2.889-.159,13.885S215.531,442.231,215.531,442.231Z" transform="translate(-35.5 -53.303)" fill="#d5d5d5"/>
      <path id="Path_20166" data-name="Path 20166" d="M198.41,417.4a33.98,33.98,0,0,1,12.243-22.018c11.258-9.062,16.061-3.968,16.061-3.968s1.473,3.631-4.982,12.956S198.41,417.4,198.41,417.4Z" transform="translate(-34.497 -52.21)" fill="#d5d5d5"/>
      <path id="Path_20167" data-name="Path 20167" d="M186.77,393.673a33.961,33.961,0,0,1,15.648-19.757c12.6-7.121,16.493-1.323,16.493-1.323s.863,3.828-7.017,11.98S186.77,393.673,186.77,393.673Z" transform="translate(-33.777 -50.996)" fill="#d5d5d5"/>
      <path id="Path_20168" data-name="Path 20168" d="M249.946,347.41a33.942,33.942,0,0,0-24.72-4.878c-14.2,2.768-13.4,9.7-13.4,9.7s1.82,3.471,13.134,4.569S249.946,347.41,249.946,347.41Z" transform="translate(-35.326 -49.239)" fill="#d5d5d5"/>
      <path id="Path_20169" data-name="Path 20169" d="M244.646,325.7a33.942,33.942,0,0,0-24.72-4.878c-14.213,2.768-13.4,9.7-13.4,9.7s1.82,3.471,13.134,4.569S244.646,325.7,244.646,325.7Z" transform="translate(-34.998 -47.896)" fill="#acc2e5"/>
      <path id="Path_20170" data-name="Path 20170" d="M177.94,373.9a33.942,33.942,0,0,1,15.639-19.757c12.609-7.111,16.493-1.313,16.493-1.313s.863,3.818-7.008,11.98S177.94,373.9,177.94,373.9Z" transform="translate(-33.231 -49.774)" fill="#d5d5d5"/>
      <path id="Path_20171" data-name="Path 20171" d="M170.47,352.464a33.942,33.942,0,0,1,15.639-19.757c12.609-7.121,16.493-1.313,16.493-1.313s.863,3.818-7.008,11.98S170.47,352.464,170.47,352.464Z" transform="translate(-32.768 -48.448)" fill="#d5d5d5"/>
      <path id="Path_20172" data-name="Path 20172" d="M244.072,442.565s.432-9.381-12.2-45.162-17.872-43-23.454-60.867,4.231-23.9,1.951-25.058-9.316-4.25-10.61,5.376,10.948,38.286,22.253,62.19S243.031,437.508,244.072,442.565Z" transform="translate(-34.575 -47.267)" fill="#bebebe"/>
      <path id="Path_20173" data-name="Path 20173" d="M495.353,29.94a33.952,33.952,0,0,0-18.472,17.14c-6.107,13.134,0,16.549,0,16.549s3.875.553,11.389-7.937S495.353,29.94,495.353,29.94Z" transform="translate(-51.553 -29.94)" fill="#d5d5d5"/>
      <path id="Path_20174" data-name="Path 20174" d="M456.2,40a33.98,33.98,0,0,0-.938,25.189c4.972,13.594,11.7,11.7,11.7,11.7s3.133-2.355,2.43-13.669S456.2,40,456.2,40Z" transform="translate(-50.261 -30.562)" fill="#d5d5d5"/>
      <path id="Path_20175" data-name="Path 20175" d="M434.829,63.42a33.924,33.924,0,0,0,8.547,23.7c9.691,10.761,15.217,6.5,15.217,6.5s2.036-3.349-2.814-13.594S434.829,63.42,434.829,63.42Z" transform="translate(-49.119 -32.011)" fill="#d5d5d5"/>
      <path id="Path_20176" data-name="Path 20176" d="M420.8,88.64a33.961,33.961,0,0,0,13.322,21.4c11.717,8.5,16.239,3.18,16.239,3.18s1.295-3.753-5.629-12.693S420.8,88.64,420.8,88.64Z" transform="translate(-48.252 -33.571)" fill="#d5d5d5"/>
      <path id="Path_20177" data-name="Path 20177" d="M505.7,68.565a33.942,33.942,0,0,1-20.761,14.213c-14.157,3.058-16.146-3.64-16.146-3.64s.319-3.9,10.263-9.381S505.7,68.565,505.7,68.565Z" transform="translate(-51.22 -32.23)" fill="#d5d5d5"/>
      <path id="Path_20178" data-name="Path 20178" d="M498.834,97.941a33.989,33.989,0,0,1-24.457,6.107c-14.326-2.073-13.856-9.044-13.856-9.044s1.651-3.556,12.871-5.2S498.834,97.941,498.834,97.941Z" transform="translate(-50.709 -33.631)" fill="#d5d5d5"/>
      <path id="Path_20179" data-name="Path 20179" d="M489.288,122.577a34,34,0,0,1-25.1,2.045c-13.81-4.362-12.2-11.164-12.2-11.164s2.214-3.237,13.547-3.049S489.288,122.577,489.288,122.577Z" transform="translate(-50.178 -34.917)" fill="#d5d5d5"/>
      <path id="Path_20180" data-name="Path 20180" d="M412.25,107.72a33.914,33.914,0,0,0,13.3,21.4c11.717,8.5,16.23,3.18,16.23,3.18s1.295-3.706-5.629-12.7S412.25,107.72,412.25,107.72Z" transform="translate(-47.723 -34.751)" fill="#acc2e5"/>
      <path id="Path_20181" data-name="Path 20181" d="M400,126.4a33.971,33.971,0,0,0,13.3,21.409c11.717,8.5,16.239,3.171,16.239,3.171s1.295-3.7-5.629-12.693S400,126.4,400,126.4Z" transform="translate(-46.966 -35.906)" fill="#acc2e5"/>
      <path id="Path_20182" data-name="Path 20182" d="M480.856,142.518a33.933,33.933,0,0,1-25.114,2.045c-13.8-4.362-12.2-11.155-12.2-11.155s2.2-3.246,13.547-3.049S480.856,142.518,480.856,142.518Z" transform="translate(-49.655 -36.151)" fill="#acc2e5"/>
      <path id="Path_20183" data-name="Path 20183" d="M470.278,162.618a34,34,0,0,1-25.086,2.045C431.383,160.3,433,153.5,433,153.5s2.2-3.237,13.537-3.04S470.278,162.618,470.278,162.618Z" transform="translate(-49.003 -37.394)" fill="#d5d5d5"/>
      <path id="Path_20184" data-name="Path 20184" d="M486.873,41.09s-7.121,6.051-24.664,39.759-19.241,42.414-28.51,58.662S413.332,152.73,414,155.187s3.255,9.71,11.164,4.09,20.536-34.13,30.293-58.709S483.871,45.284,486.873,41.09Z" transform="translate(-47.83 -30.63)" fill="#bebebe"/>
      <path id="Path_20185" data-name="Path 20185" d="M705.943,67.07a28.783,28.783,0,0,0-11.08,18.256c-1.942,12.121,3.809,13.5,3.809,13.5s3.293-.441,7.458-9.109S705.943,67.07,705.943,67.07Z" transform="translate(-65.179 -32.237)" fill="#d5d5d5"/>
      <path id="Path_20186" data-name="Path 20186" d="M676.112,84.61a28.736,28.736,0,0,0,5.094,20.733c7.214,9.935,12.252,6.83,12.252,6.83s2.008-2.646-1.191-11.708S676.112,84.61,676.112,84.61Z" transform="translate(-64.026 -33.321)" fill="#d5d5d5"/>
      <path id="Path_20187" data-name="Path 20187" d="M664,108.72a28.783,28.783,0,0,0,12.459,17.337c10.395,6.567,13.913,1.773,13.913,1.773s.882-3.2-5.46-10.423S664,108.72,664,108.72Z" transform="translate(-63.295 -34.813)" fill="#d5d5d5"/>
      <path id="Path_20188" data-name="Path 20188" d="M658.39,132.517A28.764,28.764,0,0,0,674.2,146.88c11.521,4.222,13.969-1.173,13.969-1.173s.2-3.312-7.505-9.044S658.39,132.517,658.39,132.517Z" transform="translate(-62.948 -36.272)" fill="#d5d5d5"/>
      <path id="Path_20189" data-name="Path 20189" d="M723.175,96a28.773,28.773,0,0,1-13.669,16.418c-10.826,5.76-14,.769-14,.769s-.657-3.265,6.192-10.01S723.175,96,723.175,96Z" transform="translate(-65.242 -34.026)" fill="#d5d5d5"/>
      <path id="Path_20190" data-name="Path 20190" d="M724.245,121.737a28.792,28.792,0,0,1-18.528,10.62c-12.2,1.632-13.4-4.156-13.4-4.156s.525-3.274,9.288-7.214S724.245,121.737,724.245,121.737Z" transform="translate(-65.046 -35.474)" fill="#d5d5d5"/>
      <path id="Path_20191" data-name="Path 20191" d="M722.134,144.085a28.782,28.782,0,0,1-20,7.505c-12.271-.356-12.543-6.267-12.543-6.267s1.041-3.152,10.32-5.629S722.134,144.085,722.134,144.085Z" transform="translate(-64.877 -36.695)" fill="#d5d5d5"/>
      <path id="Path_20192" data-name="Path 20192" d="M655.84,150.057a28.764,28.764,0,0,0,15.8,14.363c11.53,4.212,13.978-1.173,13.978-1.173s.2-3.321-7.505-9.053S655.84,150.057,655.84,150.057Z" transform="translate(-62.79 -37.357)" fill="#acc2e5"/>
      <path id="Path_20193" data-name="Path 20193" d="M650.18,168.127a28.764,28.764,0,0,0,15.78,14.363c11.53,4.212,13.979-1.173,13.979-1.173s.2-3.312-7.505-9.044S650.18,168.127,650.18,168.127Z" transform="translate(-62.44 -38.475)" fill="#acc2e5"/>
      <path id="Path_20194" data-name="Path 20194" d="M719.854,162.3a28.754,28.754,0,0,1-20,7.505c-12.262-.357-12.543-6.267-12.543-6.267s1.051-3.152,10.32-5.629S719.854,162.3,719.854,162.3Z" transform="translate(-64.736 -37.822)" fill="#d5d5d5"/>
      <path id="Path_20195" data-name="Path 20195" d="M715.914,181.135a28.754,28.754,0,0,1-20,7.505c-12.262-.357-12.543-6.267-12.543-6.267s1.051-3.152,10.32-5.629S715.914,181.135,715.914,181.135Z" transform="translate(-64.493 -38.987)" fill="#d5d5d5"/>
      <path id="Path_20196" data-name="Path 20196" d="M702.97,77.34s-4.4,6.567-10.892,38.136-5.854,39.036-9.672,54.413-13.538,15.5-12.412,17.337,4.9,7.158,10.048.741,8.828-32.582,11.089-54.872S701.5,81.458,702.97,77.34Z" transform="translate(-63.66 -32.872)" fill="#bebebe"/>
      <path id="Path_20197" data-name="Path 20197" d="M266.535,33a34,34,0,0,0,1.445,25.161c6.22,13.068,12.74,10.554,12.74,10.554s2.9-2.627,1.145-13.828S266.535,33,266.535,33Z" transform="translate(-38.602 -30.129)" fill="#d5d5d5"/>
      <path id="Path_20198" data-name="Path 20198" d="M248.67,70.46A33.942,33.942,0,0,0,267.5,87.206c13.65,4.822,16.474-1.567,16.474-1.567s.188-3.912-8.987-10.582S248.67,70.46,248.67,70.46Z" transform="translate(-37.605 -32.427)" fill="#d5d5d5"/>
      <path id="Path_20199" data-name="Path 20199" d="M253,101.6a33.924,33.924,0,0,0,23.716,8.518c14.466-.582,14.748-7.58,14.748-7.58s-1.285-3.7-12.28-6.464S253,101.6,253,101.6Z" transform="translate(-37.873 -33.996)" fill="#d5d5d5"/>
      <path id="Path_20200" data-name="Path 20200" d="M263.5,128.2a33.989,33.989,0,0,0,24.974,3.387c14.016-3.621,12.8-10.5,12.8-10.5s-2.026-3.349-13.359-3.753S263.5,128.2,263.5,128.2Z" transform="translate(-38.523 -35.345)" fill="#d5d5d5"/>
      <path id="Path_20201" data-name="Path 20201" d="M302.645,48.89a33.97,33.97,0,0,1-2.3,25.086C293.676,86.829,287.213,84.1,287.213,84.1s-2.814-2.73-.675-13.866S302.645,48.89,302.645,48.89Z" transform="translate(-39.898 -31.112)" fill="#d5d5d5"/>
      <path id="Path_20202" data-name="Path 20202" d="M320.646,73.11a33.933,33.933,0,0,1-10.892,22.713c-10.732,9.729-15.8,4.925-15.8,4.925s-1.689-3.537,4.194-13.228S320.646,73.11,320.646,73.11Z" transform="translate(-40.393 -32.61)" fill="#d5d5d5"/>
      <path id="Path_20203" data-name="Path 20203" d="M333.445,96.37a33.961,33.961,0,0,1-14.429,20.639c-12.2,7.862-16.38,2.3-16.38,2.3s-1.1-3.753,6.276-12.374S333.445,96.37,333.445,96.37Z" transform="translate(-40.94 -34.049)" fill="#acc2e5"/>
      <path id="Path_20204" data-name="Path 20204" d="M272.76,146.953a33.923,33.923,0,0,0,24.964,3.377c14.016-3.612,12.8-10.489,12.8-10.489s-2.026-3.349-13.359-3.753S272.76,146.953,272.76,146.953Z" transform="translate(-39.095 -36.505)" fill="#d5d5d5"/>
      <path id="Path_20205" data-name="Path 20205" d="M279.35,168.285a33.97,33.97,0,0,0,25,3.405c14.016-3.621,12.787-10.488,12.787-10.488s-2.026-3.359-13.359-3.753S279.35,168.285,279.35,168.285Z" transform="translate(-39.503 -37.826)" fill="#d5d5d5"/>
      <path id="Path_20206" data-name="Path 20206" d="M343.445,115.57a33.914,33.914,0,0,1-14.419,20.639c-12.2,7.862-16.389,2.308-16.389,2.308s-1.088-3.753,6.286-12.374S343.445,115.57,343.445,115.57Z" transform="translate(-41.558 -35.236)" fill="#acc2e5"/>
      <path id="Path_20207" data-name="Path 20207" d="M352.195,136.54a33.951,33.951,0,0,1-14.429,20.639c-12.2,7.862-16.38,2.308-16.38,2.308s-1.1-3.753,6.276-12.384S352.195,136.54,352.195,136.54Z" transform="translate(-42.099 -36.534)" fill="#acc2e5"/>
      <path id="Path_20208" data-name="Path 20208" d="M272,44s.122,9.381,14.926,44.356,20.423,41.851,27.019,59.347-2.814,24.12-.45,25.133,9.56,3.678,10.273-6-13.218-37.526-25.94-60.745S273.342,48.982,272,44Z" transform="translate(-39.048 -30.81)" fill="#bebebe"/>
      <path id="Path_20209" data-name="Path 20209" d="M570.087,449.026a33.923,33.923,0,0,0,.422-25.189c-5.244-13.5-11.933-11.474-11.933-11.474s-3.086,2.411-2.158,13.716S570.087,449.026,570.087,449.026Z" transform="translate(-56.63 -53.587)" fill="#d5d5d5"/>
      <path id="Path_20210" data-name="Path 20210" d="M589.4,414.023a33.951,33.951,0,0,0-17.553-18.087c-13.256-5.817-16.54.347-16.54.347s-.469,3.893,8.181,11.258S589.4,414.023,589.4,414.023Z" transform="translate(-56.571 -52.423)" fill="#d5d5d5"/>
      <path id="Path_20211" data-name="Path 20211" d="M587.129,382.914a33.923,33.923,0,0,0-23.022-10.235c-14.466-.46-15.217,6.483-15.217,6.483s1,3.753,11.764,7.355S587.129,382.914,587.129,382.914Z" transform="translate(-56.175 -51.138)" fill="#d5d5d5"/>
      <path id="Path_20212" data-name="Path 20212" d="M578.642,355.623a33.97,33.97,0,0,0-24.654-5.216c-14.251,2.58-13.528,9.522-13.528,9.522s1.773,3.49,13.04,4.691S578.642,355.623,578.642,355.623Z" transform="translate(-55.653 -49.731)" fill="#d5d5d5"/>
      <path id="Path_20213" data-name="Path 20213" d="M535.068,430.6a33.961,33.961,0,0,1,4.147-24.861c7.59-12.318,13.8-9.119,13.8-9.119s2.6,2.927-.357,13.875S535.068,430.6,535.068,430.6Z" transform="translate(-55.272 -52.597)" fill="#d5d5d5"/>
      <path id="Path_20214" data-name="Path 20214" d="M518.29,405.542a33.952,33.952,0,0,1,12.543-21.887c11.417-8.9,16.117-3.753,16.117-3.753s1.417,3.649-5.16,12.89S518.29,405.542,518.29,405.542Z" transform="translate(-54.282 -51.494)" fill="#d5d5d5"/>
      <path id="Path_20215" data-name="Path 20215" d="M507,381.648a33.98,33.98,0,0,1,15.948-19.542c12.7-6.942,16.511-1.088,16.511-1.088s.807,3.837-7.177,11.886S507,381.648,507,381.648Z" transform="translate(-53.584 -50.275)" fill="#d5d5d5"/>
      <path id="Path_20216" data-name="Path 20216" d="M570.79,336.253a33.951,33.951,0,0,0-24.683-5.216c-14.25,2.58-13.537,9.522-13.537,9.522s1.782,3.49,13.05,4.691S570.79,336.253,570.79,336.253Z" transform="translate(-55.165 -48.532)" fill="#acc2e5"/>
      <path id="Path_20217" data-name="Path 20217" d="M565.79,314.473a33.97,33.97,0,0,0-24.683-5.216c-14.241,2.58-13.528,9.522-13.528,9.522s1.773,3.49,13.05,4.738S565.79,314.473,565.79,314.473Z" transform="translate(-54.856 -47.185)" fill="#acc2e5"/>
      <path id="Path_20218" data-name="Path 20218" d="M498.42,361.768a33.961,33.961,0,0,1,15.949-19.542c12.7-6.942,16.5-1.088,16.5-1.088s.816,3.828-7.177,11.877S498.42,361.768,498.42,361.768Z" transform="translate(-53.053 -49.046)" fill="#d5d5d5"/>
      <path id="Path_20219" data-name="Path 20219" d="M491.24,340.218a33.961,33.961,0,0,1,15.949-19.542c12.7-6.942,16.511-1.088,16.511-1.088s.807,3.828-7.177,11.877S491.24,340.218,491.24,340.218Z" transform="translate(-52.609 -47.713)" fill="#acc2e5"/>
      <path id="Path_20220" data-name="Path 20220" d="M563.606,431.31s.554-9.335-11.624-45.331-17.29-43.239-22.544-61.177,4.559-23.848,2.289-25.039-9.26-4.372-10.685,5.235,10.423,38.464,21.4,62.49S562.649,426.235,563.606,431.31Z" transform="translate(-54.445 -46.538)" fill="#bebebe"/>
      <path id="Path_20221" data-name="Path 20221" d="M223.059,113.614H187.25V80.16h35.809ZM191,109.862h28.3V83.913H191Z" transform="translate(-33.806 -33.046)" fill="#d5d5d5"/>
      <path id="Path_20222" data-name="Path 20222" d="M184.981,75.477,174.84,64.539l2.758-2.552,7.683,8.293,26.54-22.75,2.439,2.852Z" transform="translate(-10.814 -2.94)" fill="#d5d5d5"/>
      <path id="Path_20223" data-name="Path 20223" d="M474.059,428.614H438.25V395.16h35.809ZM442,424.862h28.3V398.913H442Z" transform="translate(-49.331 -52.53)" fill="#bebebe"/>
      <path id="Path_20224" data-name="Path 20224" d="M435.981,390.477,425.84,379.539l2.758-2.552,7.683,8.293,26.54-22.75,2.439,2.852Z" transform="translate(-26.339 -22.423)" fill="#bebebe"/>
      <path id="Path_20225" data-name="Path 20225" d="M650.547,96.719H624.56V72.44h25.987ZM627.29,94h20.536V75.161H627.29Z" transform="translate(-60.855 -32.569)" fill="#bebebe"/>
      <path id="Path_20226" data-name="Path 20226" d="M616.415,60.833,609.06,52.9l2-1.858,5.573,6.023,19.26-16.511,1.773,2.073Z" transform="translate(-37.672 -2.508)" fill="#d5d5d5"/>
      <path id="Path_20227" data-name="Path 20227" d="M164.238,417.474H139.48V394.33h24.758Zm-22.168-2.589h19.57V396.929h-19.57Z" transform="translate(-30.852 -52.478)" fill="#bebebe"/>
      <path id="Path_20228" data-name="Path 20228" d="M130.6,381.856l-7.017-7.561,1.9-1.764,5.319,5.732,18.35-15.733,1.689,1.97Z" transform="translate(-7.644 -22.423)" fill="#bebebe"/>
      <rect id="Rectangle_10728" data-name="Rectangle 10728" width="109.107" height="189.009" transform="translate(137.955 107.005)" fill="#777"/>
      <rect id="Rectangle_10729" data-name="Rectangle 10729" width="109.107" height="189.009" transform="translate(134.202 102.314)" fill="#fff"/>
      <rect id="Rectangle_10730" data-name="Rectangle 10730" width="66.89" height="8.021" transform="translate(143.64 230.221)" fill="#d5d5d5"/>
      <rect id="Rectangle_10731" data-name="Rectangle 10731" width="90.597" height="8.021" transform="translate(143.64 248.243)" fill="#f1f2f2"/>
      <rect id="Rectangle_10732" data-name="Rectangle 10732" width="90.597" height="8.021" transform="translate(143.64 261.48)" fill="#f1f2f2"/>
      <rect id="Rectangle_10733" data-name="Rectangle 10733" width="90.597" height="8.021" transform="translate(143.64 274.718)" fill="#f1f2f2"/>
      <rect id="Rectangle_10734" data-name="Rectangle 10734" width="42.507" height="8.021" transform="translate(159.598 110.598)" fill="#d5d5d5"/>
      <circle id="Ellipse_1677" data-name="Ellipse 1677" cx="5.132" cy="5.132" r="5.132" transform="translate(143.649 109.641)" fill="#d5d5d5"/>
      <rect id="Rectangle_10735" data-name="Rectangle 10735" width="90.588" height="96.01" transform="translate(143.64 124.905)" fill="#acc2e5"/>
      <path id="Path_20229" data-name="Path 20229" d="M241.614,185.364s7.758,22.619,6.492,35.021-43.736,8.021-43.736,8.021l3.912-33.332,12.824-12.993Z" transform="translate(-34.865 -39.35)" fill="#1b2035"/>
      <path id="Path_20230" data-name="Path 20230" d="M218.038,224.086s-.422,8.443,0,10.845c1.464,8.246,14.279,2.965,13.838.507-.141-.779-.722-7.787-.835-8.668l-.469-3.649Z" transform="translate(-35.699 -41.889)" fill="#f7b6a4"/>
      <path id="Path_20231" data-name="Path 20231" d="M217.989,225.376l-.159,5.77s9.213.056,13.134-5.057l-.328-2.439Z" transform="translate(-35.698 -41.921)" fill="#e59780"/>
      <path id="Path_20232" data-name="Path 20232" d="M220.025,223.486a16.755,16.755,0,0,0,12.008-3.368c5.629-4.447,5.516-8.687,6.257-8.246.938.535,2.542.347,3.987-4.85,1.295-4.634.2-6.211-.854-6.454a1.989,1.989,0,0,0-1.426.45s2.871-22.872-14.588-24.467c-21.727-1.989-20.742,17.9-19.879,24.467,0,0-2.036-2.43-3.049.826s.938,10.179,3.359,10.4c.216,0,1.313-.441,1.36-.375C208.12,213.054,210.512,221.1,220.025,223.486Z" transform="translate(-34.732 -39)" fill="#f7b6a4"/>
      <path id="Path_20233" data-name="Path 20233" d="M205.526,206.877a1.782,1.782,0,0,0-.319,1.933c.516,1.088,0,1.36-.629.788s-1.1-3.753-.525-4.428S205.638,206.155,205.526,206.877Z" transform="translate(-34.83 -40.769)" fill="#ff8d8d"/>
      <path id="Path_20234" data-name="Path 20234" d="M242.8,206.459a1.792,1.792,0,0,1,.056,1.961c-.657,1.013-.15,1.351.516.863s1.595-3.574,1.116-4.306S242.785,205.727,242.8,206.459Z" transform="translate(-37.227 -40.754)" fill="#ff8d8d"/>
      <path id="Path_20235" data-name="Path 20235" d="M223.593,219.252h-.066A2.936,2.936,0,0,1,220.995,218a.5.5,0,0,1,.281-.751h0a.5.5,0,0,1,.553.206,1.989,1.989,0,0,0,1.717.788,2.815,2.815,0,0,0,2.148-.938.478.478,0,0,1,.61-.075h0a.5.5,0,0,1,.122.76,3.809,3.809,0,0,1-2.833,1.257Z" transform="translate(-35.889 -41.52)" fill="#e38480"/>
      <path id="Path_20236" data-name="Path 20236" d="M231.809,200.86s2.533-.113,2.73,1.285-.994-.178-2.993.188c-.882.169-1.276.075-1.276-.46C230.279,200.916,231.668,200.869,231.809,200.86Z" transform="translate(-36.467 -40.512)" fill="#1b2035"/>
      <ellipse id="Ellipse_1678" data-name="Ellipse 1678" cx="2.233" cy="1.82" rx="2.233" ry="1.82" transform="translate(193.309 167.78) rotate(-85.57)" fill="#1b2035"/>
      <path id="Path_20237" data-name="Path 20237" d="M232.81,205.034s1.088-.7.938-1.041.807.113.375.563S233.045,205.418,232.81,205.034Z" transform="translate(-36.624 -40.698)" fill="#1b2035"/>
      <path id="Path_20238" data-name="Path 20238" d="M233.26,205.214s1.22-.319,1.229-.732.6.422,0,.713S233.26,205.693,233.26,205.214Z" transform="translate(-36.652 -40.729)" fill="#1b2035"/>
      <path id="Path_20239" data-name="Path 20239" d="M233.559,205.7s1.191,0,1.342-.441.385.582-.216.741S233.408,206.192,233.559,205.7Z" transform="translate(-36.669 -40.777)" fill="#1b2035"/>
      <path id="Path_20240" data-name="Path 20240" d="M217.359,200.86s-2.533-.113-2.73,1.285.994-.178,2.993.188c.938.169,1.276.075,1.276-.46C218.888,200.916,217.5,200.869,217.359,200.86Z" transform="translate(-35.499 -40.512)" fill="#1b2035"/>
      <ellipse id="Ellipse_1679" data-name="Ellipse 1679" cx="1.82" cy="2.233" rx="1.82" ry="2.233" transform="matrix(1, -0.009, 0.009, 1, 179.452, 163.228)" fill="#1b2035"/>
      <path id="Path_20241" data-name="Path 20241" d="M216.046,204.644s-1.088-.7-.938-1.041-.807.113-.375.563S215.811,205.028,216.046,204.644Z" transform="translate(-35.499 -40.674)" fill="#1b2035"/>
      <path id="Path_20242" data-name="Path 20242" d="M215.591,204.824s-1.22-.319-1.229-.732-.6.422,0,.713S215.591,205.3,215.591,204.824Z" transform="translate(-35.467 -40.705)" fill="#1b2035"/>
      <path id="Path_20243" data-name="Path 20243" d="M215.281,205.314s-1.182,0-1.332-.441-.385.582.216.741S215.44,205.8,215.281,205.314Z" transform="translate(-35.447 -40.753)" fill="#1b2035"/>
      <path id="Path_20244" data-name="Path 20244" d="M223.472,206.019s.563,3.077-1.079,4.5-1.295,2.955,1.032,3.068,1.876-.938,1.557-.938-1.482.563-2.364.084.854-1.876,1.257-2.965.7-3.255.253-4.025S223.434,205.7,223.472,206.019Z" transform="translate(-35.917 -40.793)" fill="#e38480"/>
      <path id="Path_20245" data-name="Path 20245" d="M233.029,185.923s-3.452,7.214-14.466,9.381-11.136,23.538-7.852,31.766c0,0-6.323,2.27-11.258-.507s-6.332-24.936.253-37.085,12.271-14.682,21.136-15.949S234.887,179.178,233.029,185.923Z" transform="translate(-34.301 -38.812)" fill="#1b2035"/>
      <path id="Path_20246" data-name="Path 20246" d="M242.251,183.2c-3.424-5.563-14.307-8.443-13.922,4.982,0,0,2.955,7.505,9.541,10.742l1.173,10.6s1.079-3.9,2.608-8.443C241.651,201.122,245.666,188.776,242.251,183.2Z" transform="translate(-36.347 -39.132)" fill="#1b2035"/>
      <path id="Path_20247" data-name="Path 20247" d="M259.176,263.249c-.216-2.533-1.942-19.87-9.3-23.885-7.937-4.325-16.483-5.985-20.452-7.824,0,0-1.154.469-6.914,3.415-5.225-3.753-6.7-3.321-6.7-3.321-3.968,1.876-12.627,3.875-20.564,8.2-7,3.818-8.894,19.7-9.25,23.454Z" transform="translate(-33.729 -42.409)" fill="#e06b58"/>
      <path id="Path_20248" data-name="Path 20248" d="M216.72,230.46a35.715,35.715,0,0,0-3.931,2.655c-.76.76-.563,5.451,5.319,5.451,6.426,0,6.961-5.488,6.961-5.488Z" transform="translate(-35.366 -42.343)" fill="#fff"/>
      <path id="Path_20249" data-name="Path 20249" d="M232.767,230.37s3.133,2.148,3.893,2.908.6,5.4-5.282,5.4c-6.426,0-7-5.441-7-5.441Z" transform="translate(-36.103 -42.337)" fill="#fff"/>
      <rect id="Rectangle_10736" data-name="Rectangle 10736" width="150.272" height="260.317" transform="translate(256.33 67.95)" fill="#777"/>
      <rect id="Rectangle_10737" data-name="Rectangle 10737" width="150.272" height="260.317" transform="translate(252.578 63.259)" fill="#fff"/>
      <rect id="Rectangle_10738" data-name="Rectangle 10738" width="92.126" height="11.042" transform="translate(265.571 239.425)" fill="#d5d5d5"/>
      <rect id="Rectangle_10739" data-name="Rectangle 10739" width="124.774" height="11.042" transform="translate(265.562 264.248)" fill="#f1f2f2"/>
      <rect id="Rectangle_10740" data-name="Rectangle 10740" width="124.774" height="11.042" transform="translate(265.562 282.476)" fill="#f1f2f2"/>
      <rect id="Rectangle_10741" data-name="Rectangle 10741" width="124.774" height="11.042" transform="translate(265.562 300.704)" fill="#f1f2f2"/>
      <rect id="Rectangle_10742" data-name="Rectangle 10742" width="58.55" height="11.042" transform="translate(287.542 74.667)" fill="#d5d5d5"/>
      <circle id="Ellipse_1680" data-name="Ellipse 1680" cx="7.074" cy="7.074" r="7.074" transform="translate(265.571 73.344)" fill="#dce8ff"/>
      <rect id="Rectangle_10743" data-name="Rectangle 10743" width="124.774" height="132.232" transform="translate(265.571 94.368)" fill="#acc2e5"/>
      <path id="Path_20250" data-name="Path 20250" d="M363.421,213.445s-.657,12.374,0,15.873c2.261,12.065,22.028,4.334,21.352.741-.225-1.145-1.126-11.4-1.295-12.684L382.709,212Z" transform="translate(-44.685 -41.201)" fill="#f7b6a4"/>
      <path id="Path_20251" data-name="Path 20251" d="M363.345,214.1l-.385,8.978s14.851.938,20.32-6.7l-.46-3.574Z" transform="translate(-44.674 -41.251)" fill="#e59780"/>
      <path id="Path_20252" data-name="Path 20252" d="M368.116,212.952a23.05,23.05,0,0,0,16.586-4.691c7.787-6.117,7.59-11.961,8.622-11.361,1.276.751,3.5.488,5.5-6.67,1.773-6.379.263-8.556-1.191-8.894a2.7,2.7,0,0,0-1.961.629s3.959-31.512-20.086-33.708c-29.927-2.739-28.576,24.655-27.385,33.7,0,0-2.814-3.349-4.194,1.145s1.295,14.007,4.625,14.326c.291,0,1.811-.61,1.876-.525C351.708,198.58,355.01,209.668,368.116,212.952Z" transform="translate(-43.479 -37.246)" fill="#f7b6a4"/>
      <path id="Path_20253" data-name="Path 20253" d="M348.134,190.091a2.449,2.449,0,0,0-.432,2.664c.7,1.5-.047,1.876-.872,1.079s-1.5-5.179-.722-6.089S348.3,189.088,348.134,190.091Z" transform="translate(-43.611 -39.688)" fill="#e38480"/>
      <path id="Path_20254" data-name="Path 20254" d="M399.486,189.507a2.458,2.458,0,0,1,.066,2.7c-.938,1.388-.206,1.876.713,1.191s2.2-4.935,1.548-5.938S399.457,188.494,399.486,189.507Z" transform="translate(-46.911 -39.666)" fill="#e38480"/>
      <ellipse id="Ellipse_1681" data-name="Ellipse 1681" cx="2.505" cy="3.077" rx="2.505" ry="3.077" transform="matrix(1, -0.009, 0.009, 1, 316.452, 146.543)" fill="#3d0b27"/>
      <path id="Path_20255" data-name="Path 20255" d="M363.961,181.33s-3.481-.15-3.753,1.773,1.37-.244,4.118.263c1.22.235,1.764.1,1.754-.638C366.071,181.414,364.158,181.349,363.961,181.33Z" transform="translate(-44.502 -39.304)" fill="#3d0b27"/>
      <path id="Path_20256" data-name="Path 20256" d="M383.861,181.12s3.49-.15,3.753,1.773-1.37-.244-4.109.263c-1.229.235-1.764.1-1.754-.638C381.712,181.2,383.617,181.139,383.861,181.12Z" transform="translate(-45.837 -39.291)" fill="#3d0b27"/>
      <ellipse id="Ellipse_1682" data-name="Ellipse 1682" cx="3.077" cy="2.505" rx="3.077" ry="2.505" transform="translate(335.56 152.307) rotate(-85.57)" fill="#3d0b27"/>
      <path id="Path_20257" data-name="Path 20257" d="M373.027,207.262h-.094a4.006,4.006,0,0,1-3.48-1.717.675.675,0,0,1,.385-1.032h0a.675.675,0,0,1,.76.281,2.739,2.739,0,0,0,2.355,1.088,3.893,3.893,0,0,0,2.965-1.267.685.685,0,0,1,.844-.113h0a.694.694,0,0,1,.16,1.051,5.216,5.216,0,0,1-3.893,1.707Z" transform="translate(-45.069 -40.731)" fill="#e38480"/>
      <path id="Path_20258" data-name="Path 20258" d="M373.31,189.688s.788,4.24-1.482,6.2-1.782,4.072,1.417,4.24,2.589-1.257,2.158-1.257-2.177.591-3.4-.075,1.3-2.43,1.876-3.884.938-4.475.357-5.535S373.263,189.256,373.31,189.688Z" transform="translate(-45.136 -39.772)" fill="#e38480"/>
      <path id="Path_20259" data-name="Path 20259" d="M368.053,195.638h-9.766a2.936,2.936,0,0,1-2.936-2.936v-5.385a2.946,2.946,0,0,1,2.936-2.936h9.766a2.936,2.936,0,0,1,2.927,2.936V192.7a2.936,2.936,0,0,1-2.927,2.936Zm-9.766-9.86a1.548,1.548,0,0,0-1.539,1.539V192.7a1.548,1.548,0,0,0,1.539,1.548h9.766a1.548,1.548,0,0,0,1.539-1.548v-5.385a1.548,1.548,0,0,0-1.539-1.539Z" transform="translate(-44.204 -39.493)" fill="#3a0b14"/>
      <path id="Path_20260" data-name="Path 20260" d="M388.763,195.378h-9.757a2.936,2.936,0,0,1-2.936-2.936v-5.385a2.936,2.936,0,0,1,2.936-2.936h9.757a2.936,2.936,0,0,1,2.936,2.936v5.394A2.936,2.936,0,0,1,388.763,195.378Zm-9.757-9.86a1.529,1.529,0,0,0-1.539,1.539v5.394a1.539,1.539,0,0,0,1.539,1.539h9.757a1.539,1.539,0,0,0,1.539-1.539v-5.385a1.529,1.529,0,0,0-1.539-1.539Z" transform="translate(-45.485 -39.476)" fill="#3a0b14"/>
      <rect id="Rectangle_10744" data-name="Rectangle 10744" width="5.404" height="1.398" transform="matrix(1, -0.017, 0.017, 1, 326.089, 149.041)" fill="#3a0b14"/>
      <path id="Path_20261" data-name="Path 20261" d="M348.451,183.233s.8,7.862,2.111,8.65a12.327,12.327,0,0,0,3.284,1.182s-1.182-14.072,0-19.7S344.971,163.185,348.451,183.233Z" transform="translate(-43.732 -38.514)" fill="#3d0b27"/>
      <path id="Path_20262" data-name="Path 20262" d="M398.764,183.385s-.8,7.862-2.111,8.65a12.515,12.515,0,0,1-3.284,1.191s.938-13.931.188-19.7c-.638-4.935,7.721-17.712,7.956-8.134C401.56,167.268,399.309,180.664,398.764,183.385Z" transform="translate(-46.555 -38.104)" fill="#3d0b27"/>
      <path id="Path_20263" data-name="Path 20263" d="M391.732,174.745a2.139,2.139,0,0,1-1.1-1.764c-.094-1.876-.816-5.788-5.282-5.432-5.76.46-12.468,3.124-23.688.413-5.892-1.426-7.758,3.452-8.087,5.8s-5.967,1.464-5.967,1.464-3.143-12.627-1.145-17.825c2.646-6.886,20.414-15.5,29.176-11.914,10.376,4.25,16.211,9.044,20.142,7.561s3.34,18.031,1.041,20.639a4.747,4.747,0,0,1-5.094,1.06Z" transform="translate(-43.613 -37.035)" fill="#3d0b27"/>
      <path id="Path_20264" data-name="Path 20264" d="M414.256,238.621a23.455,23.455,0,0,0-4.691-2.88h0a98.942,98.942,0,0,0-10.076-3.978c-1.379-.591-2.889-1.22-4.644-1.876-4.691-1.876-12.787-7.167-13.866-7.027,0,0-.319,8.359-9.851,9.156-6.5.544-9-2.214-10.413-6.351-.188-.544-.582-2.036-.7-2.646s-8.068,4.409-14.382,6.867c-1.754.675-3.265,1.3-4.691,1.876a99.616,99.616,0,0,0-10.019,3.978h0a23.2,23.2,0,0,0-4.691,2.88c-5.929,5.019-9.025,17.825-11.68,29.871H425.936C423.281,256.445,420.176,243.63,414.256,238.621Z" transform="translate(-41.68 -41.872)" fill="#3a0b14"/>
      <path id="Path_20265" data-name="Path 20265" d="M363,222.84s1.539,9.128,10.986,8.34,10.019-8.34,10.019-8.34l-9.663,33.576-1.979-3.893Z" transform="translate(-44.677 -41.871)" fill="#fff"/>
      <path id="Path_20266" data-name="Path 20266" d="M362.2,222.34,350,226.168l9.466,14.119-9.062.178s22.778,16.033,23.125,15.949S362.2,222.34,362.2,222.34Z" transform="translate(-43.873 -41.84)" fill="#4c1724"/>
      <path id="Path_20267" data-name="Path 20267" d="M384.59,221.58l12.252,3.828-8.837,14.485,6.276,1.041s-18.885,15.517-19.232,15.4S384.59,221.58,384.59,221.58Z" transform="translate(-45.422 -41.793)" fill="#4c1724"/>
      <rect id="Rectangle_10745" data-name="Rectangle 10745" width="109.107" height="189.009" transform="translate(16.268 106.996)" fill="#777"/>
      <rect id="Rectangle_10746" data-name="Rectangle 10746" width="109.107" height="189.009" transform="translate(12.515 102.305)" fill="#fff"/>
      <rect id="Rectangle_10747" data-name="Rectangle 10747" width="90.588" height="96.01" transform="translate(21.944 124.896)" fill="#acc2e5"/>
      <path id="Path_20268" data-name="Path 20268" d="M87.736,223.243s-.478,8.987,0,11.53c1.642,8.762,15.949,3.143,15.5.535-.159-.826-.807-8.274-.938-9.2l-.525-3.884Z" transform="translate(-27.638 -41.833)" fill="#f7b6a4"/>
      <path id="Path_20269" data-name="Path 20269" d="M87.663,224.619l-.263,5.629s10.779.657,14.757-4.86l-.338-2.6Z" transform="translate(-27.63 -41.868)" fill="#e59780"/>
      <path id="Path_20270" data-name="Path 20270" d="M91.148,222.894a16.68,16.68,0,0,0,12.036-3.4c5.629-4.437,5.516-8.678,6.267-8.246.938.544,2.533.347,3.987-4.841,1.295-4.634.188-6.22-.863-6.464a1.98,1.98,0,0,0-1.426.46s2.871-22.881-14.588-24.476c-21.718-2-20.724,17.881-19.879,24.448,0,0-2.026-2.43-3.04.835s.938,10.17,3.359,10.4c.206,0,1.3-.45,1.36-.385C79.233,212.453,81.626,220.5,91.148,222.894Z" transform="translate(-26.762 -38.961)" fill="#f7b6a4"/>
      <path id="Path_20271" data-name="Path 20271" d="M76.636,206.288a1.773,1.773,0,0,0-.31,1.933c.507,1.088,0,1.36-.638.788s-1.088-3.753-.525-4.419S76.758,205.565,76.636,206.288Z" transform="translate(-26.858 -40.733)" fill="#e38480"/>
      <path id="Path_20272" data-name="Path 20272" d="M113.92,205.889a1.792,1.792,0,0,1,0,1.97c-.657,1-.15,1.342.516.863s1.595-3.584,1.126-4.315S113.9,205.129,113.92,205.889Z" transform="translate(-29.252 -40.719)" fill="#e38480"/>
      <ellipse id="Ellipse_1683" data-name="Ellipse 1683" cx="1.82" cy="2.233" rx="1.82" ry="2.233" transform="translate(58.62 162.694) rotate(-0.573)" fill="#1b2035"/>
      <path id="Path_20273" data-name="Path 20273" d="M88.359,199.93s-2.533-.113-2.73,1.285,1-.178,2.993.2c.938.159,1.276.066,1.276-.469C89.888,200,88.5,199.939,88.359,199.93Z" transform="translate(-27.52 -40.454)" fill="#1b2035"/>
      <path id="Path_20274" data-name="Path 20274" d="M102.519,199.93s2.533-.113,2.73,1.285-.994-.178-2.983.2c-.891.159-1.285.066-1.276-.469C101,200,102.378,199.939,102.519,199.93Z" transform="translate(-28.471 -40.454)" fill="#1b2035"/>
      <ellipse id="Ellipse_1684" data-name="Ellipse 1684" cx="2.233" cy="1.82" rx="2.233" ry="1.82" transform="translate(72.327 166.931) rotate(-85.57)" fill="#1b2035"/>
      <path id="Path_20275" data-name="Path 20275" d="M91.83,216.58s.478,3.03,3.208,2.814a2.814,2.814,0,0,0,2.683-2.814A11.708,11.708,0,0,1,91.83,216.58Z" transform="translate(-27.904 -41.484)" fill="#fff"/>
      <path id="Path_20276" data-name="Path 20276" d="M94.8,206.27s.563,3.077-1.079,4.5-1.295,2.955,1.032,3.068,1.876-.938,1.557-.938-1.482.563-2.374.084.863-1.876,1.266-2.965.7-3.255.253-4.025S94.764,205.979,94.8,206.27Z" transform="translate(-27.959 -40.809)" fill="#e38480"/>
      <path id="Path_20277" data-name="Path 20277" d="M76.86,201.086s.582,5.7,1.529,6.276a9.082,9.082,0,0,0,2.383.863s-.854-10.207,0-14.307c.629-2.993-3.18-9.654-4.269-5.207C76.1,190.382,76.175,197.137,76.86,201.086Z" transform="translate(-26.941 -39.668)" fill="#1b2035"/>
      <path id="Path_20278" data-name="Path 20278" d="M113.4,201.667s-.582,5.7-1.539,6.276a8.969,8.969,0,0,1-2.383.863s.863-10.207,0-14.307c-.694-3.34,3.875-7.824,4.325-1.595a49.815,49.815,0,0,1-.4,8.762Z" transform="translate(-28.991 -39.827)" fill="#1b2035"/>
      <path id="Path_20279" data-name="Path 20279" d="M111.441,193.819s-3.959,1.876-16.361.844-17.956-2.449-21.165-7.167.422-10.967,2.111-11.258,2.28,3.368,7.43,1.351,9.7-3.968,17.712-1.773,9.616,3.537,9.954,7S111.8,193.228,111.441,193.819Z" transform="translate(-26.717 -38.903)" fill="#1b2035"/>
      <path id="Path_20280" data-name="Path 20280" d="M124.647,241.541a16.344,16.344,0,0,0-3.415-2.092h0a74.643,74.643,0,0,0-7.3-2.861c-1.013-.422-2.111-.882-3.377-1.379-3.415-1.323-8.7-4.841-9.485-4.738,0,0-.094.572-.122.657a5.71,5.71,0,0,0-.235.535,7.121,7.121,0,0,1-.413.985,7.252,7.252,0,0,1-7.008,4.081c-4.691-.094-7.121-1.745-8.152-4.756-.131-.394-.225-1.088-.319-1.529s-1.595.647-2.6,1.126a45.808,45.808,0,0,1-7.44,3.612c-1.276.5-2.374.938-3.377,1.379a74.636,74.636,0,0,0-7.308,2.889h0a16.5,16.5,0,0,0-3.405,2.092c-4.306,3.64-6.567,12.946-8.443,21.69h80.9C131.2,254.488,128.944,245.182,124.647,241.541Z" transform="translate(-25.456 -42.335)" fill="#2f3b5b"/>
      <path id="Path_20281" data-name="Path 20281" d="M70.589,200.675l-4.475,7.1-8.434-4.719,4.306-4.578Z" transform="translate(-3.567 -12.277)" fill="#fff"/>
      <path id="Path_20282" data-name="Path 20282" d="M71.44,200.675l4.709,7.1,8.2-4.888-4.072-4.409Z" transform="translate(-4.419 -12.277)" fill="#fff"/>
      <path id="Path_20283" data-name="Path 20283" d="M69.458,212.434,66.69,234.011l10.77.019-4.6-21.69Z" transform="translate(-4.125 -13.134)" fill="#1b2035"/>
      <path id="Path_20284" data-name="Path 20284" d="M71.145,200.82l-4.475,7.1,4.522,5.995,4.663-5.995Z" transform="translate(-4.123 -12.421)" fill="#1b2035"/>
      <rect id="Rectangle_10748" data-name="Rectangle 10748" width="66.89" height="8.021" transform="translate(21.953 230.221)" fill="#d5d5d5"/>
      <rect id="Rectangle_10749" data-name="Rectangle 10749" width="90.597" height="8.021" transform="translate(21.944 248.243)" fill="#f1f2f2"/>
      <rect id="Rectangle_10750" data-name="Rectangle 10750" width="90.597" height="8.021" transform="translate(21.944 261.48)" fill="#f1f2f2"/>
      <rect id="Rectangle_10751" data-name="Rectangle 10751" width="90.597" height="8.021" transform="translate(21.944 274.718)" fill="#f1f2f2"/>
      <rect id="Rectangle_10752" data-name="Rectangle 10752" width="42.507" height="8.021" transform="translate(37.901 110.589)" fill="#d5d5d5"/>
      <circle id="Ellipse_1685" data-name="Ellipse 1685" cx="5.132" cy="5.132" r="5.132" transform="translate(21.953 109.641)" fill="#d5d5d5"/>
      <rect id="Rectangle_10753" data-name="Rectangle 10753" width="109.107" height="189.009" transform="translate(415.984 107.005)" fill="#777"/>
      <rect id="Rectangle_10754" data-name="Rectangle 10754" width="109.107" height="189.009" transform="translate(412.232 102.314)" fill="#fff"/>
      <rect id="Rectangle_10755" data-name="Rectangle 10755" width="66.89" height="8.021" transform="translate(421.669 230.221)" fill="#d5d5d5"/>
      <rect id="Rectangle_10756" data-name="Rectangle 10756" width="90.597" height="8.021" transform="translate(421.66 248.243)" fill="#f1f2f2"/>
      <rect id="Rectangle_10757" data-name="Rectangle 10757" width="90.597" height="8.021" transform="translate(421.66 261.48)" fill="#f1f2f2"/>
      <rect id="Rectangle_10758" data-name="Rectangle 10758" width="90.597" height="8.021" transform="translate(421.66 274.718)" fill="#f1f2f2"/>
      <rect id="Rectangle_10759" data-name="Rectangle 10759" width="42.507" height="8.021" transform="translate(437.618 110.598)" fill="#d5d5d5"/>
      <circle id="Ellipse_1686" data-name="Ellipse 1686" cx="5.132" cy="5.132" r="5.132" transform="translate(421.679 109.641)" fill="#d5d5d5"/>
      <rect id="Rectangle_10760" data-name="Rectangle 10760" width="90.588" height="96.01" transform="translate(421.669 124.905)" fill="#acc2e5"/>
      <path id="Path_20285" data-name="Path 20285" d="M514.368,224.176s-.422,8.443,0,10.854c1.473,8.246,14.279,2.955,13.838.5-.141-.779-.722-7.787-.835-8.668l-.469-3.649Z" transform="translate(-54.028 -41.894)" fill="#f7b6a4"/>
      <path id="Path_20286" data-name="Path 20286" d="M514.32,225.466l-.159,5.77s9.2.056,13.134-5.057l-.328-2.439Z" transform="translate(-54.027 -41.927)" fill="#e59780"/>
      <path id="Path_20287" data-name="Path 20287" d="M516.368,223.574a16.68,16.68,0,0,0,12.036-3.4c5.629-4.437,5.516-8.678,6.267-8.246.938.544,2.533.347,3.987-4.841,1.295-4.634.188-6.22-.863-6.464a1.98,1.98,0,0,0-1.426.46s2.871-22.881-14.588-24.476c-21.718-1.989-20.742,17.9-19.879,24.467,0,0-2.026-2.43-3.04.835s.938,10.17,3.359,10.4c.206,0,1.3-.45,1.36-.385C504.453,213.142,506.846,221.192,516.368,223.574Z" transform="translate(-53.063 -39.003)" fill="#f7b6a4"/>
      <path id="Path_20288" data-name="Path 20288" d="M501.886,206.978a1.773,1.773,0,0,0-.31,1.933c.507,1.088,0,1.36-.638.788s-1.088-3.753-.525-4.419S501.98,206.255,501.886,206.978Z" transform="translate(-53.161 -40.776)" fill="#ff8d8d"/>
      <path id="Path_20289" data-name="Path 20289" d="M539.143,206.549a1.792,1.792,0,0,1,.047,1.97c-.657,1-.15,1.342.516.863s1.595-3.584,1.126-4.315S539.124,205.817,539.143,206.549Z" transform="translate(-55.556 -40.76)" fill="#ff8d8d"/>
      <path id="Path_20290" data-name="Path 20290" d="M528.149,201s2.524-.113,2.721,1.285-.994-.178-2.983.2c-.938.159-1.285.066-1.276-.469C526.619,201,528,201,528.149,201Z" transform="translate(-54.797 -40.52)" fill="#1b2035"/>
      <ellipse id="Ellipse_1687" data-name="Ellipse 1687" cx="2.233" cy="1.82" rx="2.233" ry="1.82" transform="translate(471.29 167.867) rotate(-85.57)" fill="#1b2035"/>
      <path id="Path_20291" data-name="Path 20291" d="M529.15,205.124s1.079-.7.938-1.041.816.122.375.563S529.375,205.508,529.15,205.124Z" transform="translate(-54.954 -40.704)" fill="#1b2035"/>
      <path id="Path_20292" data-name="Path 20292" d="M529.59,205.313s1.22-.319,1.229-.741.6.422,0,.713S529.59,205.783,529.59,205.313Z" transform="translate(-54.981 -40.734)" fill="#1b2035"/>
      <path id="Path_20293" data-name="Path 20293" d="M529.9,205.794s1.182,0,1.332-.441.394.591-.216.741S529.739,206.291,529.9,205.794Z" transform="translate(-54.999 -40.783)" fill="#1b2035"/>
      <path id="Path_20294" data-name="Path 20294" d="M513.689,201s-2.533-.113-2.721,1.285.994-.178,2.983.2c.938.159,1.285.066,1.276-.469C515.219,201,513.811,201,513.689,201Z" transform="translate(-53.828 -40.52)" fill="#1b2035"/>
      <ellipse id="Ellipse_1688" data-name="Ellipse 1688" cx="1.82" cy="2.233" rx="1.82" ry="2.233" transform="matrix(1, -0.009, 0.009, 1, 457.462, 163.302)" fill="#1b2035"/>
      <path id="Path_20295" data-name="Path 20295" d="M512.376,204.743s-1.088-.713-.938-1.051-.816.122-.375.563S512.141,205.118,512.376,204.743Z" transform="translate(-53.828 -40.68)" fill="#1b2035"/>
      <path id="Path_20296" data-name="Path 20296" d="M511.9,204.943s-1.22-.319-1.229-.741-.6.422,0,.713S511.9,205.394,511.9,204.943Z" transform="translate(-53.794 -40.711)" fill="#1b2035"/>
      <path id="Path_20297" data-name="Path 20297" d="M511.621,205.4s-1.191,0-1.332-.441-.394.591.206.741S511.78,205.929,511.621,205.4Z" transform="translate(-53.776 -40.759)" fill="#1b2035"/>
      <path id="Path_20298" data-name="Path 20298" d="M519.8,206.11s.572,3.077-1.079,4.5-1.295,2.955,1.032,3.077,1.876-.938,1.567-.938-1.492.572-2.374.084.854-1.876,1.266-2.965.694-3.246.253-4.015S519.773,205.791,519.8,206.11Z" transform="translate(-54.246 -40.799)" fill="#e38480"/>
      <path id="Path_20299" data-name="Path 20299" d="M517.1,217.657s.469,3.03,3.2,2.814a2.814,2.814,0,0,0,2.683-2.861,11.68,11.68,0,0,1-5.882.047Z" transform="translate(-54.208 -41.548)" fill="#fff"/>
      <path id="Path_20300" data-name="Path 20300" d="M537.709,183.954c-3.415-5.563-13.425-9.072-13.05,4.344a24.233,24.233,0,0,0,9.466,7.852l1.248,13.5s1.079-3.912,2.608-8.443C537.981,201.244,541.124,189.526,537.709,183.954Z" transform="translate(-54.675 -39.16)" fill="#1b2035"/>
      <path id="Path_20301" data-name="Path 20301" d="M502.576,183.43c3.415-5.563,13.078-8.565,12.7,4.85a24.233,24.233,0,0,1-9.466,7.852l-1.257,13.5s-1.07-3.912-2.6-8.443C501.929,201.226,499.115,189,502.576,183.43Z" transform="translate(-53.203 -39.142)" fill="#1b2035"/>
      <path id="Path_20302" data-name="Path 20302" d="M505.879,195.9s9.71-2.026,13.594-6.755c0,0,7.505,6.839,13.247,6.755l3.884-11.642s-3.208-9.71-16.962-9.288c-13.969.432-17.722,9.541-17.722,9.541Z" transform="translate(-53.27 -38.91)" fill="#1b2035"/>
      <path id="Path_20303" data-name="Path 20303" d="M517.352,176.979c-.375.122-7.505-7.214-3.415-10.385s13.791-2.908,14.8.507-5.695,11.52-5.695,11.52Z" transform="translate(-53.935 -38.255)" fill="#1b2035"/>
      <path id="Path_20304" data-name="Path 20304" d="M555.546,263.339c-.216-2.524-1.933-19.87-9.288-23.876-7.946-4.325-16.493-5.995-20.461-7.834,0,0-.938,7.646-6.708,10.6-5.225-3.753-6.9-10.507-6.9-10.507-3.968,1.876-12.627,3.875-20.564,8.2-7,3.818-8.9,19.7-9.25,23.454Z" transform="translate(-52.061 -42.415)" fill="#dd9d2c"/>
      <path id="Path_20305" data-name="Path 20305" d="M513.89,230.38s1.023,6.107,7.346,5.629,6.7-5.629,6.7-5.629L521.5,252.839l-1.323-2.608Z" transform="translate(-54.01 -42.338)" fill="#fff"/>
      <path id="Path_20306" data-name="Path 20306" d="M513.406,230.05l-7.355,4.109,3.753,5.225L505.46,242.2s15.254,10.695,15.517,10.62S513.406,230.05,513.406,230.05Z" transform="translate(-53.488 -42.317)" fill="#fabe46"/>
      <path id="Path_20307" data-name="Path 20307" d="M528.356,229.54l7.505,4.747-4.222,5.826,3.152,2.374s-12.628,10.376-12.862,10.32S528.356,229.54,528.356,229.54Z" transform="translate(-54.507 -42.286)" fill="#fabe46"/>
      <rect id="Rectangle_10761" data-name="Rectangle 10761" width="109.107" height="189.009" transform="translate(537.887 107.005)" fill="#777"/>
      <rect id="Rectangle_10762" data-name="Rectangle 10762" width="109.107" height="189.009" transform="translate(534.134 102.314)" fill="#fff"/>
      <rect id="Rectangle_10763" data-name="Rectangle 10763" width="66.89" height="8.021" transform="translate(543.563 230.221)" fill="#d5d5d5"/>
      <rect id="Rectangle_10764" data-name="Rectangle 10764" width="90.597" height="8.021" transform="translate(543.563 248.243)" fill="#f1f2f2"/>
      <rect id="Rectangle_10765" data-name="Rectangle 10765" width="90.597" height="8.021" transform="translate(543.563 261.48)" fill="#f1f2f2"/>
      <rect id="Rectangle_10766" data-name="Rectangle 10766" width="90.597" height="8.021" transform="translate(543.563 274.718)" fill="#f1f2f2"/>
      <rect id="Rectangle_10767" data-name="Rectangle 10767" width="42.507" height="8.021" transform="translate(559.521 110.598)" fill="#d5d5d5"/>
      <circle id="Ellipse_1689" data-name="Ellipse 1689" cx="5.132" cy="5.132" r="5.132" transform="translate(543.572 109.641)" fill="#d5d5d5"/>
      <rect id="Rectangle_10768" data-name="Rectangle 10768" width="90.588" height="96.01" transform="translate(543.563 124.905)" fill="#acc2e5"/>
      <path id="Path_20308" data-name="Path 20308" d="M630.272,189.8s-1.811,7.13-3.837,21.474,2.374,30.715,2.374,30.715l37.62,1.013s6.492-14.935,3.03-37.376c-2.617-17.027-4.935-18.519-6.623-20.714S640.226,178.836,630.272,189.8Z" transform="translate(-60.938 -39.371)" fill="#1b2035"/>
      <path id="Path_20309" data-name="Path 20309" d="M644.318,224.166s-.422,8.443,0,10.845c1.464,8.246,14.279,2.965,13.838.507-.141-.779-.722-7.787-.835-8.668l-.478-3.649Z" transform="translate(-62.066 -41.894)" fill="#f7b6a4"/>
      <path id="Path_20310" data-name="Path 20310" d="M644.26,225.456l-.159,5.77s9.213.056,13.134-5.057l-.328-2.439Z" transform="translate(-62.064 -41.926)" fill="#e59780"/>
      <path id="Path_20311" data-name="Path 20311" d="M646.308,223.666a16.756,16.756,0,0,0,12.046-3.4c5.629-4.447,5.516-8.687,6.257-8.246.938.535,2.542.347,3.987-4.85,1.295-4.634.2-6.211-.854-6.454a1.989,1.989,0,0,0-1.426.45s2.627-21.287-14.832-22.91c-21.727-1.989-20.508,16.343-19.645,22.91,0,0-2.026-2.43-3.04.826s.938,10.179,3.359,10.4c.216,0,1.313-.441,1.36-.375C634.4,213.234,636.795,221.284,646.308,223.666Z" transform="translate(-61.101 -39.105)" fill="#f7b6a4"/>
      <path id="Path_20312" data-name="Path 20312" d="M631.806,206.967a1.764,1.764,0,0,0-.319,1.933c.516,1.088,0,1.351-.629.788s-1.1-3.753-.525-4.428S631.881,206.235,631.806,206.967Z" transform="translate(-61.196 -40.774)" fill="#ff8d8d"/>
      <path id="Path_20313" data-name="Path 20313" d="M669.08,206.539a1.782,1.782,0,0,1,0,1.961c-.647,1.013-.141,1.351.525.863s1.595-3.574,1.116-4.306S669.061,205.807,669.08,206.539Z" transform="translate(-63.59 -40.759)" fill="#ff8d8d"/>
      <path id="Path_20314" data-name="Path 20314" d="M649.875,219.332h-.047a2.936,2.936,0,0,1-2.533-1.248.5.5,0,0,1,.281-.751h0a.5.5,0,0,1,.554.206,2,2,0,0,0,1.707.788,2.814,2.814,0,0,0,2.158-.938.478.478,0,0,1,.61-.075h0a.5.5,0,0,1,.122.76,3.809,3.809,0,0,1-2.852,1.257Z" transform="translate(-62.256 -41.525)" fill="#e38480"/>
      <path id="Path_20315" data-name="Path 20315" d="M657.689,200.26s2.524-.113,2.721,1.285-.994-.169-2.983.2c-.938.159-1.285.066-1.276-.469C656.159,200.326,657.548,200.279,657.689,200.26Z" transform="translate(-62.809 -40.475)" fill="#1b2035"/>
      <ellipse id="Ellipse_1690" data-name="Ellipse 1690" cx="2.24" cy="1.826" rx="2.24" ry="1.826" transform="translate(595.116 167.178) rotate(-85.426)" fill="#1b2035"/>
      <path id="Path_20316" data-name="Path 20316" d="M658.72,205.793s1.088-.713.938-1.051.807.122.366.563S658.983,206.178,658.72,205.793Z" transform="translate(-62.968 -40.745)" fill="#1b2035"/>
      <path id="Path_20317" data-name="Path 20317" d="M659.17,205.943s1.21-.319,1.22-.741.6.422,0,.713S659.17,206.441,659.17,205.943Z" transform="translate(-62.996 -40.773)" fill="#1b2035"/>
      <path id="Path_20318" data-name="Path 20318" d="M659.468,206.454s1.191,0,1.332-.441.394.591-.206.741S659.309,206.932,659.468,206.454Z" transform="translate(-63.013 -40.824)" fill="#1b2035"/>
      <path id="Path_20319" data-name="Path 20319" d="M643.819,200.33s-2.533-.113-2.73,1.285.994-.178,2.993.2c.938.159,1.276.066,1.276-.469C645.367,200.4,643.978,200.339,643.819,200.33Z" transform="translate(-61.876 -40.479)" fill="#1b2035"/>
      <ellipse id="Ellipse_1691" data-name="Ellipse 1691" cx="1.82" cy="2.233" rx="1.82" ry="2.233" transform="matrix(1, -0.009, 0.009, 1, 579.806, 163.88)" fill="#1b2035"/>
      <path id="Path_20320" data-name="Path 20320" d="M642.8,205.364s-1.088-.7-.938-1.041-.807.113-.366.563S642.562,205.748,642.8,205.364Z" transform="translate(-61.895 -40.719)" fill="#1b2035"/>
      <path id="Path_20321" data-name="Path 20321" d="M642.341,205.544s-1.21-.319-1.229-.732-.6.422,0,.713S642.341,206.023,642.341,205.544Z" transform="translate(-61.862 -40.749)" fill="#1b2035"/>
      <path id="Path_20322" data-name="Path 20322" d="M642.04,206.034s-1.191,0-1.342-.441-.385.591.216.741S642.19,206.522,642.04,206.034Z" transform="translate(-61.843 -40.798)" fill="#1b2035"/>
      <path id="Path_20323" data-name="Path 20323" d="M649.862,206.341s.572,3.077-1.079,4.5-1.295,2.965,1.032,3.077,1.876-.938,1.567-.938-1.492.572-2.374.084.854-1.876,1.266-2.965.694-3.246.253-4.015S649.862,206.031,649.862,206.341Z" transform="translate(-62.29 -40.814)" fill="#e38480"/>
      <path id="Path_20324" data-name="Path 20324" d="M643.47,212.348a4.944,4.944,0,1,1,5.179-4.935,5.066,5.066,0,0,1-5.179,4.935Zm0-8.856a3.931,3.931,0,1,0,4.165,3.921A4.053,4.053,0,0,0,643.47,203.492Z" transform="translate(-61.733 -40.611)"/>
      <path id="Path_20325" data-name="Path 20325" d="M657.59,212.168a4.944,4.944,0,1,1,5.179-4.935,5.066,5.066,0,0,1-5.179,4.935Zm0-8.856a3.931,3.931,0,1,0,4.165,3.921,4.053,4.053,0,0,0-4.165-3.921Z" transform="translate(-62.607 -40.6)"/>
      <path id="Path_20326" data-name="Path 20326" d="M652.193,207.405c-1.8-1.51-3.011-.244-3.133-.094l-.769-.657c.657-.779,2.458-1.773,4.55,0Z" transform="translate(-62.323 -40.809)"/>
      <path id="Path_20327" data-name="Path 20327" d="M639.222,188.507s-4.137,8.518-2.7,9.785,6.914-1.1,13.134-1.1,9.616,1.942,11.258.675-.76-9.447-3.293-11.9S641.586,182.118,639.222,188.507Z" transform="translate(-61.576 -39.464)" fill="#1b2035"/>
      <path id="Path_20328" data-name="Path 20328" d="M645.341,192.662s-7.815.216-9.194,9.747,2.486,25.433,2.486,25.433l-4.55,3.556s-11.652-6.2-4.053-40.622c2.57-11.661,12.018-15.78,18.012-13.331C651.927,179.021,655.088,190.514,645.341,192.662Z" transform="translate(-61.034 -39.022)" fill="#1b2035"/>
      <path id="Path_20329" data-name="Path 20329" d="M650.229,189.68s11.126,2.814,12.515,12.384-2.261,22.609-2.261,22.609l2.908,4.175s13.584-5.1,4.156-38.464c-3.246-11.492-11.258-15.489-16.887-13.078C646.8,178.994,640.482,187.531,650.229,189.68Z" transform="translate(-62.123 -39.013)" fill="#1b2035"/>
      <path id="Path_20330" data-name="Path 20330" d="M685.5,263.329c-.216-2.533-1.942-19.87-9.3-23.885-7.937-4.325-16.483-5.985-20.452-7.824,0,0-.554,1.876-6.9,1.614-6.117,1.388-6.708-1.52-6.708-1.52-3.968,1.876-12.628,3.875-20.564,8.2-7,3.809-8.894,19.7-9.25,23.454Z" transform="translate(-60.098 -42.414)" fill="#561e3d"/>
      <path id="Path_20331" data-name="Path 20331" d="M626.612,203.227l-4.475,7.111-9.9-5.619,6.135-4.118Z" transform="translate(-37.868 -12.408)" fill="#fff"/>
      <path id="Path_20332" data-name="Path 20332" d="M627.56,203.216l4.71,7.111,10.085-6-6.539-3.9Z" transform="translate(-38.816 -12.396)" fill="#fff"/>
      <path id="Path_20333" data-name="Path 20333" d="M367.71,306.5A111.33,111.33,0,1,1,479.04,195.17,111.33,111.33,0,0,1,367.71,306.5Zm0-203.888a92.567,92.567,0,1,0,92.567,92.564,92.567,92.567,0,0,0-92.567-92.564Z" transform="translate(-38.082 -33.274)" fill="#1dbf73"/>
      <rect id="Rectangle_10769" data-name="Rectangle 10769" width="18.763" height="163.388" transform="matrix(0.741, -0.672, 0.672, 0.741, 394.858, 238.053)" fill="#1dbf73"/>
    </g>
  </g>
</svg>
